<svg width="22" height="22" viewBox="0 0 22 22" fill="none" xmlns="http://www.w3.org/2000/svg">
<g clip-path="url(#clip0_2136_8100)">
<mask id="mask0_2136_8100" style="mask-type:luminance" maskUnits="userSpaceOnUse" x="0" y="0" width="22" height="22">
<path d="M0 0.512573H22V21.5126H0V0.512573Z" fill="white"/>
</mask>
<g mask="url(#mask0_2136_8100)">
<path d="M1.95374 7.57799C2.0921 7.70948 2.09668 8.01207 2.11273 8.19679C2.3474 10.8752 1.81233 13.9923 2.10815 16.6314C2.15707 17.0654 2.20242 17.2076 2.67506 17.2708L19.4106 17.229C19.5145 17.1879 19.6613 17.1391 19.7163 17.046C20.1015 16.3958 19.5481 11.8841 19.781 10.8166C19.8692 10.3354 20.5454 10.0826 20.9006 10.455C21.2501 10.8215 20.9301 19.2018 20.9599 20.3685C19.0133 21.6129 20.4486 18.5967 19.2088 18.4776L2.911 18.4637C1.51983 18.3964 2.43199 19.8046 1.99298 20.4361C1.66252 20.9115 0.867311 20.6548 0.857629 20.0776L0.857884 7.95909C0.796734 7.4115 1.62404 7.26421 1.95374 7.57799ZM2.97903 13.8399H18.9063V16.2733C18.9063 16.286 18.7331 16.4515 18.7198 16.4515H3.16553C3.15228 16.4515 2.97903 16.2862 2.97903 16.2733V13.8399ZM5.4393 10.0654C7.59076 9.80651 7.72987 12.8269 5.73536 12.9436C3.86264 13.0529 3.49116 10.2994 5.4393 10.0654ZM8.08072 10.4572C8.08072 10.3035 8.55871 10.0644 8.75872 10.0355C9.97357 9.86047 15.338 9.89571 16.549 10.0945C18.0563 10.342 18.9601 11.5837 18.9063 13.0092H8.08072V10.4572ZM2.94998 20.4003C3.00349 20.1519 2.91304 19.3394 3.05113 19.2979L18.9071 19.2996C18.4026 21.4727 21.1661 22.4658 21.8958 20.3116C21.6425 17.281 22.2224 13.7799 21.8991 10.8071C21.8165 10.0474 21.4028 9.52409 20.5706 9.45385C19.4121 9.35663 19.0663 10.3959 18.967 10.3996C18.8541 10.4037 18.0191 9.71901 17.7085 9.58169C17.3179 9.40912 16.7816 9.25454 16.3541 9.21225C14.624 9.04139 10.353 9.02462 8.64101 9.21128C7.9281 9.28906 7.47152 9.90057 7.39763 9.90227C7.34922 9.90325 6.80523 9.47086 6.5856 9.39065C4.97838 8.80417 3.18668 9.86509 3.2249 11.52C3.23535 11.9789 3.78799 12.8476 3.72557 12.8891C3.69499 12.9095 3.00527 12.9158 2.97903 12.8903C2.78284 12.7039 2.97903 8.30689 2.97903 7.60837C2.97903 7.52184 2.60041 6.9988 2.47607 6.90109C1.67908 6.27573 0.25734 6.61235 0 7.61566V20.4207C0.388558 21.855 2.64092 21.8474 2.94998 20.4003Z" fill="black"/>
<path d="M7.45927 4.93896C7.22511 5.39857 5.55164 6.53823 5.64948 6.96599C5.66885 7.05058 5.85968 7.31161 5.90376 7.31161H8.76584C8.947 7.31161 9.07414 6.69232 8.83514 6.53288C8.58443 6.36518 7.57469 6.54746 7.21034 6.47941C7.37009 6.12213 9.76845 4.40376 8.76584 4.10676C8.38824 3.99495 6.48189 4.10676 5.90376 4.10676C5.83879 4.10676 5.59088 4.39355 5.58986 4.52237C5.58425 5.16572 7.03045 4.8816 7.45927 4.93896ZM11.4406 1.43539C11.1408 1.90594 9.27823 3.01935 9.82119 3.57569C10.0716 3.83211 12.1635 3.80076 12.5992 3.72152C13.2209 3.60899 12.9865 2.9197 12.9345 2.9197H11.1925C11.365 2.53325 13.6171 0.937627 12.9345 0.54583C12.8038 0.470728 10.3203 0.54583 9.8859 0.54583C9.80845 0.54583 9.70245 0.740513 9.69022 0.844295C9.60105 1.60018 11.0108 1.28324 11.4406 1.43539Z" fill="black"/>
</g>
</g>
<defs>
<clipPath id="clip0_2136_8100">
<rect width="22" height="21" fill="white" transform="translate(0 0.512573)"/>
</clipPath>
</defs>
</svg>
