<svg width="21" height="25" viewBox="0 0 21 25" fill="none" xmlns="http://www.w3.org/2000/svg">
<g clip-path="url(#clip0_2136_8109)">
<mask id="mask0_2136_8109" style="mask-type:luminance" maskUnits="userSpaceOnUse" x="0" y="0" width="21" height="25">
<path d="M0 0.0125732H21V24.0126H0V0.0125732Z" fill="white"/>
</mask>
<g mask="url(#mask0_2136_8109)">
<path d="M19.1447 7.14846C19.2501 5.66137 17.7533 3.58403 16.6662 2.61867C8.9787 -4.20928 -3.78502 3.48002 1.07399 12.9783C1.52988 13.8695 2.16291 14.6906 2.59863 15.5922C3.66686 17.8018 3.6661 19.8688 2.93531 22.1781C2.83423 22.498 2.39902 23.368 2.38013 23.5738C2.34286 23.9839 2.99121 24.2552 3.31895 23.6955C4.15031 22.2759 4.52886 19.3547 4.29402 17.7543C3.87413 14.8893 1.27947 12.7249 1.02754 10.0122C0.653336 5.98028 2.86537 2.79365 6.74727 1.41426C10.7928 -0.0232936 16.3754 1.8872 18.0198 5.8642C18.5581 7.16596 18.103 7.33626 17.9608 8.51331C17.8146 9.72265 18.7516 10.1924 19.438 11.0183C19.5324 11.1321 19.9993 11.7438 20.02 11.8237C20.1182 12.1968 19.1437 12.6138 18.8833 12.8452C18.2385 13.4177 19.0357 13.7238 18.9997 14.0972C18.9806 14.2966 18.5257 14.3515 18.4981 14.7537C18.4808 15.0066 18.699 15.1959 18.7031 15.3878C18.7082 15.6565 18.444 15.8278 18.4034 16.0377C18.2362 16.9043 19.1072 17.546 18.3996 18.2563C17.7916 18.8665 16.6036 18.5035 15.8376 18.437C15.5415 18.4113 14.7745 18.2891 14.5818 18.2972C14.2627 18.3108 13.9574 18.4941 13.7828 18.7448C13.0893 19.7402 12.9545 21.3966 13.2208 22.5406C13.3208 22.9702 13.7101 24.357 14.3868 23.8436C14.7638 23.5577 14.2553 22.9303 14.1443 22.5806C13.7721 21.403 13.9419 20.2565 14.5389 19.1837C15.2439 19.2254 16.0365 19.3981 16.7305 19.4385C17.0644 19.458 17.7589 19.4868 18.0617 19.4351C18.5926 19.3444 19.4188 18.5055 19.5531 18.0081C19.7369 17.3259 19.1631 16.7012 19.3259 16.1395C19.3816 15.948 19.5654 15.8386 19.5929 15.6065C19.6299 15.2935 19.4122 15.0288 19.4331 14.8967C19.439 14.8609 19.6871 14.7574 19.7711 14.6337C20.1468 14.0799 19.6093 13.5863 19.6687 13.3936C19.9733 13.0899 20.8904 12.7146 20.9848 12.2904C21.1839 11.3958 19.3384 9.88235 18.8606 9.13832C18.7251 8.46057 19.0982 7.80476 19.1447 7.14846Z" fill="black"/>
<path d="M15.0941 5.8116C15.0505 3.91022 13.0368 2.65947 11.2168 3.43087C10.1453 2.52639 8.55707 2.34919 7.38111 3.18294C6.88286 3.53611 6.53724 4.01225 6.3213 4.57046C5.65585 4.53153 4.98887 4.71267 4.4776 5.14273C3.8313 5.68615 3.58421 6.46864 3.60106 7.28045C1.24047 9.0623 3.28122 12.5538 6.09387 11.5332C6.75242 12.1526 7.58889 12.3781 8.49632 12.2366C8.81334 12.1873 9.29016 12.089 9.26157 11.6887C9.25366 11.5764 9.13879 11.4103 9.03312 11.3619C8.80977 11.2604 8.28905 11.4655 8.00113 11.4716C6.68887 11.5 5.80543 10.1132 6.41498 8.99305C6.56047 8.72589 7.00972 8.47722 6.96862 8.19233C6.92013 7.85838 6.52193 7.71593 6.24625 7.91236C5.51827 8.43114 5.25281 9.40167 5.41285 10.2379C5.44756 10.4203 5.52389 10.5886 5.58285 10.7631C5.59153 10.7889 5.62828 10.7951 5.57774 10.8247C5.43276 10.9104 4.97024 10.8912 4.79794 10.8602C3.2996 10.591 2.92438 8.53218 4.2688 7.86824C4.70529 7.6521 4.91459 7.77533 5.3179 7.7046C5.64411 7.64742 5.73192 7.22894 5.49555 7.02217C5.25025 6.80776 4.80764 6.90387 4.50772 6.90782C4.48398 6.05016 5.33117 5.28123 6.21869 5.44241C6.2437 5.9087 6.47649 6.37573 6.87546 6.64461C7.03218 6.75058 7.31526 6.82378 7.4217 6.92088C7.52967 7.01946 7.65041 7.31693 7.77778 7.46652C7.90694 7.61834 8.38503 8.00872 8.5706 8.04963C9.00708 8.14624 9.31032 7.68414 9.02546 7.3603C8.93408 7.25679 8.72681 7.17965 8.61169 7.09192C8.30284 6.85729 8.28803 6.50462 7.9853 6.26187C7.72545 6.05361 7.37014 6.0647 7.18227 5.80346C6.7805 5.2455 7.32853 4.28286 7.80918 3.9117C8.93076 3.04567 10.8475 3.56174 11.151 4.95567C11.2153 5.25018 11.1259 5.5999 11.5497 5.63243C12.2179 5.68369 12.0474 4.86843 11.9086 4.48248C11.8789 4.40115 11.7273 4.19044 11.7881 4.13868C11.8338 4.09974 12.0918 4.04897 12.1641 4.04183C13.1585 3.94571 14.0111 4.58525 14.1665 5.5304C13.7972 5.45892 12.8308 5.60014 12.6085 5.9055C12.3547 6.25373 12.7198 6.6621 13.1552 6.51965C13.4853 6.41195 13.6062 6.30721 13.9993 6.33777C15.5651 6.45927 16.1358 8.38185 14.9548 9.34745C14.6827 9.56975 14.0902 9.78317 13.7418 9.68509C13.6701 9.66488 13.5682 9.54067 13.4365 9.5207C12.9497 9.448 12.9574 9.78219 12.8346 10.0836C12.476 10.9634 11.3434 11.2109 10.6159 10.5797C10.279 10.2877 10.2619 9.89703 10.0051 9.5626C9.59927 9.03421 8.809 8.79465 8.1479 8.77297C7.49062 8.75153 7.41787 9.47807 7.97688 9.59858C8.21733 9.64984 8.4662 9.63999 8.72069 9.71244C9.51555 9.93918 9.37107 10.4259 9.79837 10.9388C10.8061 12.1484 12.8788 11.9507 13.5473 10.528C16.4054 10.8252 17.5895 7.15106 15.0941 5.8116Z" fill="black"/>
<path d="M11.469 6.51293C11.2056 6.47029 11.0695 6.49913 10.7969 6.38724C10.0072 6.06315 10.1876 5.41424 9.66462 4.92651C9.44357 4.72048 8.93868 4.47846 8.62982 4.53293C8.3447 4.58321 8.23468 4.89029 8.35389 5.13033C8.47182 5.36742 8.72375 5.33883 8.92642 5.43864C9.29731 5.62151 9.28735 5.99809 9.47573 6.31404C9.83691 6.91982 10.6833 7.41001 11.4182 7.33953C11.9162 7.29196 11.9471 6.59031 11.469 6.51293ZM11.446 8.83056C12.0318 9.30794 13.2226 9.05434 13.7637 8.60013C14.1369 8.28714 13.96 7.70058 13.4444 7.80409C13.3117 7.83071 13.1698 8.00495 13.046 8.07938C12.4992 8.40814 12.3052 8.1787 11.8003 8.11561C11.3008 8.05325 11.1451 8.58534 11.446 8.83056Z" fill="black"/>
</g>
</g>
<defs>
<clipPath id="clip0_2136_8109">
<rect width="21" height="24" fill="white" transform="translate(0 0.0125732)"/>
</clipPath>
</defs>
</svg>
