<svg width="17" height="16" viewBox="0 0 17 16" fill="none" xmlns="http://www.w3.org/2000/svg">
<path d="M7.38 9.43999L5.66 7.72C5.51333 7.57333 5.32666 7.5 5.1 7.5C4.87333 7.5 4.68667 7.57333 4.54 7.72C4.39333 7.86666 4.32 8.05333 4.32 8.27999C4.32 8.50666 4.39333 8.69333 4.54 8.84L6.82 11.12C6.98 11.28 7.16666 11.36 7.38 11.36C7.59333 11.36 7.78 11.28 7.94 11.12L12.46 6.6C12.6067 6.45333 12.68 6.26666 12.68 6.04C12.68 5.81333 12.6067 5.62666 12.46 5.48C12.3133 5.33333 12.1267 5.26 11.9 5.26C11.6733 5.26 11.4867 5.33333 11.34 5.48L7.38 9.43999ZM8.5 16C7.39333 16 6.35333 15.7899 5.38 15.3696C4.40667 14.9493 3.56 14.3795 2.84 13.66C2.12 12.9405 1.55013 12.0939 1.1304 11.12C0.710668 10.1461 0.500534 9.10613 0.500001 8C0.499468 6.89386 0.709601 5.85386 1.1304 4.88C1.5512 3.90613 2.12107 3.05946 2.84 2.34C3.55893 1.62053 4.4056 1.05067 5.38 0.6304C6.3544 0.210133 7.3944 0 8.5 0C9.6056 0 10.6456 0.210133 11.62 0.6304C12.5944 1.05067 13.4411 1.62053 14.16 2.34C14.8789 3.05946 15.4491 3.90613 15.8704 4.88C16.2917 5.85386 16.5016 6.89386 16.5 8C16.4984 9.10613 16.2883 10.1461 15.8696 11.12C15.4509 12.0939 14.8811 12.9405 14.16 13.66C13.4389 14.3795 12.5923 14.9496 11.62 15.3704C10.6477 15.7912 9.60773 16.0011 8.5 16Z" fill="#24C433"/>
</svg>
