<svg width="30" height="30" viewBox="0 0 30 30" fill="none" xmlns="http://www.w3.org/2000/svg">
<path d="M15 0C23.2843 0 30 6.71573 30 15C30 23.2843 23.2843 30 15 30C6.71573 30 0 23.2843 0 15C1.03081e-06 6.71573 6.71573 1.03088e-06 15 0ZM22.5166 7.76074C22.0073 7.25164 21.1822 7.25158 20.6729 7.76074L15.1377 13.2939L9.60449 7.76074C9.09518 7.25153 8.27011 7.25162 7.76074 7.76074C7.25136 8.27012 7.25136 9.09609 7.76074 9.60547L13.2939 15.1387L7.76074 20.6729C7.25138 21.1822 7.25142 22.0082 7.76074 22.5176C8.27009 23.0266 9.0952 23.0267 9.60449 22.5176L15.1377 16.9824L20.6729 22.5176L20.7715 22.6064C21.2837 23.0243 22.039 22.9949 22.5166 22.5176C22.9941 22.0401 23.0242 21.2848 22.6064 20.7725L22.5166 20.6729L16.9824 15.1387L22.5166 9.60547L22.6064 9.50586C23.0242 8.99355 22.9941 8.23827 22.5166 7.76074Z" fill="#FF5246"/>
</svg>
