<svg width="64" height="64" viewBox="0 0 64 64" fill="none" xmlns="http://www.w3.org/2000/svg">
<g clip-path="url(#clip0_2186_11951)">
<mask id="mask0_2186_11951" style="mask-type:luminance" maskUnits="userSpaceOnUse" x="0" y="0" width="64" height="64">
<path d="M64 0H0V64H64V0Z" fill="white"/>
</mask>
<g mask="url(#mask0_2186_11951)">
<path d="M25.2601 42.5912C32.1699 37.777 37.7769 32.1699 42.5911 25.2602C40.4955 34.0389 34.1522 40.6089 25.2601 42.5912ZM29.7911 31.4336L34.492 27.1292L41.7982 22.2018C36.9274 30.4142 29.961 37.154 21.8619 42.1381L29.7345 31.377L29.7911 31.4336ZM38.4566 21.5221C31.9433 26.2797 26.223 31.8867 21.5221 38.4566C23.2778 29.7912 29.9044 23.5044 38.4566 21.5221ZM42.5911 17.8974C36.4743 20.3894 30.8672 21.0124 25.8265 25.9965C19.7097 32.1133 19.823 40.6089 15.1787 47.3487C15.292 50.4071 18.7469 47.2354 20.446 46.5558C27.2991 43.6673 33.5858 43.1575 38.9097 37.154C43.2707 32.2266 43.8938 26.9593 46.2725 21.1257C46.7256 20.0496 49.161 16.1416 48.7079 15.462C48.0849 14.6124 43.8371 17.4443 42.7044 17.8974" fill="#24C433"/>
<path d="M63.0937 5.04071C62.584 5.15398 62.1875 5.55044 61.7345 5.89027C59.0159 7.9292 51.8229 15.4619 50.0106 18.2372C46.2725 23.9575 45.9893 30.8106 41.7415 36.7009C35.7946 44.9133 29.2814 44.6867 21.1256 48.4248C14.7822 51.3699 10.4778 57.8265 5.26719 62.3009C4.30436 64.4531 6.00348 64.2265 7.36277 63.2637C10.5345 60.9982 13.9893 56.1841 17.161 53.4655C23.5044 48.085 31.9999 48.2549 38.6265 42.931C48.4247 35.115 46.6123 25.1469 53.5221 17.1611C54.9946 15.4619 64.2831 7.13628 63.9999 5.9469L63.1504 5.04071H63.0937ZM58.3929 2.15221C58.7893 1.41593 58.846 0.906196 58.7327 0.056638C58.053 -0.0566363 57.5999 0.056638 57.0336 0.396461C54.7114 1.75575 50.0672 7.81593 47.4619 10.0248C39.476 16.8212 29.338 15.7451 21.8619 24.2973C15.6884 31.377 15.9716 40.4956 10.0247 47.4619C7.19286 50.8035 3.34153 53.7487 0.396397 57.0336C-0.396523 58.1097 -6.26557e-05 59.5257 1.41587 58.846C2.54861 58.2796 10.3079 50.4071 11.4973 48.9911C16.3114 43.2708 16.4247 38.5699 19.2566 32.2832C26.4495 16.5381 38.5698 20.446 49.3309 11.1575C50.6902 9.96814 57.7698 3.17168 58.3929 2.15221ZM52.9557 42.9876C54.8247 42.8743 56.4106 42.7611 54.8247 40.7221H47.292C44.7433 43.6673 51.03 43.1009 52.9557 42.9876ZM8.3256 22.0885C8.26896 22.485 9.06188 23.3345 9.28843 23.3911C10.9309 23.8442 14.5557 23.0513 16.4247 23.3911C16.8778 23.3911 17.2176 21.9752 16.9345 21.5221C16.538 20.9558 8.66542 20.6159 8.3256 22.0885ZM16.9911 18.6903C18.3504 19.3133 19.3699 18.577 18.5203 17.1611C18.3504 16.8779 14.4424 12.9699 14.2159 12.8566C13.7061 12.5735 13.3663 12.3469 12.7433 12.5168L12.1769 13.3664C12.1769 13.9327 16.4814 18.4071 17.0477 18.6903M45.253 46.8389C45.5362 47.4053 49.5575 51.3699 50.0106 51.5398C50.5203 51.7097 51.0867 51.5965 51.5964 51.5965C51.7097 50.9168 51.5964 50.4637 51.2566 49.8973C51.0867 49.6142 47.4619 45.9894 47.1221 45.7628C45.7061 44.8 44.3468 45.1965 45.253 46.8389ZM42.5911 47.292C42.5911 46.5558 40.7221 46.5558 40.7221 47.292V55.3912H42.5911V47.292ZM22.9946 16.7646V8.66549L21.1256 9.23186V16.9345L22.4283 17.2743L23.0513 16.7646H22.9946Z" fill="#24C433"/>
</g>
</g>
<defs>
<clipPath id="clip0_2186_11951">
<rect width="64" height="64" fill="white"/>
</clipPath>
</defs>
</svg>
