<svg width="64" height="64" viewBox="0 0 64 64" fill="none" xmlns="http://www.w3.org/2000/svg">
<mask id="mask0_2186_12013" style="mask-type:luminance" maskUnits="userSpaceOnUse" x="2" y="0" width="60" height="64">
<path d="M61.2965 0H2.70337V64H61.2965V0Z" fill="white"/>
</mask>
<g mask="url(#mask0_2186_12013)">
<path d="M8.66199 17.6C8.66199 16.938 9.21371 16.3862 9.87578 16.3862H13.6827C14.3447 16.3862 14.8965 16.938 14.8965 17.6V18.4276H8.60682V17.6H8.66199ZM18.9241 46.4C18.9241 47.0621 18.3723 47.6138 17.7103 47.6138H5.8482C5.18613 47.6138 4.6344 47.0621 4.6344 46.4V21.5724C4.6344 20.9104 5.18613 20.3586 5.8482 20.3586H17.7103C18.3723 20.3586 18.9241 20.9104 18.9241 21.5724V46.4ZM17.7103 18.3724H16.8275V17.5449C16.8275 15.8345 15.4482 14.4 13.6827 14.4H9.87578C8.16544 14.4 6.73096 15.7793 6.73096 17.5449V18.3724H5.8482C4.13785 18.3724 2.70337 19.7517 2.70337 21.5173V46.3449C2.70337 48.0552 4.08268 49.4897 5.8482 49.4897H17.7103C19.4206 49.4897 20.8551 48.1104 20.8551 46.3449V21.5173C20.8551 19.8069 19.4758 18.3724 17.7103 18.3724Z" fill="#24C433"/>
<path d="M16.1654 39.2827H7.33786C7.062 39.2827 6.84131 39.5034 6.84131 39.7793V44.4137C6.84131 44.6896 7.062 44.9103 7.33786 44.9103H16.1654C16.4413 44.9103 16.662 44.6896 16.662 44.4137V39.7793C16.662 39.5034 16.4413 39.2827 16.1654 39.2827ZM16.1654 22.6206H7.33786C7.062 22.6206 6.84131 22.8413 6.84131 23.1172V27.7517C6.84131 28.0275 7.062 28.2482 7.33786 28.2482H16.1654C16.4413 28.2482 16.662 28.0275 16.662 27.7517V23.1172C16.662 22.8413 16.4413 22.6206 16.1654 22.6206ZM16.1654 31.0068H7.33786C7.062 31.0068 6.84131 31.2275 6.84131 31.5034V36.1379C6.84131 36.4137 7.062 36.6344 7.33786 36.6344H16.1654C16.4413 36.6344 16.662 36.4137 16.662 36.1379V31.5034C16.662 31.2275 16.4413 31.0068 16.1654 31.0068ZM58.8137 9.15857L49.2137 25.6551L48.7723 26.7586C48.8275 28.4137 48.7723 30.1241 48.7723 31.7793C48.7172 33.7103 48.662 35.7517 48.7723 37.6275C48.993 40.7724 49.5999 44.1379 50.1517 47.3379C50.7585 50.7586 51.3654 54.2344 51.5861 57.5448C51.6965 59.0344 51.0896 60.3586 50.0965 61.0758C49.5999 61.462 48.9379 61.6275 48.331 61.6275C47.8344 61.6275 47.2827 61.5172 46.731 61.2965C45.1861 60.6344 44.9103 59.3103 44.6896 57.8758V57.5448C44.1379 55.062 43.862 52.3034 43.531 49.6551C43.1448 46.0689 42.7034 42.4275 41.931 39.1724C41.8206 38.7862 41.7103 38.4551 41.5999 38.3999C41.2689 38.0689 40.8275 38.0137 40.3861 38.1793C39.9448 38.3448 39.6689 38.6758 39.6137 39.062C39.062 42.0965 38.6758 45.1862 38.2896 48.1655C37.9034 51.2551 37.462 54.4551 36.9103 57.5448C36.5241 59.6965 35.9723 61.462 33.5448 61.6275C32.4965 61.6827 31.6689 61.4068 31.0068 60.7448C30.2896 60.0275 29.9034 58.8689 29.9586 57.5448C30.1241 54.2344 30.7861 50.7034 31.393 47.3379C31.9999 44.0275 32.5517 40.662 32.7723 37.4068C32.8827 35.531 32.8275 33.5448 32.7723 31.6689C32.7723 30.0137 32.662 28.3586 32.7723 26.7034C30.9517 23.062 28.8551 19.531 26.8137 16.1103C25.4896 13.8482 24.1103 11.531 22.7861 9.26891C22.2344 7.61374 23.0068 6.2896 24.0551 5.73788C24.993 5.18615 26.4827 5.07581 27.6965 6.45512L34.6482 18.2068C35.5861 19.1999 36.8551 18.9241 38.1241 18.6482C38.5654 18.5379 39.062 18.4275 39.4482 18.4275C40.2206 18.3724 41.4896 18.3724 42.262 18.4275C42.9241 18.4827 43.4758 18.593 43.9172 18.7034C45.3517 19.0344 46.1792 19.2551 47.4482 17.3241C48.4413 15.8896 49.3241 14.1793 50.2068 12.5241C51.3103 10.4827 52.4137 8.38615 53.6827 6.73098C54.8413 5.18615 56.4413 5.18615 57.4344 5.6827C58.4827 6.23443 59.3103 7.50339 58.8137 9.15857ZM58.7034 3.80684C56.7172 2.64822 53.7379 2.70339 51.8068 5.46201L45.1861 16.7172C41.9861 15.9448 39.1723 15.9999 36.5792 16.7172L29.2965 4.63443C28.2482 3.58615 26.9241 3.0896 25.5999 3.0896C24.2758 3.0896 23.7792 3.31029 22.9517 3.80684C20.9103 5.02063 19.9723 7.2827 20.5792 9.65512C22.3448 13.0758 24.331 16.4965 26.3172 19.7517C27.6965 22.1241 29.1861 24.5517 30.5103 27.0344C31.0068 34.593 29.9585 42.0965 28.9103 49.3793C28.4689 52.4137 28.0275 55.5034 27.6965 58.593C27.862 61.2413 29.8482 63.393 32.662 64.0551H34.2068C37.131 63.393 38.6206 61.793 39.2275 58.7034C39.5585 56.9379 39.7792 55.1172 39.9999 53.3517C40.2206 51.6413 40.4413 49.8758 40.7723 48.2206V47.8896C40.8275 47.8896 41.2689 49.5448 41.2689 49.5448C41.5999 51.0344 41.7654 52.6896 41.931 54.2344C42.1517 56.0551 42.3172 57.931 42.7585 59.5862C43.3103 61.9034 45.131 63.5586 47.6689 63.9999H49.2137C52.0275 63.3379 53.9585 61.2413 54.1241 58.5379C53.793 55.5034 53.3517 52.4137 52.9103 49.4896C51.862 42.2068 50.8137 34.6482 51.3103 27.0344L60.8551 10.6482C62.2896 7.55856 60.8551 4.96546 58.8689 3.80684" fill="#24C433"/>
<path d="M46.069 7.06205C46.3448 9.59998 45.131 12.5241 41.6552 13.0207C41.3793 13.0207 41.0483 13.0758 40.7724 13.0758C39.0621 13.0758 37.6276 12.4138 36.6345 11.0896C35.4207 9.48964 35.1448 7.17239 35.9724 5.29653C36.7448 3.58619 38.2897 2.53791 40.2759 2.31722C43.8069 1.98619 45.7379 4.52412 46.069 7.06205ZM39.3379 0.110325C37.1862 0.386187 34.7586 2.31722 33.7655 4.46895C32.3862 7.5586 33.0483 10.8689 35.4207 13.1862C37.7931 15.5034 41.1586 16 44.1931 14.5655C48.1655 12.6345 49.0483 8.60688 48.1103 5.51722C47.2276 2.59308 44.4138 -0.551744 39.3379 0.110325Z" fill="#24C433"/>
</g>
</svg>
