<svg width="64" height="62" viewBox="0 0 64 62" fill="none" xmlns="http://www.w3.org/2000/svg">
<g clip-path="url(#clip0_2186_11923)">
<mask id="mask0_2186_11923" style="mask-type:luminance" maskUnits="userSpaceOnUse" x="0" y="0" width="64" height="62">
<path d="M0 0H64V62H0V0Z" fill="white"/>
</mask>
<g mask="url(#mask0_2186_11923)">
<path d="M5.68362 20.8599C6.0861 21.2481 6.09944 22.1415 6.14613 22.6869C6.82879 30.5945 5.27225 39.7975 6.13279 47.5889C6.27511 48.8705 6.40704 49.2903 7.78199 49.4768L56.4671 49.3534C56.7695 49.2321 57.1964 49.0879 57.3565 48.8131C58.4772 46.8936 56.8673 33.5732 57.5448 30.4216C57.8012 29.0008 59.7684 28.2545 60.8017 29.3539C61.8186 30.436 60.8876 55.178 60.9744 58.6223C55.3115 62.2963 59.4868 53.3912 55.88 53.0396L8.46835 52.9987C4.42133 52.7999 7.07487 56.9576 5.79777 58.8218C4.83641 60.2254 2.52309 59.4676 2.49492 57.7634L2.49566 21.9851C2.31777 20.3684 4.72449 19.9335 5.68362 20.8599ZM8.66626 39.3475H55.0002V46.5319C55.0002 46.5692 54.4962 47.0579 54.4576 47.0579H9.20883C9.17028 47.0579 8.66626 46.5699 8.66626 46.5319V39.3475ZM15.8234 28.2036C22.0822 27.4394 22.4869 36.3567 16.6847 36.7011C11.2368 37.024 10.1561 28.8946 15.8234 28.2036ZM23.5076 29.3603C23.5076 28.9068 24.8981 28.2007 25.4799 28.1153C29.014 27.5987 44.6195 27.7027 48.1425 28.2897C52.5275 29.0202 55.1566 32.6863 55.0002 36.8949H23.5076V29.3603ZM8.58176 58.7163C8.73741 57.983 8.47428 55.5841 8.87602 55.4614L55.0024 55.4664C53.5348 61.8823 61.574 64.8143 63.6968 58.4544C62.9601 49.507 64.6471 39.1703 63.7065 30.3936C63.4663 28.1505 62.2626 26.6055 59.8418 26.3982C56.4715 26.1111 55.4657 29.1795 55.1766 29.1902C54.8483 29.2024 52.4193 27.181 51.5158 26.7756C50.3795 26.2661 48.8192 25.8097 47.5755 25.6849C42.5426 25.1804 30.1177 25.1309 25.1375 25.682C23.0636 25.9116 21.7353 27.7171 21.5204 27.7221C21.3795 27.725 19.797 26.4484 19.1581 26.2116C14.4826 24.4801 9.27035 27.6123 9.38153 32.4983C9.41192 33.8531 11.0196 36.4177 10.838 36.5404C10.7491 36.6007 8.7426 36.6193 8.66626 36.544C8.09552 35.9936 8.66626 23.0119 8.66626 20.9496C8.66626 20.6941 7.56482 19.1499 7.2031 18.8615C4.88459 17.0151 0.748625 18.009 0 20.9711V58.7766C1.13035 63.011 7.68267 62.9888 8.58176 58.7163Z" fill="#24C433"/>
<path d="M21.6998 13.0685C21.0186 14.4254 16.1503 17.7901 16.435 19.0531C16.4913 19.3028 17.0465 20.0735 17.1747 20.0735H25.5007C26.0277 20.0735 26.3976 18.2451 25.7023 17.7744C24.973 17.2792 22.0356 17.8174 20.9756 17.6165C21.4404 16.5616 28.4174 11.4884 25.5007 10.6115C24.4023 10.2814 18.8565 10.6115 17.1747 10.6115C16.9857 10.6115 16.2645 11.4582 16.2615 11.8386C16.2452 13.738 20.4523 12.8991 21.6998 13.0685ZM33.282 2.72463C32.4096 4.11386 26.9913 7.40107 28.5708 9.04361C29.2994 9.80065 35.3848 9.70808 36.6523 9.47415C38.4608 9.14191 37.7789 7.10687 37.6277 7.10687H32.56C33.0618 5.96592 39.6134 1.25504 37.6277 0.098303C37.2475 -0.123428 30.0229 0.098303 28.7591 0.098303C28.5338 0.098303 28.2254 0.673081 28.1899 0.979486C27.9304 3.21115 32.0316 2.27543 33.282 2.72463Z" fill="#24C433"/>
</g>
</g>
<defs>
<clipPath id="clip0_2186_11923">
<rect width="64" height="62" fill="white"/>
</clipPath>
</defs>
</svg>
