<svg width="64" height="64" viewBox="0 0 64 64" fill="none" xmlns="http://www.w3.org/2000/svg">
<mask id="mask0_2186_11882" style="mask-type:luminance" maskUnits="userSpaceOnUse" x="4" y="0" width="56" height="64">
<path d="M59.8336 0H4.11597V64H59.8336V0Z" fill="white"/>
</mask>
<g mask="url(#mask0_2186_11882)">
<path d="M21.5339 60.3859V48.0377C21.5339 47.7365 20.9818 47.3349 20.6806 47.1843C20.3292 46.9836 19.9779 46.9334 19.7771 47.0338C19.4257 47.1843 18.7732 48.1381 18.7732 48.3389V59.2816C16.9159 58.4785 15.159 57.4745 13.5528 56.32C13.5528 54.3624 13.5528 52.4047 13.5528 50.4471C13.5528 48.9412 13.6532 47.4353 13.7034 46.582C13.9543 43.6204 15.5104 41.4118 18.0202 40.3075C18.9739 39.9059 25.0979 38.0989 25.9512 38.0989C26.5536 38.0989 27.2563 38.4 28.0092 38.7514C29.0634 39.2534 30.4186 39.8055 32.0249 39.8055C33.7818 39.8055 34.6853 39.3036 35.5888 38.8518C36.0908 38.6008 36.5928 38.2996 37.2453 38.149C38.0485 37.9483 43.821 39.4541 45.0257 39.9561C49.5935 41.713 50.4971 45.0761 50.4469 49.8949C50.4469 51.1498 50.3967 54.2118 50.3465 55.3663C48.6398 56.6714 46.8328 57.8259 44.9253 58.7294V47.5357L43.9716 46.9836H43.8712C43.4696 46.9836 42.8673 47.5357 42.8171 47.5859C42.5159 47.8871 42.5159 47.9875 42.5159 48.0377V59.8338C35.7896 62.4439 28.3104 62.6447 21.4837 60.3357M24.7465 26.2024C25.65 23.7428 28.2602 21.6345 30.8202 21.2832C34.083 20.8314 37.0947 22.2871 38.701 25.0981C40.3575 28.0596 40.0563 31.5734 37.8979 34.3341C34.9363 38.0487 31.1716 37.8479 28.6618 36.3922C25.5998 34.6855 23.1904 30.5192 24.7967 26.1522M52.8563 56.1192V55.9687C52.9065 54.0612 52.8563 46.9334 52.8061 46.0298C52.1034 39.0526 45.879 37.2957 40.0061 36.2416C42.2147 32.1757 43.2688 28.6118 41.3112 24.5459C38.7512 19.0745 33.079 18.0204 28.963 19.3255C24.9975 20.5804 20.8312 24.5961 22.0861 31.6738C22.2869 32.8283 22.839 33.7318 23.3912 34.6353C23.6924 35.1373 23.9936 35.6894 24.2445 36.2416C18.8234 36.9945 12.2477 39.6047 11.4445 44.6745C10.9426 47.7867 11.1936 56.2196 11.2437 57.1734V57.3239H11.4947C17.0665 61.4902 23.9434 64 31.4226 64C38.9018 64 47.0335 61.0385 52.8061 56.1694H52.9567L52.8563 56.1192ZM7.62963 25.7506C8.28218 26.353 8.88453 26.8549 9.18571 27.2565L5.37081 28.1098C5.06963 28.6118 4.91904 29.1138 5.06963 29.6157C5.22022 30.2181 11.043 36.1412 11.7959 36.6432C12.2477 36.9443 12.9002 37.1953 13.4022 37.1953C13.603 37.1953 13.7536 37.1953 13.9041 37.0949C14.2053 36.9443 14.4061 36.6432 14.4563 36.1914C14.5065 35.3381 13.0508 33.9326 10.9928 31.9749C10.2398 31.2722 9.53708 30.6196 9.13551 30.1679L12.9504 29.3145C13.2516 28.8126 13.4022 28.3106 13.2516 27.8087C13.0006 26.8549 6.37473 20.4298 5.57159 20.3294C5.32061 20.3294 4.41708 20.48 4.31669 20.6808C3.51355 21.9357 5.82257 24.0439 7.67983 25.7506M50.3465 2.5183e-05H50.2963C49.5935 2.5183e-05 42.6665 7.02748 42.5661 7.47924C42.4155 7.9812 42.4657 8.33257 42.6665 8.63375C43.0179 9.18591 43.821 9.2863 44.7245 9.38669C45.4273 9.48709 46.13 9.53728 46.5316 9.88865C46.1802 10.3404 45.5277 10.9428 44.8249 11.5953C43.2187 13.051 41.4116 14.7577 41.512 16.0126C41.512 16.4643 41.7128 16.8157 42.0139 16.9161C42.1143 16.9663 42.2649 16.9663 42.3653 16.9663C42.8673 16.9663 43.5198 16.6149 43.9716 16.2636C44.5739 15.862 50.4469 10.0392 50.5975 9.48708C50.7481 9.03532 50.6979 8.68395 50.4971 8.33257C49.9951 7.57963 48.69 7.47924 47.5355 7.32865C47.0335 7.27846 46.5818 7.22826 46.2806 7.12787C46.4312 6.87689 47.1841 6.17414 47.8367 5.57179C49.5434 4.01571 51.7018 2.10826 51.4508 0.853359C51.3504 0.45179 50.999 0.100417 50.4469 -0.0501709M14.0547 2.81101C14.3559 3.46355 15.5104 4.46748 16.7653 5.57179C17.7692 6.42512 18.7732 7.32865 19.2249 7.93101C18.8736 8.08159 18.3214 8.13179 17.7692 8.18199C16.6147 8.33257 15.41 8.53336 15.0085 9.2361C14.8077 9.58748 14.8579 10.0392 15.1088 10.5914C15.3598 11.0934 21.6343 17.4181 22.1363 17.6188C22.4375 17.7694 22.7387 17.8196 22.9896 17.8196C23.2406 17.8196 23.5418 17.7192 23.7426 17.5687C24.0939 17.2675 24.1943 16.7655 23.9936 16.113C23.8932 15.7114 22.839 14.7075 21.0822 13.051C20.0783 12.0973 18.8736 10.993 18.6226 10.5914C18.9739 10.4408 19.5261 10.3906 20.1285 10.3404C21.2328 10.24 22.3873 10.0894 22.839 9.43689C23.0398 9.13571 23.09 8.78434 22.9394 8.33257C22.7888 7.73022 16.4139 1.45571 15.9622 1.20473L15.8618 1.10434C15.6108 0.903555 15.3096 0.70277 14.8579 0.903555L13.9041 1.80708C13.7536 2.20865 13.9041 2.45963 14.0045 2.71061L14.0547 2.81101ZM53.1575 31.9749C51.0994 33.8824 49.5935 35.3381 49.6939 36.1914C49.6939 36.6934 49.9449 36.9945 50.3967 37.1451C50.5473 37.1953 50.6979 37.1953 50.8485 37.1953C51.25 37.1953 51.5512 36.9945 51.9026 36.7938C52.3543 36.5428 58.679 30.2181 58.8798 29.6659C59.0304 29.2141 58.9802 28.8628 58.7794 28.5114C58.2775 27.7585 56.9724 27.6581 55.8179 27.5075C55.3661 27.5075 54.9143 27.4071 54.6132 27.3569C54.9143 26.9051 56.4202 25.4996 57.4743 24.4455C58.8296 23.1404 59.683 22.3373 59.7834 22.0863C59.9841 21.6345 59.9339 21.1828 59.683 20.7812C59.432 20.3796 59.0304 20.1789 58.5786 20.1789C57.8759 20.1789 50.9488 27.2063 50.8485 27.6581C50.6979 28.1098 50.7481 28.5114 50.9488 28.8126C51.3504 29.4651 52.4045 29.6157 53.4586 29.7161C54.061 29.8165 54.7136 29.8667 55.1151 30.0675C54.7136 30.5192 54.0108 31.222 53.2077 31.9247" fill="#24C433"/>
</g>
</svg>
