<svg width="64" height="64" viewBox="0 0 64 64" fill="none" xmlns="http://www.w3.org/2000/svg">
<mask id="mask0_2186_11982" style="mask-type:luminance" maskUnits="userSpaceOnUse" x="4" y="0" width="56" height="64">
<path d="M4 0H60V64H4V0Z" fill="white"/>
</mask>
<g mask="url(#mask0_2186_11982)">
<path d="M55.0525 19.029C55.3336 15.0634 51.3422 9.52379 48.4432 6.94952C27.9432 -11.2584 -6.09339 9.24645 6.86398 34.5751C8.07967 36.9516 9.76775 39.1414 10.9297 41.5455C13.7783 47.438 13.7763 52.95 11.8275 59.108C11.5579 59.961 10.3974 62.281 10.347 62.8297C10.2476 63.9233 11.9766 64.6469 12.8505 63.1544C15.0675 59.3689 16.077 51.579 15.4507 47.3111C14.331 39.6711 7.41193 33.8995 6.7401 26.6657C5.74223 15.9138 11.641 7.41613 21.9927 3.73775C32.7808 -0.0957264 47.6679 4.99893 52.0528 15.6043C53.4883 19.0756 52.2747 19.5297 51.8955 22.6686C51.5055 25.8935 54.0043 27.1461 55.8346 29.3484C56.0865 29.652 57.3314 31.2832 57.3866 31.4961C57.6486 32.4911 55.0498 33.6031 54.3555 34.2203C52.6361 35.7469 54.7619 36.5632 54.6659 37.5589C54.6149 38.0905 53.4019 38.2371 53.3284 39.3097C53.2821 39.984 53.8641 40.4887 53.875 41.0006C53.8886 41.717 53.1841 42.1738 53.0758 42.7337C52.63 45.0444 54.9525 46.7558 53.0656 48.6499C51.4443 50.2771 48.2764 49.309 46.2337 49.1316C45.4441 49.0632 43.3987 48.7373 42.8847 48.759C42.0339 48.7951 41.2198 49.2841 40.7542 49.9524C38.9048 52.6069 38.5454 57.024 39.2554 60.0747C39.5222 61.2202 40.5602 64.9183 42.3647 63.5494C43.3701 62.787 42.0142 61.1138 41.7181 60.1812C40.7256 57.0411 41.1783 53.9837 42.7704 51.1229C44.6504 51.234 46.7639 51.6947 48.6147 51.8025C49.505 51.8544 51.3571 51.9313 52.1644 51.7933C53.5802 51.5514 55.7836 49.3143 56.1416 47.9881C56.6317 46.1689 55.1015 44.5029 55.5358 43.0051C55.6842 42.4945 56.1743 42.2027 56.2478 41.5836C56.3465 40.7489 55.7659 40.0431 55.8217 39.6908C55.8374 39.5955 56.499 39.3195 56.7229 38.9896C57.7249 37.5129 56.2914 36.1965 56.45 35.6825C57.262 34.8729 59.7077 33.8719 59.9595 32.7409C60.4905 30.3552 55.5692 26.3193 54.2949 24.3352C53.9335 22.5279 54.9286 20.7791 55.0525 19.029Z" fill="#24C433"/>
<path d="M44.251 15.4641C44.1346 10.3938 38.7647 7.05845 33.9115 9.1155C31.054 6.70355 26.8189 6.23102 23.683 8.45435C22.3543 9.39613 21.4327 10.6658 20.8568 12.1544C19.0823 12.0506 17.3037 12.5336 15.9403 13.6804C14.2168 15.1296 13.5579 17.2162 13.6028 19.3811C7.30792 24.1326 12.7499 33.4433 20.2503 30.7218C22.0065 32.3733 24.237 32.9747 26.6568 32.5975C27.5023 32.466 28.7738 32.2038 28.6975 31.1365C28.6764 30.8368 28.3701 30.3938 28.0883 30.265C27.4927 29.9943 26.1041 30.5411 25.3363 30.5575C21.837 30.6331 19.4811 26.935 21.1066 23.948C21.4946 23.2356 22.6926 22.5724 22.583 21.8127C22.4537 20.9222 21.3918 20.5423 20.6567 21.0661C18.7154 22.4495 18.0075 25.0376 18.4343 27.2675C18.5268 27.7539 18.7304 28.2027 18.8876 28.668C18.9107 28.737 19.0088 28.7535 18.874 28.8323C18.4874 29.061 17.254 29.0098 16.7945 28.927C12.7989 28.2093 11.7983 22.719 15.3835 20.9485C16.5474 20.3721 17.1056 20.7007 18.1811 20.5121C19.051 20.3596 19.2851 19.2437 18.6548 18.6923C18.0007 18.1205 16.8204 18.3768 16.0206 18.3874C15.9573 16.1003 18.2165 14.0498 20.5832 14.4796C20.6499 15.723 21.2707 16.9684 22.3345 17.6855C22.7525 17.9681 23.5074 18.1632 23.7912 18.4222C24.0791 18.6851 24.4011 19.4783 24.7407 19.8772C25.0852 20.2821 26.3601 21.3231 26.8549 21.4322C28.0189 21.6898 28.8275 20.4576 28.0679 19.594C27.8242 19.318 27.2715 19.1123 26.9645 18.8783C26.1409 18.2526 26.1014 17.3122 25.2941 16.6648C24.6012 16.1095 23.6537 16.1391 23.1527 15.4424C22.0813 13.9545 23.5428 11.3875 24.8245 10.3977C27.8154 8.08829 32.9266 9.46447 33.7359 13.1816C33.9074 13.967 33.6692 14.8996 34.7991 14.9863C36.5811 15.123 36.1264 12.949 35.7561 11.9198C35.6772 11.7029 35.2729 11.141 35.4349 11.003C35.5567 10.8992 36.2449 10.7638 36.4375 10.7447C39.0894 10.4884 41.3629 12.1939 41.7774 14.7142C40.7925 14.5236 38.2154 14.9002 37.6226 15.7145C36.946 16.6431 37.9193 17.7321 39.0806 17.3523C39.9607 17.0651 40.2833 16.7857 41.3316 16.8672C45.5068 17.1912 47.0288 22.3181 43.8793 24.893C43.1537 25.4858 41.5739 26.055 40.6448 25.7934C40.4535 25.7395 40.1819 25.4083 39.8307 25.3551C38.5326 25.1612 38.553 26.0523 38.2256 26.8561C37.2693 29.2023 34.2491 29.8622 32.3092 28.1791C31.4107 27.4003 31.3651 26.3586 30.6803 25.4668C29.5981 24.0577 27.4907 23.4189 25.7277 23.3611C23.975 23.3039 23.781 25.2414 25.2717 25.5627C25.9129 25.6994 26.5765 25.6731 27.2552 25.8664C29.3748 26.471 28.9895 27.769 30.129 29.1366C32.8163 32.3622 38.3434 31.8351 40.1261 28.041C47.7476 28.8336 50.9053 19.036 44.251 15.4641Z" fill="#24C433"/>
<path d="M34.5843 17.3344C33.8818 17.2207 33.519 17.2976 32.792 16.9993C30.686 16.135 31.1673 14.4046 29.7726 13.104C29.1831 12.5546 27.8367 11.9092 27.0131 12.0544C26.2528 12.1885 25.9594 13.0074 26.2773 13.6475C26.5918 14.2797 27.2636 14.2035 27.804 14.4697C28.7931 14.9573 28.7665 15.9615 29.2689 16.8041C30.232 18.4195 32.4891 19.7267 34.4488 19.5387C35.7768 19.4119 35.8592 17.5408 34.5843 17.3344ZM34.523 23.5148C36.0852 24.7878 39.2605 24.1115 40.7036 22.9003C41.6987 22.0657 41.227 20.5015 39.852 20.7775C39.4981 20.8485 39.1196 21.3132 38.7895 21.5116C37.3315 22.3884 36.8142 21.7765 35.4678 21.6082C34.1357 21.442 33.7205 22.8609 34.523 23.5148Z" fill="#24C433"/>
</g>
</svg>
