<svg width="30" height="30" viewBox="0 0 30 30" fill="none" xmlns="http://www.w3.org/2000/svg">
<path d="M12.9 17.7005L9.675 14.4755C9.4 14.2005 9.05 14.063 8.625 14.063C8.2 14.063 7.85 14.2005 7.575 14.4755C7.3 14.7505 7.1625 15.1005 7.1625 15.5255C7.1625 15.9505 7.3 16.3005 7.575 16.5755L11.85 20.8505C12.15 21.1505 12.5 21.3005 12.9 21.3005C13.3 21.3005 13.65 21.1505 13.95 20.8505L22.425 12.3755C22.7 12.1005 22.8375 11.7505 22.8375 11.3255C22.8375 10.9005 22.7 10.5505 22.425 10.2755C22.15 10.0005 21.8 9.86298 21.375 9.86298C20.95 9.86298 20.6 10.0005 20.325 10.2755L12.9 17.7005ZM15 30.0005C12.925 30.0005 10.975 29.6065 9.15 28.8185C7.325 28.0305 5.7375 26.962 4.3875 25.613C3.0375 24.264 1.969 22.6765 1.182 20.8505C0.395002 19.0245 0.0010019 17.0745 1.89873e-06 15.0005C-0.0009981 12.9265 0.393002 10.9765 1.182 9.15048C1.971 7.32448 3.0395 5.73699 4.3875 4.38799C5.7355 3.03899 7.323 1.97049 9.15 1.18249C10.977 0.394488 12.927 0.000488281 15 0.000488281C17.073 0.000488281 19.023 0.394488 20.85 1.18249C22.677 1.97049 24.2645 3.03899 25.6125 4.38799C26.9605 5.73699 28.0295 7.32448 28.8195 9.15048C29.6095 10.9765 30.003 12.9265 30 15.0005C29.997 17.0745 29.603 19.0245 28.818 20.8505C28.033 22.6765 26.9645 24.264 25.6125 25.613C24.2605 26.962 22.673 28.031 20.85 28.82C19.027 29.609 17.077 30.0025 15 30.0005Z" fill="#F5F2ED"/>
</svg>
