<svg width="20" height="22" viewBox="0 0 20 22" fill="none" xmlns="http://www.w3.org/2000/svg">
<g clip-path="url(#clip0_2136_8119)">
<mask id="mask0_2136_8119" style="mask-type:luminance" maskUnits="userSpaceOnUse" x="0" y="0" width="20" height="22">
<path d="M0 0.512573H20V21.5126H0V0.512573Z" fill="white"/>
</mask>
<g mask="url(#mask0_2136_8119)">
<path d="M2.73716 12.7887C1.9685 13.3885 1.47422 14.3089 1.47422 15.3408C1.47422 17.1493 2.97953 18.6209 4.83002 18.6209H9.26153C9.44989 18.6209 9.60308 18.7706 9.60308 18.9545V21.1244C9.60308 21.2273 9.64492 21.3261 9.7194 21.3989C9.79388 21.4717 9.8949 21.5126 10.0002 21.5126C10.1056 21.5126 10.2066 21.4717 10.2811 21.3989C10.3555 21.3261 10.3974 21.2273 10.3974 21.1244V18.9545C10.397 18.6602 10.2772 18.378 10.0643 18.1699C9.85134 17.9618 9.56264 17.8448 9.26153 17.8445H4.83002C3.41753 17.8445 2.26852 16.7212 2.26852 15.3408C2.26852 13.9655 3.41753 12.8471 4.83002 12.8471H15.9071C16.0124 12.8471 16.1134 12.8062 16.1879 12.7334C16.2624 12.6606 16.3042 12.5618 16.3042 12.4589C16.3042 12.3559 16.2624 12.2572 16.1879 12.1844C16.1134 12.1116 16.0124 12.0707 15.9071 12.0707H3.3558C1.94331 12.0707 0.794299 10.9471 0.794299 9.56629C0.794299 8.1861 1.94331 7.06279 3.3558 7.06279H14.4329C14.5382 7.06279 14.6392 7.02189 14.7137 6.94909C14.7882 6.87629 14.83 6.77755 14.83 6.6746C14.83 6.57164 14.7882 6.47291 14.7137 6.40011C14.6392 6.32731 14.5382 6.28641 14.4329 6.28641H10.0002C8.58774 6.28641 7.43873 5.16775 7.43873 3.79267V0.900764C7.43873 0.797809 7.39688 0.699071 7.3224 0.626272C7.24792 0.553472 7.14691 0.512573 7.04158 0.512573C6.93625 0.512573 6.83523 0.553472 6.76075 0.626272C6.68627 0.699071 6.64443 0.797809 6.64443 0.900764V3.79245C6.64443 4.79154 7.10762 5.68593 7.83451 6.28619H3.3558C1.50531 6.28641 0 7.75798 0 9.56651C0 11.1687 1.18169 12.5039 2.73716 12.7887Z" fill="black"/>
<path d="M19.9993 12.4589C19.9993 10.856 18.8163 9.52039 17.2597 9.23646C18.0297 8.63465 18.5251 7.71098 18.5251 6.67462C18.5251 4.87164 17.0196 3.40473 15.1693 3.40473H10.7382C10.5499 3.40473 10.3969 3.255 10.3969 3.07066V0.901008C10.3969 0.798053 10.3551 0.699316 10.2806 0.626516C10.2061 0.553716 10.1051 0.512817 9.99978 0.512817C9.89445 0.512817 9.79343 0.553716 9.71895 0.626516C9.64447 0.699316 9.60263 0.798053 9.60263 0.901008V3.07066C9.60287 3.36502 9.72258 3.64726 9.93548 3.85545C10.1484 4.06363 10.4371 4.18076 10.7382 4.18111H15.1695C16.5818 4.18111 17.731 5.29976 17.731 6.67484C17.731 8.05503 16.5818 9.17856 15.1695 9.17856H4.09246C3.98713 9.17856 3.88612 9.21946 3.81164 9.29226C3.73716 9.36506 3.69531 9.4638 3.69531 9.56675C3.69531 9.66971 3.73716 9.76845 3.81164 9.84124C3.88612 9.91404 3.98713 9.95494 4.09246 9.95494H16.6433C18.0558 9.95494 19.2048 11.078 19.2048 12.4589C19.2048 13.834 18.0558 14.9526 16.6433 14.9526H4.82912C4.72379 14.9526 4.62277 14.9935 4.54829 15.0663C4.47381 15.1391 4.43197 15.2379 4.43197 15.3408C4.43197 15.4438 4.47381 15.5425 4.54829 15.6153C4.62277 15.6881 4.72379 15.729 4.82912 15.729H9.99955C11.4118 15.729 12.5608 16.8523 12.5608 18.2327V21.1146C12.5608 21.1656 12.5711 21.2161 12.5911 21.2632C12.611 21.3103 12.6403 21.3531 12.6771 21.3891C12.714 21.4252 12.7578 21.4538 12.806 21.4733C12.8542 21.4928 12.9058 21.5028 12.958 21.5028C13.0101 21.5028 13.0618 21.4928 13.11 21.4733C13.1581 21.4538 13.2019 21.4252 13.2388 21.3891C13.2757 21.3531 13.3049 21.3103 13.3249 21.2632C13.3449 21.2161 13.3551 21.1656 13.3551 21.1146V18.2325C13.3551 17.2296 12.8908 16.331 12.1623 15.729H16.6435C18.4938 15.729 19.9993 14.2621 19.9993 12.4589Z" fill="black"/>
</g>
</g>
<defs>
<clipPath id="clip0_2136_8119">
<rect width="20" height="21" fill="white" transform="translate(0 0.512573)"/>
</clipPath>
</defs>
</svg>
