<svg width="80" height="80" viewBox="0 0 80 80" fill="none" xmlns="http://www.w3.org/2000/svg">
<circle cx="40" cy="40" r="39" stroke="#24C433" stroke-width="2"/>
<mask id="mask0_2180_11722" style="mask-type:luminance" maskUnits="userSpaceOnUse" x="15" y="16" width="50" height="49">
<path d="M63.5068 64.0757V16.8999H16.4697V64.0757H63.5068Z" fill="white" stroke="white" stroke-width="1.8"/>
</mask>
<g mask="url(#mask0_2180_11722)">
<path d="M35.193 57.4581L52.2765 53.3912C53.5663 53.0842 54.3637 51.7866 54.0576 50.4931V50.493C53.7513 49.1996 52.4574 48.3999 51.1676 48.7069C52.4574 48.3999 53.2548 47.1024 52.9488 45.8088C52.6426 44.5154 51.3486 43.7157 50.0588 44.0227C51.3486 43.7157 52.146 42.4181 51.8399 41.1246C51.5337 39.8311 50.2398 39.0314 48.95 39.3385C50.2398 39.0314 51.0372 37.7339 50.731 36.4403C50.4249 35.1469 49.131 34.3472 47.8411 34.6542C47.8411 34.6542 43.1896 35.7249 40.0866 36.4636C39.1785 36.6797 38.4285 35.7474 38.8263 34.9009C40.0375 32.3232 40.8689 28.4991 38.6298 27.2315C37.5499 26.6203 36.2301 26.8531 35.4785 28.3515C34.0073 31.2847 32.446 33.0524 31.3252 34.056C30.23 35.0366 29.4088 36.2862 28.9681 37.6907L28.0703 40.5521" stroke="#24C433" stroke-width="1.8" stroke-miterlimit="10" stroke-linecap="round" stroke-linejoin="round"/>
<path d="M25.3991 64.1684L30.0065 63.0715C31.7813 62.649 32.8784 60.8637 32.4572 59.084L28.0704 40.5522L20.313 42.399C18.5033 42.8298 17.3844 44.6503 17.814 46.4652L21.4228 61.7108C21.8442 63.4905 23.6244 64.5909 25.3991 64.1684Z" stroke="#24C433" stroke-width="1.8" stroke-miterlimit="10" stroke-linejoin="round"/>
<path d="M28.7597 58.0608C29.0541 59.3048 28.2872 60.5526 27.0467 60.8479C25.8063 61.1432 24.562 60.3742 24.2676 59.1302C23.973 57.8862 24.7399 56.6383 25.9804 56.343C27.2209 56.0478 28.4652 56.8168 28.7597 58.0608Z" stroke="#24C433" stroke-width="1.8" stroke-miterlimit="10" stroke-linejoin="round"/>
<path d="M58.7049 21.6481L59.0806 24.3781L61.5363 25.6154C62.5016 26.1017 62.4916 27.4868 61.5198 27.9592L59.0468 29.1613L58.6322 31.8856C58.4693 32.9565 57.1527 33.3752 56.4043 32.5942L54.5001 30.607L51.7882 31.0535C50.7223 31.2291 49.9185 30.1027 50.428 29.1475L51.724 26.7173L50.4625 24.2689C49.9668 23.3065 50.7864 22.1918 51.8498 22.3825L54.5549 22.8677L56.4872 20.9079C57.2466 20.1376 58.5571 20.575 58.7049 21.6481Z" stroke="#24C433" stroke-width="1.8" stroke-miterlimit="10" stroke-linejoin="round"/>
<path d="M43.9843 24.6615C44.1957 24.6785 44.4146 24.6916 44.6412 24.7009C45.1337 24.7209 45.5926 24.4466 45.8096 24.0028C47.8605 19.8067 46.8878 17.6819 44.8871 17.1737C43.7966 16.8966 42.6914 17.4214 42.1903 18.378C42.043 18.6594 41.7487 18.8352 41.4316 18.8312C40.3543 18.8177 39.368 19.5426 39.0918 20.636C38.7553 21.9684 39.2596 23.2404 41 24" stroke="#24C433" stroke-width="1.8" stroke-miterlimit="10" stroke-linecap="round" stroke-linejoin="round"/>
</g>
</svg>
