<svg width="16" height="17" viewBox="0 0 16 17" fill="none" xmlns="http://www.w3.org/2000/svg">
<path d="M8.38103 0.822933L10.4158 5.87444L15.6266 6.34379C15.988 6.37712 16.1346 6.84914 15.86 7.09848L11.9085 10.6893L13.0925 16.0308C13.1745 16.4021 12.7912 16.6941 12.4805 16.4968L8.00302 13.6647L3.52486 16.4968C3.21352 16.6928 2.8315 16.4008 2.91284 16.0301L4.09755 10.6893L0.144078 7.09782C-0.129932 6.84847 0.0160734 6.37579 0.378753 6.34312L5.58893 5.87311L7.62433 0.822267C7.65291 0.744937 7.70449 0.678219 7.77214 0.631098C7.83978 0.583977 7.92024 0.558716 8.00268 0.558716C8.08512 0.558716 8.16558 0.583977 8.23323 0.631098C8.30087 0.678219 8.35246 0.745604 8.38103 0.822933Z" fill="#FFA733"/>
</svg>
