<svg width="20" height="21" viewBox="0 0 20 21" fill="none" xmlns="http://www.w3.org/2000/svg">
<path d="M8.95901 2.5084C9.53401 2.01673 10.4757 2.01673 11.059 2.5084L12.3757 3.64173C12.6257 3.8584 13.0923 4.0334 13.4257 4.0334H14.8423C15.7257 4.0334 16.4507 4.7584 16.4507 5.64173V7.0584C16.4507 7.3834 16.6257 7.8584 16.8423 8.1084L17.9757 9.42507C18.4673 10.0001 18.4673 10.9417 17.9757 11.5251L16.8423 12.8417C16.6257 13.0917 16.4507 13.5584 16.4507 13.8917V15.3084C16.4507 16.1917 15.7257 16.9167 14.8423 16.9167H13.4257C13.1007 16.9167 12.6257 17.0917 12.3757 17.3084L11.059 18.4417C10.484 18.9334 9.54234 18.9334 8.95901 18.4417L7.64234 17.3084C7.39234 17.0917 6.92567 16.9167 6.59234 16.9167H5.15068C4.26734 16.9167 3.54234 16.1917 3.54234 15.3084V13.8834C3.54234 13.5584 3.36734 13.0917 3.15901 12.8417L2.03401 11.5167C1.55068 10.9417 1.55068 10.0084 2.03401 9.4334L3.15901 8.1084C3.36734 7.8584 3.54234 7.39173 3.54234 7.06673V5.6334C3.54234 4.75007 4.26734 4.02507 5.15068 4.02507H6.59234C6.91734 4.02507 7.39234 3.85007 7.64234 3.6334L8.95901 2.5084Z" fill="#0AA2CC" stroke="#0AA2CC" stroke-width="1.5" stroke-linecap="round" stroke-linejoin="round"/>
<path d="M6.98401 10.4669L8.99234 12.4835L13.0173 8.4502" stroke="white" stroke-width="1.5" stroke-linecap="round" stroke-linejoin="round"/>
</svg>
