<svg width="203" height="37" viewBox="0 0 203 37" fill="none" xmlns="http://www.w3.org/2000/svg">
<path d="M114.427 14.8915C113.663 15.9953 112.559 16.8019 111.285 17.1415C109.417 17.7359 108.526 17.2689 105.724 18.8821C103.559 20.1132 103.559 22.7028 104.154 24.5283C103.941 24.6132 103.772 24.6981 103.559 24.7406C102.965 24.9529 102.328 25.1227 101.734 25.25C100.885 25.4623 100.036 25.2925 99.3566 24.783C98.635 24.2312 98.2529 23.3396 98.3378 22.4481C98.3378 19.1793 98.3378 15.9104 98.3378 12.5991C98.3378 12.5142 98.3378 12.4293 98.3378 12.3019H103.559V9.54247H98.3378V6.10379H95.0266V9.58492H91.9277V12.3019H95.0266V12.7264C95.0266 15.8679 95.0266 19.0519 95.0266 22.1934C95.0266 22.6604 95.0266 23.0849 95.1115 23.5519C95.2389 25.2076 96.2153 26.6934 97.701 27.4576C98.8472 28.0519 100.163 28.2642 101.437 28.0519C101.522 28.0519 101.649 28.0095 101.734 28.0095C105.342 27.0755 108.526 25.0802 110.903 22.1934C110.946 22.151 111.031 22.151 111.116 22.1934C111.158 22.2359 111.2 22.3208 111.158 22.3632C110.267 24.4434 108.823 26.2689 106.998 27.6274C108.696 28.3066 110.649 28.2217 112.262 27.3302C115.191 25.8868 115.912 21.684 116.04 18.967C116.082 16.4623 114.936 15.3161 114.427 14.8915Z" fill="white"/>
<path d="M154.67 14.8066C154.331 12.684 152.887 10.9009 150.935 10.0519C149.746 9.54246 148.43 9.3302 147.114 9.4151C145.119 9.4151 143.209 10.0943 141.68 11.3255C141.213 11.75 140.747 12.217 140.322 12.7264C140.28 12.684 140.237 12.5991 140.195 12.5142C139.558 11.4528 138.624 10.6462 137.478 10.1368C135.907 9.4151 134.124 9.20284 132.426 9.50001C130.813 9.66982 129.37 10.434 128.223 11.5802C128.054 11.7925 127.884 11.9623 127.629 12.2594V9.62737H124.445V27.9245H127.757V27.5425C127.757 24.6132 127.757 21.684 127.757 18.7547C127.757 18.0755 127.799 17.3962 127.926 16.717C128.181 14.934 129.37 13.4481 131.068 12.8113C132.214 12.3868 133.487 12.3019 134.676 12.5991C136.034 12.8962 137.138 13.8302 137.563 15.1462C137.86 15.9104 137.987 16.717 137.987 17.566C137.987 20.9198 137.987 24.2311 137.987 27.5849V27.967H141.341V27.5849C141.341 24.6132 141.341 21.5991 141.341 18.6274C141.341 18.0755 141.383 17.5236 141.468 16.9717C141.638 15.3585 142.572 13.9151 143.973 13.1085C145.204 12.4717 146.605 12.2594 147.963 12.5566C149.534 12.7689 150.85 13.9151 151.232 15.4859C151.444 16.1651 151.529 16.8868 151.529 17.566C151.571 20.9198 151.529 24.2311 151.529 27.5849V27.967H154.883V27.6274C154.883 24.1887 154.883 20.7925 154.883 17.3538C154.925 16.4198 154.84 15.6132 154.67 14.8066Z" fill="white"/>
<path d="M37.6334 10.2642C35.9778 9.50001 34.11 9.20284 32.327 9.45756C29.6526 9.71228 27.2329 11.1557 25.832 13.4481C24.5161 15.5283 24.0491 18.033 24.5161 20.4528C24.8981 23.3821 26.8084 25.8868 29.4828 27.1179C31.3931 27.967 33.4732 28.3066 35.5533 28.0519C37.1664 27.9245 38.7371 27.3727 40.0531 26.3962C40.5625 26.0142 40.987 25.5896 41.4964 25.1651L39.671 23.0425C39.0767 23.5094 38.4399 23.9764 37.7607 24.401C36.19 25.2076 34.3647 25.4198 32.6666 25.0377C30.162 24.6132 28.1668 22.7028 27.7423 20.1981C27.7423 20.0708 27.6999 19.9859 27.6999 19.8585H42.5577C42.5577 19.7311 42.6001 19.6038 42.6001 19.4764C42.685 18.5 42.6001 17.5236 42.4303 16.5896C41.7936 13.7028 40.2653 11.5377 37.6334 10.2642ZM27.6999 17.4387C27.8697 14.6793 30.0347 12.4717 32.794 12.2594C37.0391 11.8349 39.2041 14.934 39.3739 17.4387H27.6999Z" fill="white"/>
<path d="M183.027 15.1038C182.73 12.8113 181.202 10.8585 179.079 10.0094C177.339 9.3302 175.471 9.16039 173.645 9.54247C171.863 9.79718 170.249 10.7311 169.146 12.1321C169.146 12.1321 169.103 12.1321 169.061 12.1745V9.54247H165.877V27.8396H169.188V27.4576C169.188 24.4859 169.188 21.5142 169.188 18.5849C169.188 18.033 169.231 17.4387 169.315 16.8868C169.655 14.7217 170.844 13.2359 173.009 12.5991C174.155 12.2594 175.386 12.217 176.575 12.5142C178.018 12.8113 179.164 13.8727 179.546 15.2736C179.758 15.9953 179.886 16.7594 179.886 17.4811C179.928 20.7925 179.886 24.1462 179.886 27.4576V27.7972H183.197C183.197 27.6698 183.197 27.5849 183.197 27.5C183.197 24.0613 183.197 20.6227 183.197 17.184C183.197 16.5472 183.154 15.8255 183.027 15.1038Z" fill="white"/>
<path d="M200.985 22.3632C200.985 21.1321 200.39 19.9434 199.414 19.1793C198.735 18.6698 197.971 18.2878 197.164 18.118C195.678 17.7783 194.15 17.4812 192.664 17.184C191.815 17.0566 191.009 16.8019 190.287 16.3774C189.396 15.783 189.099 14.5944 189.693 13.6604C189.778 13.4906 189.905 13.3632 190.075 13.2359C190.499 12.8538 191.009 12.5991 191.561 12.4717C193.598 12.0047 195.763 12.1746 197.716 12.9812C198.183 13.151 198.608 13.4057 199.032 13.6179L200.433 10.9859C200.178 10.8161 199.924 10.6887 199.669 10.5613C197.037 9.37267 194.108 9.03304 191.264 9.58493C190.075 9.79719 188.929 10.2642 187.952 11.0283C186.424 12.2595 185.915 13.8302 186.169 15.6981C186.297 16.9293 187.018 18.033 188.08 18.6698C188.674 19.0944 189.353 19.3915 190.032 19.5189C191.603 19.8585 193.174 20.1557 194.745 20.4529C195.551 20.5378 196.315 20.8349 196.994 21.2595C197.292 21.4717 197.546 21.8113 197.631 22.151C197.886 23.0849 197.461 24.0189 196.612 24.4859C196.273 24.6557 195.933 24.783 195.594 24.868C193.259 25.3774 190.797 25.1227 188.632 24.1463C188.037 23.8915 187.485 23.5519 186.891 23.2547L185.49 25.9717C185.83 26.184 186.085 26.3963 186.382 26.5236C188.207 27.4576 190.202 27.967 192.24 28.0519C193.98 28.1793 195.721 27.967 197.376 27.3727C199.457 26.6085 201.112 25.0802 200.985 22.3632Z" fill="white"/>
<path d="M79.4905 9.54247C79.2782 9.50002 79.0235 9.66983 78.9811 9.88209C77.3679 13.5755 75.7548 17.3113 74.1417 21.0047C73.6747 22.0661 73.2077 23.1274 72.7408 24.2311C72.6983 24.1038 72.6559 24.0613 72.6134 23.9764C71.6795 21.8113 70.7456 19.6462 69.8117 17.4387C68.7079 14.8915 67.6467 12.3444 66.543 9.79719C66.5005 9.71228 66.3731 9.54247 66.2882 9.54247C65.227 9.54247 64.1233 9.54247 63.0195 9.54247C63.062 9.66983 63.1044 9.75473 63.1044 9.83964C65.6939 15.783 68.2834 21.684 70.8729 27.6274C70.9154 27.7972 71.0852 27.9245 71.2974 27.8821C72.2314 27.8821 73.1228 27.8821 74.0568 27.8821C74.269 27.9245 74.4813 27.7972 74.5237 27.5849C77.1132 21.684 79.6603 15.783 82.2498 9.92454C82.2922 9.83964 82.3347 9.71228 82.3771 9.58492H82.0375C81.1885 9.54247 80.3395 9.58492 79.4905 9.54247Z" fill="white"/>
<path d="M52.8315 25.25C51.7703 25.3349 50.7514 25.2076 50.0298 24.2736C49.6053 23.6368 49.393 22.9151 49.4355 22.151C49.4355 18.967 49.4355 15.783 49.4355 12.5991C49.4355 12.4717 49.4355 12.3868 49.4779 12.2595H54.6994V9.54247H54.3173C52.7891 9.54247 51.2609 9.54247 49.7751 9.54247C49.5204 9.54247 49.4355 9.45757 49.4355 9.2453C49.4355 8.31134 49.4355 7.37738 49.4355 6.40096C49.4355 6.2736 49.4355 6.1887 49.4355 6.06134H46.1243V9.54247H43.0254V12.3019H46.1243V12.684C46.1243 15.8679 46.1243 19.0944 46.1243 22.2783C46.1243 22.7453 46.1668 23.2123 46.2092 23.6368C46.4215 25.6745 47.8648 27.3302 49.86 27.7972C51.1335 28.1368 52.4495 28.1368 53.723 27.8396C54.5296 27.6698 55.2937 27.2878 55.9305 26.7783L54.8692 24.401C54.3173 24.9104 53.5957 25.2076 52.8315 25.25Z" fill="white"/>
<path d="M120.88 14.934C120.667 12.3444 118.757 10.1793 116.21 9.58492C113.323 8.86322 110.267 9.11794 107.55 10.3491C106.828 10.6462 106.149 11.0708 105.555 11.5802L106.956 14.0849C107.168 13.9576 107.338 13.7877 107.507 13.7028C109.418 12.4293 111.71 11.9198 113.96 12.217C115.064 12.3019 116.083 12.8113 116.804 13.6604C117.399 14.467 117.696 15.4434 117.696 16.4198C117.696 19.2217 117.696 21.9811 117.696 24.783C117.696 25.4198 117.738 26.0991 117.781 26.7359C117.781 27.0755 117.823 27.4151 117.865 27.7123H121.007V27.2877C121.007 23.7642 121.007 20.283 121.007 16.7594C121.007 16.1651 120.964 15.5283 120.88 14.934Z" fill="white"/>
<path d="M161.93 9.58493H158.619V27.8821H161.93V9.58493Z" fill="white"/>
<path d="M88.6584 9.54245H85.4746V27.8821H88.6584V9.54245Z" fill="white"/>
<path d="M21.2474 9.58491H18.106V12.2594C18.0636 12.2594 18.0211 12.2594 18.0211 12.217C17.9787 12.1745 17.9362 12.1321 17.8938 12.0896C17.2994 11.3679 16.5353 10.7736 15.7288 10.3491C13.4789 9.24529 10.8894 9.03302 8.46966 9.71227C6.38957 10.2217 4.56419 11.5377 3.41801 13.3208C2.39919 14.934 1.93223 16.8019 2.05958 18.6698C2.10203 21.5566 3.63027 24.1887 6.13487 25.6745C8.17251 26.9057 10.5922 27.3726 12.927 26.9481C14.625 26.7358 16.1957 26.0141 17.4268 24.8255C17.5966 24.6557 17.724 24.4858 17.9362 24.316C17.9362 25.8443 17.9787 27.2877 17.4692 28.6887C17.0447 29.8774 16.1108 30.8113 14.9646 31.3207C14.1581 31.6604 13.2666 31.8302 12.3751 31.8726C9.57338 32.0849 6.81408 31.2358 4.60663 29.5377L2.99351 32.1274C3.54537 32.5094 4.09723 32.8915 4.64909 33.1887C8.13006 34.9292 12.1629 35.3113 15.8986 34.2075C17.8513 33.6981 19.4644 32.3396 20.3134 30.5141C20.9927 29.0707 21.3323 27.4575 21.2898 25.8443C21.3323 20.5377 21.2898 15.1887 21.2898 9.88208L21.2474 9.58491ZM17.9787 18.8396C17.7239 21.9811 15.1769 24.2311 11.6959 24.2311C10.1252 24.2736 8.63947 23.7641 7.40839 22.7453C5.96506 21.5141 5.20095 19.6462 5.4132 17.7783C5.58301 14.5519 8.0876 12.5991 10.8894 12.3443C12.2902 12.1745 13.7336 12.4292 15.0495 13.066C17.2994 14.2972 18.1909 16.4623 17.9787 18.8396Z" fill="white"/>
<path d="M162.269 2.15567C161.929 2.62265 161.462 2.96227 160.953 3.08963C160.359 3.3019 159.594 3.04718 158.491 3.85378C157.429 4.70284 157.727 6.10378 158.151 6.78303C158.915 7.75944 160.274 8.01416 161.335 7.41982C162.566 6.78303 162.906 5.00001 162.948 3.85378C163.033 3.21699 162.778 2.5802 162.269 2.15567Z" fill="white"/>
<path d="M88.9994 2.15567C88.6597 2.62265 88.1928 2.96227 87.6834 3.08963C87.0891 3.3019 86.3249 3.04718 85.2212 3.85378C84.16 4.70284 84.4571 6.10378 84.8816 6.78303C85.6457 7.75944 87.0042 8.01416 88.0654 7.41982C89.2965 6.78303 89.6361 5.00001 89.6786 3.85378C89.7635 3.21699 89.5088 2.5802 88.9994 2.15567Z" fill="white"/>
</svg>
