<svg width="101" height="100" viewBox="0 0 101 100" fill="none" xmlns="http://www.w3.org/2000/svg">
<circle cx="50.5996" cy="50" r="50" fill="#F5F2EC"/>
<g clip-path="url(#clip0_2005_1697)">
<mask id="mask0_2005_1697" style="mask-type:luminance" maskUnits="userSpaceOnUse" x="9" y="8" width="80" height="82">
<path d="M9.0918 8.90248H88.3297V89.2112H9.0918V8.90248Z" fill="white"/>
</mask>
<g mask="url(#mask0_2005_1697)">
<path d="M12.079 15.0273C12.6212 17.6001 12.5037 20.2517 12.3949 22.6517C12.2912 25.0268 12.1874 27.2739 12.7799 28.8291C13.6236 31.1408 14.9021 33.2696 16.5464 35.1005C17.3466 35.9706 17.9035 37.0362 18.1611 38.19C18.4187 39.3437 18.368 40.545 18.014 41.6729C12.3219 59.9177 22.4963 79.3228 40.74 85.015C41.3789 85.2145 42.0234 85.3954 42.6728 85.5573C59.5497 89.883 76.5698 81.1625 83.1418 64.8175C90.2965 47.0207 82.4358 28.2218 64.4535 20.1183C63.0991 19.5143 61.7066 18.9998 60.285 18.5779C60.0918 18.5223 59.9146 18.4217 59.7678 18.2843C59.621 18.1469 59.5089 17.9768 59.4406 17.7877C59.3705 17.5996 59.3465 17.3974 59.3705 17.1981C59.3945 16.9988 59.4659 16.8082 59.5786 16.6421C60.5321 15.1649 61.1291 13.4862 61.3224 11.7387C57.9951 12.294 54.6279 12.5747 51.2546 12.5781C46.2182 12.6916 42.243 12.7754 36.8118 16.2618C29.1435 21.1703 27.7265 27.5204 27.7113 27.5797C27.6471 27.8777 27.4795 28.1433 27.2382 28.3295C26.9969 28.5156 26.6975 28.6104 26.393 28.597C26.0893 28.5805 25.8015 28.4559 25.5814 28.2459C25.3614 28.0358 25.2236 27.7541 25.1929 27.4514C24.1808 17.4616 15.7584 15.4372 12.0786 15.0273M51.3482 89.2114C48.2067 89.2085 45.078 88.8104 42.0359 88.0264C22.1309 83.0495 10.029 62.8773 15.0055 42.9707C15.1786 42.2777 15.372 41.5898 15.5849 40.9076C15.8047 40.2087 15.8365 39.4641 15.677 38.7489C15.5175 38.0338 15.1725 37.3732 14.6765 36.8339C12.8102 34.7631 11.357 32.3545 10.3952 29.7379C9.62022 27.6835 9.72866 25.1848 9.85228 22.5386C9.98061 19.6744 10.114 16.7119 9.16548 14.0848C9.09774 13.8936 9.07628 13.6891 9.10286 13.488C9.12944 13.2869 9.2033 13.095 9.31839 12.928C9.43296 12.7606 9.58594 12.623 9.76453 12.5268C9.94312 12.4306 10.1421 12.3785 10.345 12.3749H10.3699C11.0365 12.3749 23.2128 12.5426 26.8369 23.036C28.2539 20.4534 30.8414 17.056 35.4285 14.113C41.4727 10.2475 45.976 10.1484 51.1953 10.0306C54.3506 9.9615 57.9187 9.88233 62.3989 8.92941C62.5783 8.89224 62.7636 8.89372 62.9424 8.93373C63.1212 8.97375 63.2895 9.05139 63.4359 9.1615C63.5822 9.27158 63.7029 9.41198 63.7898 9.5731C63.8768 9.73421 63.9278 9.91221 63.9395 10.0949C63.9952 12.3522 63.5107 14.5902 62.5261 16.6222C63.5367 16.9663 64.5304 17.3585 65.5036 17.7975C84.7753 26.4786 93.189 46.6552 85.5011 65.7657C79.6647 80.2934 66.121 89.2114 51.3475 89.2114" fill="black"/>
<path d="M21.5833 43.1348C21.3974 43.1344 21.2137 43.094 21.0447 43.0162C20.7384 42.8719 20.5019 42.6119 20.3871 42.2934C20.2724 41.9748 20.2888 41.6236 20.4328 41.3172C22.936 35.9495 30.771 33.7256 37.6849 31.7619C39.5465 31.2287 41.3192 30.7247 42.854 30.1915C49.2246 27.9701 52.3402 24.637 54.8387 21.9619L55.1496 21.6365C55.3807 21.3897 55.7005 21.2447 56.0385 21.2336C56.3765 21.2225 56.705 21.3461 56.9519 21.5773C57.1988 21.8084 57.3437 22.1282 57.3548 22.4662C57.3659 22.8042 57.2423 23.1328 57.0112 23.3797L56.7003 23.7051C54.1526 26.4359 50.6564 30.1738 43.6944 32.598C42.1191 33.1511 40.2922 33.6695 38.3764 34.2129C32.308 35.9351 24.7585 38.0882 22.7339 42.3991C22.6324 42.6188 22.47 42.8048 22.2662 42.9351C22.0623 43.0655 21.8253 43.1348 21.5833 43.1348Z" fill="black"/>
<path d="M26.1869 38.5223C25.9321 38.5226 25.683 38.4464 25.4719 38.3037C25.2608 38.1609 25.0973 37.9581 25.0027 37.7214C24.9081 37.4848 24.8866 37.2252 24.941 36.9762C24.9955 36.7272 25.1234 36.5003 25.3082 36.3247C26.4736 35.2138 27.5746 33.4902 28.8535 31.4954C32.2597 26.1824 36.9263 18.9086 47.3936 17.0432C47.5581 17.0119 47.7273 17.0137 47.8911 17.0486C48.055 17.0835 48.2102 17.1507 48.3477 17.2463C48.4853 17.342 48.6023 17.4641 48.692 17.6056C48.7817 17.7471 48.8423 17.9051 48.8702 18.0703C48.9298 18.4037 48.8545 18.7471 48.661 19.025C48.4675 19.3029 48.1715 19.4926 47.8382 19.5524C38.4716 21.2215 34.3288 27.6863 31.0007 32.8753C29.6328 35.0081 28.453 36.8453 27.0653 38.1688C26.8295 38.3968 26.5145 38.5243 26.1865 38.5245M21.2047 44.5518C21.0877 44.5522 20.9713 44.5356 20.8591 44.5023C20.6982 44.457 20.5478 44.3805 20.4165 44.277C20.2852 44.1736 20.1755 44.0453 20.0938 43.8995C20.012 43.7536 19.9598 43.5931 19.9401 43.4271C19.9204 43.2611 19.9336 43.0928 19.9789 42.9319C19.9789 42.9305 19.98 42.9287 19.9804 42.9272C22.5721 33.8065 18.978 25.8813 17.3777 23.5948C17.2771 23.4585 17.2047 23.3036 17.1648 23.139C17.1248 22.9744 17.1182 22.8034 17.1452 22.6362C17.1722 22.469 17.2323 22.3089 17.322 22.1652C17.4117 22.0215 17.5291 21.8972 17.6675 21.7996C17.8059 21.7019 17.9624 21.6329 18.1278 21.5965C18.2932 21.5601 18.4642 21.5572 18.6308 21.5878C18.7974 21.6184 18.9561 21.6819 19.0978 21.7747C19.2395 21.8675 19.3612 21.9877 19.4559 22.1281C21.697 25.3133 25.1983 33.9052 22.4283 43.6282C22.3519 43.8941 22.1911 44.128 21.9702 44.2945C21.7493 44.4611 21.4802 44.5512 21.2036 44.5515M40.2989 57.7912H37.277V37.0167H41.4889L45.7008 50.0481V37.0167H48.7571V57.7912H45.3154L40.2989 42.2411V57.7912ZM58.1937 55.0897C59.6602 55.0897 60.3861 54.2896 60.3861 52.6849V42.1225C60.3861 40.5178 59.6602 39.7178 58.1937 39.7178C56.7514 39.7178 56.031 40.5193 56.031 42.1225V52.6849C56.031 54.2896 56.7518 55.0915 58.1937 55.0897ZM52.6436 52.5071V42.3C52.6436 40.5175 53.1277 39.1445 54.0856 38.1717C55.0435 37.1989 56.416 36.7199 58.1937 36.7199C59.991 36.7199 61.3783 37.2039 62.3362 38.1717C63.2941 39.1394 63.7735 40.5171 63.7735 42.3V52.5071C63.7735 54.2896 63.2847 55.6626 62.3167 56.6304C61.3487 57.5981 59.9715 58.0872 58.1937 58.0872C56.416 58.0872 55.0435 57.6032 54.0856 56.6304C53.1277 55.6576 52.6436 54.2896 52.6436 52.5071ZM30.5174 62.3089L29.7124 66.9904H31.3271L30.5174 62.3089ZM33.4356 70.1604H31.8657L31.5595 68.3236H29.4799L29.159 70.1604H27.7275L29.5349 60.719H31.6126L33.4356 70.1604ZM35.8744 62.0768V68.7924H36.8378C37.4946 68.7924 37.8304 68.4367 37.8304 67.7159V63.1534C37.8304 62.4372 37.4942 62.0768 36.8378 62.0768H35.8744ZM36.8721 70.1553H34.3342V60.7139H36.8717C38.5212 60.7139 39.3457 61.5418 39.346 63.1978V67.6617C39.346 69.3246 38.5215 70.156 36.8721 70.156M42.116 62.0768V68.7924H43.0837C43.7405 68.7924 44.0713 68.4367 44.0713 67.7159V63.1534C44.0713 62.4372 43.7405 62.0768 43.0837 62.0768H42.116ZM43.1133 70.1553H40.5754V60.7139H43.113C44.7675 60.7139 45.5938 61.5418 45.592 63.1978V67.6617C45.592 69.3246 44.7656 70.156 43.1133 70.156M46.8214 60.7168H48.362V70.1582H46.8214V60.7168ZM52.6238 70.1578H51.098V62.0793H49.2906V60.7165H54.4308V62.0793H52.6234L52.6238 70.1578ZM55.3587 60.7168H56.8993V70.1582H55.3587V60.7168ZM61.5681 70.1437H59.5438L57.8304 60.7172H59.3848L60.6102 68.2426L61.8692 60.7172H63.2963L61.5681 70.1437ZM68.743 70.1578H64.2101V60.7161H68.743V62.079H65.75V64.6124H68.1498V65.9753H65.7496V68.795H68.7427L68.743 70.1578ZM69.5 67.8395V67.3652H70.9415V67.8937C70.9415 68.6048 71.2723 68.9605 71.9388 68.9605C72.0729 68.9679 72.2069 68.9465 72.3321 68.898C72.4573 68.8494 72.5706 68.7747 72.6647 68.6789C72.8524 68.4563 72.9462 68.1694 72.9264 67.8789C72.9402 67.5251 72.8302 67.1776 72.6151 66.8964C72.2689 66.5169 71.8699 66.1893 71.4302 65.9236C70.8473 65.5857 70.3412 65.1301 69.9438 64.586C69.6576 64.1115 69.5137 63.5648 69.5292 63.0109C69.511 62.6859 69.5584 62.3605 69.6687 62.0542C69.779 61.748 69.9499 61.4671 70.1712 61.2283C70.4137 61.0035 70.6994 60.8302 71.0109 60.719C71.3224 60.6079 71.6532 60.5611 71.9833 60.5816C72.31 60.5604 72.6377 60.6065 72.9459 60.7169C73.2542 60.8273 73.5365 60.9998 73.7755 61.2236C73.9932 61.47 74.1602 61.7568 74.2669 62.0678C74.3736 62.3788 74.4179 62.7077 74.3972 63.0359V63.3612H72.9513V62.9954C72.9513 62.2792 72.6357 61.9188 71.9988 61.9188C71.8704 61.9107 71.7418 61.9304 71.6217 61.9764C71.5016 62.0224 71.3927 62.0938 71.3026 62.1856C71.1231 62.4007 71.0325 62.6763 71.0496 62.956C71.0438 63.2889 71.1537 63.6139 71.3605 63.8746C71.7223 64.2407 72.1307 64.5578 72.575 64.8177C73.1661 65.1553 73.6742 65.621 74.0618 66.1806C74.3448 66.6776 74.485 67.2432 74.4666 67.8149C74.4854 68.148 74.4369 68.4814 74.324 68.7953C74.2112 69.1092 74.0363 69.3971 73.8098 69.642C73.5598 69.8694 73.2667 70.0442 72.9479 70.1562C72.629 70.2682 72.2909 70.3149 71.9536 70.2938C71.6227 70.3157 71.2907 70.2697 70.9782 70.1584C70.6657 70.0472 70.3792 69.8732 70.1365 69.647C69.9152 69.4035 69.7448 69.118 69.6355 68.8076C69.5261 68.4972 69.4799 68.1681 69.4996 67.8395" fill="black"/>
<path d="M20.2364 57.4991C19.9262 57.5001 19.6263 57.3876 19.3934 57.1826C19.1605 56.9777 19.0107 56.6946 18.9723 56.3867C18.787 54.9771 18.6946 53.5568 18.6958 52.1351C18.6799 49.1254 19.0804 46.128 19.8857 43.228C19.9806 42.9053 20.1981 42.6325 20.4916 42.4683C20.7851 42.304 21.1313 42.2612 21.456 42.3492C21.7799 42.4394 22.0547 42.6545 22.22 42.9473C22.3852 43.2401 22.4274 43.5866 22.3373 43.9105L22.3347 43.9196C21.5955 46.5956 21.2268 49.3603 21.2387 52.1365C21.2406 53.4477 21.3262 54.7571 21.4954 56.0574C21.5174 56.2234 21.5065 56.3921 21.4633 56.5539C21.42 56.7157 21.3454 56.8673 21.2435 57.0002C21.1417 57.1332 21.0147 57.2447 20.8697 57.3285C20.7247 57.4123 20.5647 57.4667 20.3987 57.4886L20.3943 57.4893C20.3401 57.4944 20.2859 57.4991 20.2364 57.4991Z" fill="black"/>
</g>
</g>
<defs>
<clipPath id="clip0_2005_1697">
<rect width="79.2379" height="80.3087" fill="white" transform="translate(9.0918 8.90259)"/>
</clipPath>
</defs>
</svg>
