<svg width="101" height="100" viewBox="0 0 101 100" fill="none" xmlns="http://www.w3.org/2000/svg">
<circle cx="50.6007" cy="50" r="50" fill="#24C433"/>
<g clip-path="url(#clip0_2127_3250)">
<mask id="mask0_2127_3250" style="mask-type:luminance" maskUnits="userSpaceOnUse" x="0" y="0" width="101" height="100">
<path d="M0.59903 0H100.599V100H0.59903V0Z" fill="white"/>
</mask>
<g mask="url(#mask0_2127_3250)">
<path d="M50.5988 2.30887C24.3018 2.30887 2.90744 23.7033 2.90744 50.0002C2.90744 76.2972 24.3018 97.6911 50.5988 97.6911C76.8958 97.6911 98.2902 76.2972 98.2902 50.0002C98.2902 23.7033 76.8958 2.30887 50.5988 2.30887ZM50.5988 100C23.0283 100 0.59903 77.5703 0.59903 50.0002C0.59903 22.4302 23.0283 0 50.5988 0C78.1693 0 100.599 22.4297 100.599 49.9998C100.599 77.5693 78.1693 99.9995 50.5988 99.9995" fill="#F5F2ED"/>
<path d="M44.7452 18.6763H56.4509V15.314H44.7452V18.6763ZM57.5506 20.8751H43.6456C43.5012 20.8752 43.3582 20.8468 43.2249 20.7916C43.0915 20.7363 42.9703 20.6554 42.8682 20.5533C42.7661 20.4512 42.6852 20.33 42.6299 20.1966C42.5747 20.0632 42.5463 19.9203 42.5464 19.7759V14.2144C42.5463 14.07 42.5747 13.927 42.6299 13.7936C42.6851 13.6602 42.7661 13.539 42.8682 13.4369C42.9702 13.3347 43.0914 13.2537 43.2248 13.1985C43.3582 13.1432 43.5012 13.1147 43.6456 13.1147H57.5506C57.695 13.1147 57.838 13.1431 57.9715 13.1983C58.1049 13.2536 58.2261 13.3346 58.3283 13.4367C58.4304 13.5388 58.5114 13.6601 58.5666 13.7935C58.6219 13.9269 58.6503 14.07 58.6502 14.2144V19.7759C58.6503 19.9203 58.6219 20.0633 58.5666 20.1967C58.5114 20.3302 58.4304 20.4514 58.3282 20.5535C58.2261 20.6555 58.1049 20.7365 57.9714 20.7917C57.838 20.8469 57.695 20.8752 57.5506 20.8751ZM57.5506 54.3905H43.6456C41.5055 54.3905 39.7649 52.6499 39.7649 50.5098V43.6063C39.7649 43.3147 39.8808 43.035 40.087 42.8288C40.2932 42.6226 40.5729 42.5067 40.8646 42.5067C41.1562 42.5067 41.4359 42.6226 41.6421 42.8288C41.8483 43.035 41.9642 43.3147 41.9642 43.6063V50.5103C41.9648 50.956 42.1422 51.3833 42.4573 51.6985C42.7725 52.0137 43.1998 52.191 43.6456 52.1917H57.5506C57.9964 52.191 58.4238 52.0136 58.739 51.6984C59.0542 51.3831 59.2314 50.9557 59.2319 50.5098V33.3267C59.2319 33.0351 59.3478 32.7554 59.554 32.5492C59.7602 32.3429 60.0399 32.2271 60.3316 32.2271C60.6232 32.2271 60.9029 32.3429 61.1091 32.5492C61.3154 32.7554 61.4312 33.0351 61.4312 33.3267V50.5103C61.4312 52.6504 59.6907 54.3905 57.5506 54.3905Z" fill="#F5F2ED"/>
<path d="M40.8653 36.866C40.5737 36.866 40.294 36.7501 40.0877 36.5439C39.8815 36.3377 39.7657 36.058 39.7657 35.7663C39.7657 24.7986 45.4243 19.2163 45.6648 18.9846C45.8749 18.7825 46.1566 18.6719 46.4481 18.6771C46.7396 18.6823 47.0171 18.8029 47.2199 19.0124C47.6407 19.4489 47.6287 20.1434 47.194 20.5652C47.1413 20.616 41.9649 25.7827 41.9649 35.7663C41.9649 36.058 41.8491 36.3377 41.6429 36.5439C41.4366 36.7501 41.1569 36.866 40.8653 36.866ZM58.5728 27.1366C58.3515 27.1365 58.1354 27.0697 57.9527 26.9449C57.77 26.8201 57.6291 26.6431 57.5485 26.437C56.0387 22.5776 54.0249 20.5841 54.005 20.5647C53.7954 20.3619 53.675 20.0842 53.6701 19.7926C53.6653 19.501 53.7766 19.2194 53.9793 19.0098C54.1821 18.8002 54.4599 18.6798 54.7515 18.675C55.0431 18.6701 55.3246 18.7814 55.5342 18.9842C55.6295 19.0766 57.8986 21.2967 59.5971 25.6361C59.6625 25.8028 59.6861 25.983 59.666 26.1609C59.6459 26.3389 59.5826 26.5092 59.4816 26.6571C59.3807 26.8051 59.2451 26.9261 59.0867 27.0096C58.9283 27.0932 58.7519 27.1368 58.5728 27.1366ZM27.6456 48.728C27.4035 48.7282 27.1682 48.6484 26.976 48.5011C26.7839 48.3538 26.6457 48.1473 26.583 47.9135C26.5202 47.6796 26.5364 47.4317 26.6289 47.208C26.7215 46.9843 26.8852 46.7974 27.0949 46.6763L73.0036 20.1707C73.2563 20.0251 73.5564 19.9857 73.8381 20.0612C74.1198 20.1367 74.36 20.321 74.506 20.5735C74.5782 20.6985 74.6251 20.8366 74.6439 20.9798C74.6628 21.123 74.6532 21.2684 74.6158 21.4079C74.5784 21.5474 74.5139 21.6781 74.4259 21.7927C74.338 21.9072 74.2283 22.0033 74.1032 22.0754L28.1945 48.5814C28.0276 48.6778 27.8383 48.7283 27.6456 48.728ZM19.218 61.6846C19.2169 61.5398 19.2447 61.3962 19.2996 61.2622C19.3546 61.1282 19.4356 61.0065 19.538 60.9041C19.6404 60.8017 19.7621 60.7206 19.8961 60.6657C20.0301 60.6107 20.1737 60.583 20.3185 60.584C20.4634 60.5829 20.607 60.6105 20.7411 60.6654C20.8751 60.7203 20.9969 60.8014 21.0994 60.9038C21.2018 61.0062 21.2828 61.128 21.3377 61.2621C21.3926 61.3961 21.4203 61.5398 21.4191 61.6846V68.6746H25.493C25.6246 68.6738 25.7551 68.6991 25.8768 68.7491C25.9986 68.7991 26.1092 68.8728 26.2022 68.9659C26.2953 69.059 26.3689 69.1696 26.4189 69.2914C26.4688 69.4132 26.4941 69.5436 26.4932 69.6752C26.4941 69.8069 26.4688 69.9373 26.4189 70.0591C26.3689 70.1809 26.2953 70.2915 26.2022 70.3846C26.1092 70.4777 25.9986 70.5514 25.8768 70.6014C25.7551 70.6514 25.6246 70.6767 25.493 70.6759H20.3185C20.1737 70.677 20.0301 70.6493 19.8961 70.5944C19.762 70.5395 19.6403 70.4585 19.5379 70.356C19.4354 70.2536 19.3544 70.1319 19.2995 69.9978C19.2446 69.8638 19.2169 69.7202 19.218 69.5754V61.6846ZM33.2858 66.4873L31.8994 63.1856L30.5135 66.4873H33.2858ZM27.0967 69.2609L30.5843 61.385C30.828 60.8416 31.2705 60.5128 31.8707 60.5128H31.9993C32.5995 60.5128 33.0291 60.8416 33.2719 61.385L36.7595 69.2609C36.8311 69.4177 36.8741 69.5615 36.8741 69.7044C36.8741 70.2907 36.4168 70.7619 35.8305 70.7619C35.3162 70.7619 34.9727 70.4614 34.7729 70.004L34.1005 68.4318H29.6983L28.9982 70.0757C28.8132 70.5044 28.44 70.7619 27.9827 70.7619C27.4112 70.7619 26.9677 70.3046 26.9677 69.7321C26.9677 69.5754 27.0246 69.4177 27.0972 69.2609M37.0184 65.7012V65.6734C37.0184 62.8277 39.1617 60.499 42.2359 60.499C43.7356 60.499 44.7515 60.8985 45.5806 61.5135C45.8091 61.6846 46.0088 61.999 46.0088 62.3856C46.0088 62.9859 45.5233 63.4571 44.9221 63.4571C44.6225 63.4571 44.4218 63.3433 44.265 63.2434C43.6509 62.7861 43.0068 62.5281 42.2207 62.5281C40.5337 62.5281 39.3194 63.9283 39.3194 65.6448V65.6734C39.3194 67.3881 40.506 68.817 42.2207 68.817C43.1501 68.817 43.7647 68.5317 44.394 68.0313C44.5779 67.8762 44.8102 67.7903 45.0507 67.7886C45.6084 67.7886 46.081 68.2464 46.081 68.8031C46.081 69.1467 45.9089 69.4172 45.7092 69.5892C44.8084 70.3754 43.7508 70.8475 42.1499 70.8475C39.2043 70.8475 37.0184 68.5747 37.0184 65.7012ZM49.7563 62.7001H47.6412C47.3721 62.699 47.1145 62.5916 46.9243 62.4013C46.7342 62.2109 46.627 61.9532 46.6262 61.6841C46.6262 61.1269 47.0839 60.6696 47.6412 60.6696H54.0734C54.6311 60.6696 55.0885 61.1274 55.0885 61.6841C55.0877 61.9531 54.9806 62.2109 54.7906 62.4012C54.6005 62.5916 54.3429 62.699 54.0739 62.7001H51.9574V69.6614C51.9586 69.8062 51.9309 69.9499 51.876 70.0839C51.8211 70.218 51.7401 70.3398 51.6377 70.4422C51.5352 70.5446 51.4134 70.6256 51.2794 70.6805C51.1453 70.7354 51.0017 70.7631 50.8568 70.7619C50.712 70.763 50.5684 70.7352 50.4344 70.6803C50.3004 70.6253 50.1787 70.5443 50.0763 70.4419C49.9739 70.3395 49.8929 70.2178 49.8379 70.0838C49.783 69.9498 49.7552 69.8062 49.7563 69.6614V62.7001ZM63.4153 65.7012V65.6734C63.4153 63.9579 62.157 62.5281 60.3841 62.5281C58.6126 62.5281 57.383 63.9283 57.383 65.6448V65.6734C57.383 67.3881 58.6403 68.817 60.4132 68.817C62.1857 68.817 63.4153 67.4172 63.4153 65.7012ZM55.082 65.7012V65.6734C55.082 62.8277 57.3261 60.499 60.4132 60.499C63.5013 60.499 65.7163 62.8 65.7163 65.6443V65.6734C65.7163 68.5178 63.4722 70.8479 60.3841 70.8479C57.297 70.8479 55.082 68.5455 55.082 65.7012ZM66.7512 69.6184C66.5084 69.4463 66.3369 69.1319 66.3369 68.7892C66.3369 68.2172 66.7947 67.7747 67.3653 67.7747C67.652 67.7747 67.8517 67.8746 67.9946 67.9745C68.753 68.5317 69.5817 68.8753 70.5532 68.8753C71.454 68.8753 71.9974 68.5178 71.9974 67.9315V67.9023C71.9974 67.3451 71.6538 67.0598 69.9812 66.6307C67.9655 66.116 66.6656 65.5588 66.6656 63.5722V63.5431C66.6656 61.7276 68.1237 60.5272 70.168 60.5272C71.3823 60.5272 72.4399 60.8416 73.3407 61.4141C73.4909 61.5042 73.6149 61.632 73.7003 61.785C73.7856 61.9379 73.8294 62.1106 73.8272 62.2858C73.8272 62.8568 73.3698 63.3003 72.7973 63.3003C72.6005 63.301 72.4074 63.2464 72.2401 63.1426C71.5109 62.7144 70.8251 62.4716 70.1389 62.4716C69.2959 62.4716 68.8524 62.8568 68.8524 63.3433V63.3711C68.8524 64.0295 69.2811 64.2432 71.0106 64.6866C73.0406 65.2161 74.1837 65.9444 74.1837 67.6887V67.7164C74.1837 69.7044 72.6688 70.8188 70.5102 70.8188C69.1951 70.8188 67.8656 70.4184 66.7512 69.6184ZM75.5279 69.5758V61.7702C75.5269 61.6253 75.5547 61.4818 75.6096 61.3478C75.6645 61.2138 75.7456 61.092 75.848 60.9896C75.9504 60.8872 76.0721 60.8062 76.2061 60.7512C76.3401 60.6963 76.4837 60.6685 76.6285 60.6696H82.1757C82.7177 60.6696 83.1611 61.1135 83.1611 61.6564C83.1611 62.1997 82.7177 62.6284 82.1762 62.6284H77.7152V64.6575H81.5325C82.0744 64.6575 82.5179 65.1014 82.5179 65.6443C82.5179 66.1877 82.0744 66.6163 81.533 66.6163H77.7152V68.7176H82.2469C82.7898 68.7176 83.2333 69.1615 83.2333 69.7044C83.2333 70.2477 82.7898 70.6759 82.2465 70.6759H76.6285C76.4837 70.677 76.3401 70.6492 76.2061 70.5943C76.0721 70.5393 75.9504 70.4583 75.848 70.3559C75.7456 70.2535 75.6645 70.1318 75.6096 69.9978C75.5547 69.8638 75.5269 69.7202 75.5279 69.5754M33.6834 76.0636C33.6824 75.9188 33.7101 75.7752 33.7651 75.6412C33.82 75.5072 33.901 75.3855 34.0035 75.2831C34.1059 75.1806 34.2276 75.0996 34.3616 75.0447C34.4956 74.9897 34.6392 74.962 34.784 74.963H40.3881C40.9453 74.963 41.3888 75.407 41.3888 75.9642C41.3895 76.0958 41.3641 76.2262 41.3141 76.348C41.2641 76.4697 41.1904 76.5803 41.0973 76.6734C41.0042 76.7665 40.8936 76.8402 40.7719 76.8902C40.6502 76.9402 40.5197 76.9656 40.3881 76.9649H35.8841V79.0952H39.7449C39.8764 79.0944 40.0069 79.1196 40.1286 79.1696C40.2503 79.2195 40.3609 79.2931 40.454 79.3861C40.5471 79.4791 40.6208 79.5896 40.6708 79.7113C40.7209 79.833 40.7463 79.9634 40.7455 80.095C40.7464 80.2266 40.7211 80.3572 40.6711 80.4789C40.6211 80.6007 40.5475 80.7114 40.4544 80.8045C40.3613 80.8976 40.2506 80.9713 40.1288 81.0212C40.007 81.0712 39.8765 81.0965 39.7449 81.0957H35.8846V83.9548C35.8858 84.0997 35.8582 84.2434 35.8033 84.3774C35.7484 84.5115 35.6674 84.6333 35.565 84.7358C35.4625 84.8382 35.3407 84.9192 35.2066 84.9741C35.0725 85.029 34.9289 85.0566 34.784 85.0554C34.6392 85.0565 34.4956 85.0288 34.3615 84.9739C34.2275 84.9189 34.1057 84.8379 34.0033 84.7355C33.9009 84.6331 33.8199 84.5113 33.765 84.3773C33.71 84.2433 33.6823 84.0996 33.6834 83.9548V76.0636ZM46.6863 79.8245C47.7591 79.8245 48.3732 79.252 48.3732 78.4095V78.3803C48.3732 77.4365 47.7161 76.951 46.6433 76.951H44.456V79.8245H46.6863ZM42.2549 76.0641C42.2538 75.9192 42.2816 75.7757 42.3365 75.6417C42.3915 75.5077 42.4725 75.3859 42.5749 75.2835C42.6773 75.1811 42.799 75.1001 42.933 75.0451C43.067 74.9902 43.2106 74.9624 43.3554 74.9635H46.8292C48.1013 74.9635 49.0881 75.3214 49.7452 75.9785C50.3024 76.5367 50.6034 77.3228 50.6034 78.2652V78.2943C50.6034 79.8665 49.8173 80.839 48.6016 81.3394L50.1308 83.1969C50.3454 83.4688 50.4883 83.6973 50.4883 84.0413C50.4883 84.6554 49.9741 85.0558 49.4446 85.0558C48.9443 85.0558 48.6159 84.8131 48.3593 84.4834L46.2151 81.768H44.456V83.9553C44.4572 84.1001 44.4295 84.2438 44.3746 84.3778C44.3197 84.5119 44.2387 84.6337 44.1363 84.7361C44.0338 84.8385 43.912 84.9196 43.778 84.9744C43.6439 85.0294 43.5003 85.057 43.3554 85.0558C43.2106 85.0569 43.067 85.0291 42.933 84.9742C42.799 84.9193 42.6773 84.8382 42.5749 84.7358C42.4725 84.6334 42.3915 84.5117 42.3365 84.3777C42.2816 84.2437 42.2538 84.1001 42.2549 83.9553V76.0641ZM52.0638 83.8693V76.0636C52.0627 75.9188 52.0905 75.7752 52.1454 75.6412C52.2003 75.5072 52.2814 75.3855 52.3838 75.2831C52.4862 75.1806 52.6079 75.0996 52.7419 75.0447C52.8759 74.9897 53.0195 74.962 53.1643 74.963H58.7115C59.2535 74.963 59.6965 75.407 59.6965 75.9503C59.6965 76.4936 59.2535 76.9223 58.7115 76.9223H54.251V78.9514H58.0669C58.6103 78.9514 59.0537 79.3949 59.0537 79.9382C59.0537 80.4816 58.6098 80.9102 58.0669 80.9102H54.251V83.0115H58.7823C59.3256 83.0115 59.7691 83.4549 59.7691 83.9983C59.7691 84.5416 59.3252 84.9694 58.7823 84.9694H53.1639C53.019 84.9704 52.8755 84.9427 52.7415 84.8877C52.6075 84.8328 52.4857 84.7518 52.3833 84.6494C52.2809 84.547 52.1999 84.4252 52.1449 84.2912C52.09 84.1572 52.0623 84.0136 52.0633 83.8688M61.0625 83.8693V76.0636C61.0614 75.9188 61.0892 75.7752 61.1441 75.6412C61.1991 75.5072 61.2801 75.3855 61.3825 75.2831C61.4849 75.1806 61.6066 75.0996 61.7406 75.0447C61.8746 74.9897 62.0182 74.962 62.163 74.963H67.7103C68.2522 74.963 68.6957 75.407 68.6957 75.9503C68.6957 76.4936 68.2522 76.9223 67.7107 76.9223H63.2497V78.9514H67.067C67.609 78.9514 68.0524 79.3949 68.0524 79.9382C68.0524 80.4816 67.609 80.9102 67.0675 80.9102H63.2497V83.0115H67.7815C68.3243 83.0115 68.7678 83.4549 68.7678 83.9983C68.7678 84.5416 68.3243 84.9694 67.781 84.9694H62.163C62.0182 84.9704 61.8746 84.9427 61.7406 84.8877C61.6066 84.8328 61.4849 84.7518 61.3825 84.6494C61.2801 84.547 61.1991 84.4252 61.1441 84.2912C61.0892 84.1572 61.0614 84.0141 61.0625 83.8693Z" fill="#F5F2ED"/>
</g>
</g>
<defs>
<clipPath id="clip0_2127_3250">
<rect width="100" height="100" fill="white" transform="translate(0.59903)"/>
</clipPath>
</defs>
</svg>
