<svg width="101" height="100" viewBox="0 0 101 100" fill="none" xmlns="http://www.w3.org/2000/svg">
<circle cx="50.7998" cy="50" r="50" fill="#F5F2EC"/>
<g clip-path="url(#clip0_2005_1672)">
<mask id="mask0_2005_1672" style="mask-type:luminance" maskUnits="userSpaceOnUse" x="11" y="9" width="80" height="82">
<path d="M11.1855 9.82973H90.4204V90.165H11.1855V9.82973Z" fill="white"/>
</mask>
<g mask="url(#mask0_2005_1672)">
<path d="M50.8028 11.6844C29.9664 11.6844 13.0146 28.8717 13.0146 49.9974C13.0146 71.1232 29.9664 88.3101 50.8028 88.3101C71.6391 88.3101 88.5909 71.1232 88.5909 49.9974C88.5909 28.8717 71.6391 11.6844 50.8028 11.6844ZM50.8028 90.1649C28.9573 90.1649 11.1855 72.1459 11.1855 49.9974C11.1855 27.849 28.9573 9.82959 50.8028 9.82959C72.6482 9.82959 90.42 27.8486 90.42 49.9971C90.42 72.1451 72.6482 90.1645 50.8028 90.1645" fill="black"/>
<path d="M44.5471 34.7687C44.376 34.7687 44.2027 34.7178 44.051 34.6108C42.5462 33.552 41.6475 31.8335 41.6475 30.0155V25.3734C41.6473 25.2188 41.6872 25.0668 41.7632 24.9327C41.8391 24.7986 41.9485 24.6871 42.0803 24.6094C42.2121 24.5316 42.3617 24.4903 42.5142 24.4895C42.6667 24.4888 42.8167 24.5286 42.9493 24.6051L49.2033 28.2086C50.7748 29.3089 51.674 31.0267 51.674 32.8459C51.674 33.0801 51.5822 33.3047 51.4188 33.4704C51.2555 33.636 51.0339 33.7291 50.8029 33.7291C50.5718 33.7291 50.3502 33.636 50.1869 33.4704C50.0235 33.3047 49.9317 33.0801 49.9317 32.8459C49.9317 31.6058 49.3133 30.4308 48.2771 29.7027L43.3901 26.8902V30.0155C43.3901 31.2551 44.0085 32.4302 45.0447 33.1598C45.1972 33.267 45.312 33.4209 45.3721 33.599C45.4323 33.777 45.4348 33.9699 45.3793 34.1495C45.3237 34.3291 45.213 34.486 45.0633 34.5973C44.9136 34.7086 44.7328 34.7689 44.5471 34.7687Z" fill="black"/>
<path d="M42.9834 40.2605C42.6602 40.2605 42.3495 40.0777 42.1989 39.7627C41.839 39.0138 41.6505 38.1922 41.6475 37.3592V32.7171C41.6476 32.5626 41.6878 32.4108 41.7638 32.2769C41.8398 32.1431 41.9491 32.0317 42.0808 31.954C42.2125 31.8763 42.362 31.8349 42.5144 31.834C42.6667 31.8331 42.8167 31.8727 42.9493 31.9488L48.9055 35.3806C49.005 35.4379 49.0924 35.5146 49.1627 35.6061C49.233 35.6977 49.2848 35.8024 49.3152 35.9143C49.3455 36.0262 49.3538 36.1431 49.3396 36.2582C49.3254 36.3733 49.2889 36.4845 49.2323 36.5854C49.118 36.7888 48.9288 36.938 48.7062 37.0002C48.4836 37.0624 48.2457 37.0325 48.0448 36.9171L43.3901 34.235V37.3592C43.3901 37.9138 43.5201 38.4781 43.766 38.9911C43.8304 39.1257 43.86 39.2747 43.8521 39.4241C43.8442 39.5734 43.799 39.7183 43.7208 39.8452C43.6426 39.972 43.5339 40.0767 43.4049 40.1493C43.2759 40.2219 43.1309 40.2602 42.9834 40.2605ZM50.8027 45.7154C50.6539 45.7154 50.5059 45.6772 50.3721 45.6003L46.3762 43.2974C46.2767 43.2401 46.1893 43.1635 46.119 43.072C46.0487 42.9805 45.9969 42.8758 45.9665 42.7639C45.9362 42.6521 45.9279 42.5352 45.9421 42.4201C45.9563 42.305 45.9928 42.1939 46.0494 42.093C46.1056 41.9919 46.181 41.9031 46.2712 41.8317C46.3614 41.7602 46.4647 41.7076 46.5751 41.6768C46.6854 41.6459 46.8007 41.6375 46.9143 41.652C47.0279 41.6665 47.1375 41.7037 47.2369 41.7613L49.9314 43.3141V40.1899C49.9314 40.0739 49.9539 39.9591 49.9977 39.8519C50.0415 39.7447 50.1057 39.6474 50.1866 39.5654C50.2675 39.4834 50.3636 39.4183 50.4693 39.374C50.575 39.3296 50.6883 39.3068 50.8027 39.3069C50.9171 39.3068 51.0304 39.3296 51.1361 39.374C51.2418 39.4183 51.3378 39.4834 51.4187 39.5654C51.4997 39.6474 51.5638 39.7447 51.6076 39.8519C51.6514 39.9591 51.674 40.0739 51.674 40.1899V44.832C51.6739 45.0663 51.582 45.2909 51.4187 45.4566C51.2553 45.6222 51.0337 45.7153 50.8027 45.7154Z" fill="black"/>
<path d="M50.8027 53.056C50.6546 53.056 50.5059 53.0181 50.3721 52.9408L44.1177 49.3381C42.6745 48.3262 41.7808 46.7537 41.6618 45.0898C41.6534 44.9741 41.6677 44.8578 41.7037 44.7476C41.7397 44.6374 41.7967 44.5355 41.8716 44.4477C41.9464 44.3599 42.0376 44.288 42.1399 44.2359C42.2422 44.1839 42.3537 44.1527 42.4678 44.1444C42.9518 44.1172 43.3644 44.475 43.3992 44.9613C43.4809 46.0988 44.0961 47.1764 45.0447 47.844L49.9314 50.6562V47.5308C49.9314 46.2912 49.3129 45.1158 48.276 44.3869C48.1819 44.3208 48.1017 44.2365 48.0398 44.1389C47.9779 44.0413 47.9356 43.9323 47.9152 43.8181C47.8949 43.7039 47.897 43.5868 47.9214 43.4734C47.9457 43.36 47.9919 43.2526 48.0572 43.1573C48.1224 43.0619 48.2055 42.9805 48.3018 42.9177C48.3981 42.8549 48.5056 42.812 48.6182 42.7914C48.7308 42.7707 48.8464 42.7728 48.9582 42.7975C49.0701 42.8222 49.176 42.869 49.27 42.9352C50.7745 43.9939 51.674 45.712 51.674 47.5305V52.173C51.6739 52.4072 51.582 52.6319 51.4187 52.7975C51.2553 52.9632 51.0337 53.0559 50.8027 53.056ZM42.5188 27.7291C42.2877 27.7291 42.0661 27.636 41.9027 27.4703C41.7393 27.3047 41.6475 27.08 41.6475 26.8457V21.7496C41.6475 21.5153 41.7393 21.2906 41.9027 21.125C42.0661 20.9593 42.2877 20.8662 42.5188 20.8662C42.7498 20.8662 42.9715 20.9593 43.1349 21.125C43.2983 21.2906 43.3901 21.5153 43.3901 21.7496V26.8457C43.3901 27.08 43.2983 27.3047 43.1349 27.4703C42.9715 27.636 42.7498 27.7291 42.5188 27.7291ZM50.8027 35.6692C50.5716 35.6692 50.35 35.5762 50.1866 35.4105C50.0232 35.2448 49.9314 35.0201 49.9314 34.7859V32.8459C49.9314 31.0268 50.8298 29.3094 52.3349 28.251L58.6553 24.6052C58.7879 24.5289 58.9379 24.4891 59.0903 24.4899C59.2428 24.4907 59.3924 24.532 59.5241 24.6098C59.6559 24.6875 59.7652 24.799 59.8412 24.933C59.9172 25.067 59.9572 25.2189 59.9571 25.3735V29.9372C59.9571 30.1715 59.8653 30.3962 59.7019 30.5619C59.5385 30.7275 59.3169 30.8206 59.0858 30.8206C58.8548 30.8206 58.6331 30.7275 58.4697 30.5619C58.3063 30.3962 58.2145 30.1715 58.2145 29.9372V26.891L53.2627 29.7451C52.2928 30.4313 51.6743 31.6059 51.6743 32.8459V34.7859C51.6743 35.0201 51.5825 35.2448 51.4191 35.4105C51.2557 35.5762 51.0337 35.6692 50.8027 35.6692Z" fill="black"/>
<path d="M50.8029 45.7153C50.6885 45.7154 50.5752 45.6926 50.4694 45.6482C50.3637 45.6038 50.2676 45.5387 50.1867 45.4567C50.1058 45.3747 50.0416 45.2772 49.9979 45.17C49.9541 45.0628 49.9316 44.948 49.9316 44.8319V40.1898C49.9316 40.0738 49.9542 39.959 49.998 39.8518C50.0418 39.7447 50.1059 39.6473 50.1869 39.5653C50.2678 39.4833 50.3638 39.4183 50.4695 39.3739C50.5752 39.3295 50.6885 39.3067 50.8029 39.3068C50.9173 39.3067 51.0306 39.3295 51.1363 39.3739C51.242 39.4183 51.3381 39.4833 51.419 39.5653C51.4999 39.6473 51.5641 39.7447 51.6079 39.8518C51.6517 39.959 51.6742 40.0738 51.6742 40.1898V43.314L56.6265 40.4599C57.5963 39.7738 58.2148 38.5987 58.2148 37.3595V35.3408C58.2148 35.2248 58.2374 35.1099 58.2811 35.0028C58.3249 34.8956 58.3891 34.7983 58.47 34.7163C58.5509 34.6343 58.647 34.5692 58.7527 34.5249C58.8584 34.4805 58.9717 34.4577 59.0861 34.4578C59.2005 34.4577 59.3138 34.4805 59.4195 34.5249C59.5252 34.5692 59.6213 34.6343 59.7022 34.7163C59.7831 34.7983 59.8473 34.8956 59.8911 35.0028C59.9349 35.1099 59.9574 35.2248 59.9574 35.3408V37.3595C59.9574 39.1779 59.059 40.8953 57.5538 41.954L51.2335 45.6002C51.0997 45.6771 50.9513 45.7153 50.8029 45.7153Z" fill="black"/>
<path d="M58.2141 41.5757L53.2618 44.4287C52.292 45.1152 51.6731 46.2906 51.6731 47.5306V50.6548L56.6257 47.8014C57.5956 47.1149 58.2141 45.9395 58.2141 44.6995V41.5757ZM50.8018 53.0561C50.5708 53.0561 50.3491 52.9631 50.1857 52.7974C50.0223 52.6317 49.9305 52.407 49.9305 52.1727V47.5306C49.9305 45.7122 50.8293 43.9941 52.3341 42.935L58.6545 39.2899C58.7872 39.2138 58.9372 39.1741 59.0896 39.1749C59.2421 39.1757 59.3917 39.2169 59.5236 39.2944C59.6551 39.3722 59.7643 39.4837 59.8401 39.6176C59.916 39.7516 59.9559 39.9033 59.9559 40.0578V44.6999C59.9559 46.5183 59.0579 48.2361 57.5531 49.2952L51.2327 52.941C51.099 53.0175 50.9499 53.0561 50.8018 53.0561ZM59.085 27.7289C58.8539 27.7289 58.6323 27.6358 58.4689 27.4701C58.3055 27.3044 58.2137 27.0797 58.2137 26.8455V21.7494C58.2137 21.5151 58.3055 21.2904 58.4689 21.1247C58.6323 20.9591 58.8539 20.866 59.085 20.866C59.3161 20.866 59.5377 20.9591 59.7011 21.1247C59.8645 21.2904 59.9563 21.5151 59.9563 21.7494V26.8455C59.9563 27.0797 59.8645 27.3044 59.7011 27.4701C59.5377 27.6358 59.3161 27.7289 59.085 27.7289ZM50.8018 31.9285C50.5708 31.9285 50.3491 31.8354 50.1857 31.6698C50.0223 31.5041 49.9305 31.2794 49.9305 31.0451V19.3496C49.9305 19.2336 49.9531 19.1187 49.9969 19.0116C50.0407 18.9044 50.1048 18.8071 50.1858 18.7251C50.2667 18.6431 50.3627 18.578 50.4684 18.5337C50.5741 18.4893 50.6874 18.4665 50.8018 18.4666C50.9162 18.4665 51.0295 18.4893 51.1352 18.5337C51.2409 18.578 51.337 18.6431 51.4179 18.7251C51.4988 18.8071 51.563 18.9044 51.6068 19.0116C51.6506 19.1187 51.6731 19.2336 51.6731 19.3496V31.0451C51.6731 31.2794 51.5813 31.5041 51.4179 31.6698C51.2545 31.8354 51.0329 31.9285 50.8018 31.9285ZM32.6149 49.0177C32.4231 49.0178 32.2366 48.9537 32.0844 48.8354C31.9321 48.7171 31.8227 48.5511 31.7729 48.3633C31.7232 48.1755 31.736 47.9763 31.8093 47.7966C31.8827 47.6168 32.0124 47.4667 32.1785 47.3694L68.5542 26.0761C68.7544 25.9591 68.9923 25.9275 69.2155 25.9881C69.4387 26.0488 69.629 26.1968 69.7447 26.3997C69.8019 26.5001 69.839 26.611 69.854 26.7261C69.8689 26.8411 69.8613 26.958 69.8317 27.07C69.802 27.1821 69.7509 27.2871 69.6812 27.3791C69.6115 27.4711 69.5246 27.5483 69.4255 27.6063L33.0495 48.8996C32.9174 48.977 32.7675 49.0178 32.6149 49.0177ZM28.9678 62.6104V62.5881C28.9678 60.302 30.7228 58.4312 33.1238 58.4312C34.3242 58.4312 35.117 58.7065 35.8312 59.2117C36.0012 59.338 36.1935 59.5795 36.1935 59.9235C36.1935 60.155 36.1028 60.377 35.9413 60.5408C35.7799 60.7045 35.5608 60.7965 35.3325 60.7965C35.0833 60.7965 34.9247 60.7039 34.8005 60.6126C34.3242 60.2686 33.8145 60.0616 33.0674 60.0616C31.7993 60.0616 30.791 61.1984 30.791 62.5647V62.5881C30.791 64.0577 31.7868 65.1369 33.192 65.1369C33.8266 65.1369 34.3923 64.9764 34.8334 64.6547V63.5068H33.6566C33.2371 63.5068 32.8974 63.1736 32.8974 62.749C32.8974 62.3233 33.2371 61.9789 33.6566 61.9789H35.6498C35.7645 61.9781 35.8783 62.0004 35.9845 62.0445C36.0906 62.0886 36.1871 62.1537 36.2683 62.236C36.3494 62.3182 36.4136 62.416 36.4571 62.5237C36.5007 62.6313 36.5226 62.7467 36.5218 62.863V64.8152C36.5218 65.3319 36.3291 65.6882 35.9099 65.9408C35.264 66.3428 34.3242 66.7447 33.1356 66.7447C30.666 66.7447 28.9678 64.9876 28.9678 62.6104ZM37.7716 59.3837C37.7708 59.2673 37.7928 59.152 37.8363 59.0443C37.8798 58.9367 37.944 58.8389 38.0252 58.7566C38.1063 58.6744 38.2028 58.6093 38.3089 58.5651C38.4151 58.521 38.5289 58.4987 38.6436 58.4995C38.7584 58.4986 38.8722 58.5208 38.9784 58.5649C39.0847 58.609 39.1812 58.6741 39.2623 58.7564C39.3435 58.8387 39.4077 58.9365 39.4512 59.0442C39.4947 59.1519 39.5166 59.2673 39.5157 59.3837V64.9991H42.7436C42.8479 64.9984 42.9514 65.0187 43.0479 65.0589C43.1444 65.099 43.232 65.1582 43.3058 65.233C43.3796 65.3078 43.4379 65.3967 43.4776 65.4945C43.5172 65.5924 43.5372 65.6972 43.5365 65.803C43.5372 65.9087 43.5172 66.0136 43.4776 66.1114C43.4379 66.2093 43.3796 66.2982 43.3058 66.373C43.232 66.4478 43.1444 66.5069 43.0479 66.5471C42.9514 66.5873 42.8479 66.6076 42.7436 66.6069H38.6436C38.5289 66.6078 38.4151 66.5855 38.3089 66.5414C38.2027 66.4973 38.1062 66.4322 38.0251 66.3499C37.9439 66.2676 37.8797 66.1698 37.8362 66.0621C37.7927 65.9545 37.7707 65.8391 37.7716 65.7227V59.3837ZM43.8502 63.1617V59.3837C43.8502 58.8896 44.2349 58.4995 44.7222 58.4995C44.8369 58.4987 44.9507 58.5209 45.0569 58.565C45.1631 58.6091 45.2596 58.6742 45.3408 58.7565C45.4219 58.8388 45.4861 58.9366 45.5296 59.0443C45.5731 59.152 45.5951 59.2673 45.5942 59.3837V63.116C45.5942 64.4255 46.2402 65.1027 47.3042 65.1027C48.3686 65.1027 49.0145 64.4478 49.0145 63.174V59.3837C49.0137 59.2673 49.0356 59.152 49.0791 59.0443C49.1226 58.9366 49.1868 58.8388 49.268 58.7565C49.3491 58.6742 49.4456 58.6091 49.5518 58.565C49.658 58.5209 49.7718 58.4987 49.8866 58.4995C50.3739 58.4995 50.7586 58.8896 50.7586 59.3837V63.1049C50.7586 65.5389 49.411 66.7328 47.2815 66.7328C45.1527 66.7328 43.8502 65.5277 43.8502 63.1617ZM53.836 60.1995H52.1601C51.9469 60.1986 51.7428 60.1123 51.5921 59.9594C51.4414 59.8065 51.3565 59.5994 51.3558 59.3833C51.3558 58.9357 51.7186 58.5683 52.1601 58.5683H57.2567C57.6986 58.5683 58.0609 58.936 58.0609 59.3833C58.0604 59.5994 57.9755 59.8065 57.8249 59.9594C57.6743 60.1123 57.4702 60.1986 57.257 60.1995H55.58V65.7918C55.581 65.9082 55.559 66.0236 55.5156 66.1313C55.4721 66.239 55.4079 66.3368 55.3267 66.4191C55.2455 66.5014 55.149 66.5665 55.0428 66.6106C54.9366 66.6547 54.8228 66.6769 54.708 66.676C54.5933 66.6768 54.4795 66.6545 54.3733 66.6104C54.2672 66.5663 54.1707 66.5012 54.0895 66.4189C54.0084 66.3366 53.9442 66.2388 53.9007 66.1312C53.8571 66.0235 53.8352 65.9082 53.836 65.7918V60.1995ZM58.7193 65.7227V59.452C58.7185 59.3357 58.7405 59.2203 58.784 59.1127C58.8276 59.0051 58.8918 58.9072 58.9729 58.825C59.0541 58.7427 59.1505 58.6776 59.2567 58.6335C59.3629 58.5893 59.4766 58.5671 59.5914 58.5679H63.9867C64.4161 58.5679 64.7671 58.9245 64.7671 59.361C64.7671 59.7975 64.4161 60.1419 63.9867 60.1419H60.4524V61.772H63.477C63.9065 61.772 64.2575 62.1282 64.2575 62.5647C64.2575 63.0012 63.9065 63.3456 63.477 63.3456H60.4524V65.0336H64.0428C64.4733 65.0336 64.8246 65.3899 64.8246 65.8264C64.8246 66.2629 64.4729 66.6065 64.0428 66.6065H59.591C59.4763 66.6074 59.3625 66.5851 59.2563 66.5409C59.1501 66.4968 59.0537 66.4317 58.9725 66.3494C58.8914 66.2672 58.8272 66.1694 58.7837 66.0617C58.7401 65.9541 58.7181 65.8387 58.719 65.7224M65.8498 59.4067C65.849 59.2904 65.871 59.175 65.9145 59.0674C65.9581 58.9597 66.0223 58.8619 66.1034 58.7797C66.1845 58.6974 66.281 58.6323 66.3872 58.5882C66.4933 58.544 66.6071 58.5217 66.7219 58.5226H66.9032C67.3224 58.5226 67.5719 58.7295 67.8093 59.0393L71.1729 63.518V59.3722C71.1729 59.1406 71.2636 58.9186 71.4251 58.7549C71.5865 58.5911 71.8055 58.4992 72.0339 58.4992C72.2623 58.4992 72.4813 58.5911 72.6428 58.7549C72.8042 58.9186 72.8949 59.1406 72.8949 59.3722V65.7684C72.8949 66.2625 72.5099 66.6526 72.0229 66.6526H71.9661C71.5466 66.6526 71.2982 66.4464 71.06 66.1362L67.5719 61.4967V65.803C67.5719 66.0345 67.4812 66.2566 67.3197 66.4203C67.1582 66.584 66.9392 66.676 66.7109 66.676C66.4825 66.676 66.2635 66.584 66.102 66.4203C65.9405 66.2566 65.8498 66.0345 65.8498 65.803V59.4067ZM37.4166 70.9355C37.4157 70.8191 37.4377 70.7038 37.4813 70.5961C37.5248 70.4885 37.589 70.3907 37.6701 70.3084C37.7513 70.2261 37.8477 70.161 37.9539 70.1169C38.0601 70.0728 38.1738 70.0505 38.2886 70.0513H42.7293C43.1705 70.0513 43.5219 70.4076 43.5219 70.8552C43.5224 70.961 43.5023 71.0658 43.4627 71.1636C43.4231 71.2614 43.3647 71.3502 43.2909 71.425C43.2172 71.4997 43.1295 71.5589 43.0331 71.5991C42.9366 71.6393 42.8333 71.6597 42.729 71.6591H39.1606V73.3706H42.2193C42.3236 73.3699 42.4269 73.3902 42.5234 73.4303C42.6198 73.4704 42.7075 73.5295 42.7812 73.6042C42.855 73.6789 42.9134 73.7677 42.953 73.8655C42.9927 73.9632 43.0128 74.068 43.0122 74.1737C43.0129 74.2795 42.9928 74.3843 42.9532 74.4822C42.9136 74.58 42.8553 74.6689 42.7815 74.7437C42.7077 74.8185 42.6201 74.8777 42.5235 74.9178C42.427 74.958 42.3236 74.9783 42.2193 74.9776H39.1606V77.2745C39.1616 77.3909 39.1397 77.5063 39.0962 77.614C39.0528 77.7218 38.9886 77.8196 38.9074 77.9019C38.8262 77.9842 38.7297 78.0493 38.6235 78.0934C38.5172 78.1375 38.4034 78.1597 38.2886 78.1587C38.1738 78.1596 38.06 78.1373 37.9538 78.0932C37.8476 78.0491 37.7512 77.984 37.67 77.9017C37.5889 77.8194 37.5247 77.7216 37.4812 77.6139C37.4376 77.5063 37.4157 77.3909 37.4166 77.2745V70.9355ZM47.7197 73.956C48.5697 73.956 49.0563 73.4961 49.0563 72.8193V72.7959C49.0563 72.038 48.5357 71.648 47.6856 71.648H45.9526V73.956H47.7197ZM44.2085 70.9351C44.2077 70.8187 44.2297 70.7034 44.2732 70.5958C44.3167 70.4881 44.3809 70.3903 44.4621 70.308C44.5432 70.2258 44.6397 70.1607 44.7458 70.1165C44.852 70.0724 44.9658 70.0501 45.0805 70.0509H47.8329C48.8405 70.0509 49.6228 70.3385 50.1434 70.8664C50.5853 71.3148 50.8235 71.9463 50.8235 72.7034V72.7268C50.8235 73.9898 50.2006 74.7711 49.2369 75.173L50.449 76.6653C50.619 76.8837 50.7322 77.0672 50.7322 77.3436C50.7322 77.837 50.3248 78.1587 49.9053 78.1587C49.5088 78.1587 49.2487 77.9636 49.0453 77.6988L47.3463 75.5174H45.9522V77.2745C45.9531 77.3909 45.9312 77.5063 45.8877 77.614C45.8442 77.7217 45.78 77.8195 45.6988 77.9018C45.6177 77.9841 45.5212 78.0492 45.415 78.0933C45.3087 78.1374 45.1949 78.1596 45.0802 78.1587C44.9654 78.1595 44.8516 78.1372 44.7455 78.0931C44.6393 78.0489 44.5428 77.9838 44.4617 77.9016C44.3806 77.8193 44.3163 77.7215 44.2728 77.6139C44.2293 77.5062 44.2073 77.3909 44.2081 77.2745L44.2085 70.9351ZM51.9802 77.2054V70.9355C51.9793 70.8191 52.0013 70.7038 52.0449 70.5961C52.0884 70.4885 52.1526 70.3907 52.2337 70.3084C52.3149 70.2261 52.4113 70.161 52.5175 70.1169C52.6237 70.0728 52.7375 70.0505 52.8522 70.0513H57.2475C57.6769 70.0513 58.0283 70.4079 58.0283 70.8441C58.0283 71.2806 57.6769 71.6249 57.2479 71.6249H53.7132V73.255H56.7368C57.1673 73.255 57.5187 73.6117 57.5187 74.0478C57.5187 74.4843 57.1673 74.8287 56.7368 74.8287H53.7132V76.5167H57.304C57.7341 76.5167 58.0855 76.8733 58.0855 77.3094C58.0855 77.7459 57.7341 78.0899 57.3036 78.0899H52.8522C52.7375 78.0908 52.6237 78.0685 52.5175 78.0243C52.4113 77.9802 52.3149 77.9151 52.2337 77.8329C52.1526 77.7506 52.0884 77.6528 52.0449 77.5451C52.0013 77.4375 51.9793 77.3221 51.9802 77.2058M59.1107 77.2054V70.9355C59.1098 70.8191 59.1318 70.7038 59.1753 70.5961C59.2189 70.4885 59.2831 70.3907 59.3642 70.3084C59.4454 70.2261 59.5418 70.161 59.648 70.1169C59.7542 70.0728 59.8679 70.0505 59.9827 70.0513H64.378C64.8074 70.0513 65.1588 70.4079 65.1588 70.8441C65.1588 71.2806 64.8074 71.6249 64.3784 71.6249H60.8437V73.255H63.8683C64.2978 73.255 64.6491 73.6117 64.6491 74.0478C64.6491 74.4843 64.2978 74.8287 63.8687 74.8287H60.8437V76.5167H64.4344C64.8646 76.5167 65.216 76.8733 65.216 77.3094C65.216 77.7459 64.8646 78.0899 64.4341 78.0899H59.9827C59.8679 78.0908 59.7542 78.0685 59.648 78.0243C59.5418 77.9802 59.4454 77.9151 59.3642 77.8329C59.2831 77.7506 59.2189 77.6528 59.1753 77.5451C59.1318 77.4375 59.1098 77.3221 59.1107 77.2058" fill="black"/>
</g>
</g>
<defs>
<clipPath id="clip0_2005_1672">
<rect width="79.2348" height="80.3353" fill="white" transform="translate(11.1855 9.82959)"/>
</clipPath>
</defs>
</svg>
