<svg width="101" height="100" viewBox="0 0 101 100" fill="none" xmlns="http://www.w3.org/2000/svg">
<circle cx="50.4004" cy="50" r="50" fill="#F5F2EC"/>
<g clip-path="url(#clip0_2005_1660)">
<mask id="mask0_2005_1660" style="mask-type:luminance" maskUnits="userSpaceOnUse" x="10" y="9" width="81" height="82">
<path d="M10.3174 9.37878H90.489V90.6194H10.3174V9.37878Z" fill="white"/>
</mask>
<g mask="url(#mask0_2005_1660)">
<path d="M50.1929 22.9273C35.224 22.9287 23.0905 35.1248 23.0919 50.1682C23.0934 65.2116 35.229 77.4055 50.1979 77.404C65.1668 77.4026 77.3003 65.2065 77.2989 50.1631C77.2805 35.127 65.1546 22.9428 50.1929 22.9273ZM50.1929 79.9603C33.8194 79.9643 20.5429 66.6282 20.5389 50.1732C20.5349 33.7183 33.805 20.3756 50.1785 20.3717C66.5519 20.3677 79.8285 33.7038 79.8325 50.1588V50.1635C79.8159 66.609 66.557 79.9383 50.1929 79.9603ZM12.0335 40.6254L11.4932 42.6885L10.3174 42.3768L11.7392 36.984L12.9151 37.2957L12.368 39.3413L18.0057 40.8393L17.67 42.1235L12.0335 40.6254ZM12.6785 34.6829L13.2046 33.457L19.6857 36.267L19.1596 37.4925L12.6785 34.6829ZM16.367 30.0016L15.2455 31.816L14.2173 31.1685L17.1543 26.4221L18.1879 27.0649L17.0715 28.8695L22.0342 31.9691L21.3359 33.1016L16.367 30.0016ZM22.5553 26.2592L23.9033 24.771L21.2383 23.7029L22.5553 26.2592ZM26.8352 25.9823L24.9953 25.2407L23.1308 27.2973L24.051 29.062L23.1114 30.0954L19.6972 23.3178L20.7254 22.1806L27.7748 24.949L26.8352 25.9823ZM33.4939 20.8158L32.4657 21.5374L26.8475 19.4411L26.8378 19.4462L29.6912 23.5053L28.6431 24.2469L24.58 18.4476L25.6428 17.6962L31.1721 19.7477L31.1771 19.7441L28.3824 15.7581L29.4304 15.0165L33.4939 20.8158ZM32.3861 13.5655L33.5886 13.0013L36.5738 19.427L35.3713 19.9913L32.3861 13.5655ZM37.6287 15.892L36.482 11.7193L37.7511 11.3631L38.9169 15.5507C39.1924 16.5641 39.9058 17.0042 40.8058 16.757C41.7159 16.5001 42.134 15.7386 41.8502 14.7251L40.6942 10.5376L41.9723 10.1818L43.1248 14.3545C43.5821 16.0057 42.8395 17.4693 41.1325 17.9489C39.4398 18.4194 38.0922 17.5435 37.6297 15.8924M46.5274 16.596L45.2532 16.6206L46.1485 9.50642L47.7227 9.47675L49.4726 14.5047H49.4823L50.9744 9.40725L52.5439 9.37866L53.7197 16.4483L52.4358 16.4729L51.6533 11.2415H51.6237L50.0546 16.5218L48.9083 16.5464L47.1374 11.3602L47.1079 11.3653L46.5274 16.596ZM59.6271 16.5641L60.2862 16.7813C61.6389 17.2214 62.8392 16.7317 63.3016 15.3227C63.759 13.8938 63.0755 12.7913 61.7325 12.3512L61.0587 12.1341L59.6271 16.5641ZM64.5971 15.7386C63.9279 17.7802 62.0145 18.6405 59.8547 17.9337L57.9852 17.3256L60.1745 10.5575L62.044 11.1655C64.2333 11.8825 65.2565 13.7016 64.5971 15.7386ZM65.0422 19.9884L68.2824 13.6596L69.4669 14.272L66.2267 20.6008L65.0422 19.9884ZM74.4801 22.0076C75.4197 20.7716 75.0948 19.3872 74.1847 18.6952C73.2599 17.9782 71.8629 18.0376 70.9233 19.2688C69.9686 20.5179 70.2927 21.8932 71.2183 22.6008C72.1233 23.2979 73.5401 23.2483 74.4797 22.0076M69.8508 18.448C70.9802 16.8446 73.1889 16.465 74.7844 17.6C74.8344 17.6358 74.8841 17.6731 74.9324 17.7115C76.4976 18.8743 76.8282 21.0923 75.671 22.6652C75.6314 22.7192 75.59 22.7716 75.5475 22.8234C74.2535 24.5191 72.0902 24.8209 70.4756 23.5798C68.9029 22.4166 68.5662 20.1925 69.7233 18.6116C69.7644 18.5558 69.8069 18.5012 69.8508 18.448ZM77.9673 25.5133L79.1612 21.4495L80.1548 22.6298L79.2692 25.5578L82.2652 25.1177L83.2441 26.2795L79.0664 26.8086L77.8722 30.922L76.8786 29.7504L77.7689 26.7743L74.7286 27.2086L73.7446 26.0417L77.9673 25.5133ZM84.4754 28.3961L85.1676 29.5333L79.128 33.2163L78.4438 32.0791L84.4754 28.3961ZM81.8294 35.727L82.0851 36.3698C82.6163 37.6996 83.7576 38.308 85.1154 37.7542C86.4929 37.1954 86.906 35.9645 86.3798 34.6496L86.1191 33.9981L81.8294 35.727ZM85.6271 39.0145C83.6496 39.8154 81.7736 38.8911 80.9291 36.7748L80.1962 34.9507L86.749 32.3057L87.4757 34.1349C88.3318 36.2703 87.6036 38.2186 85.626 39.0145M89.6924 40.6663L90.489 44.8687L89.3085 45.096L88.7575 42.2038L87.0749 42.5252L87.5719 45.1753L86.4799 45.3878L85.9682 42.738L84.1826 43.0841L84.7286 45.9773L83.548 46.2046L82.7557 42.0022L89.6924 40.6663ZM56.155 82.9865L60.2822 81.9778L60.5628 83.1493L57.7241 83.8464L58.1275 85.5113L60.7288 84.8797L60.9895 85.9673L58.3922 86.6051L58.8244 88.3749L61.658 87.6829L61.9432 88.8545L57.8156 89.8679L56.155 82.9865ZM50.1594 83.4935L54.4245 83.2366L54.4966 84.448L51.5546 84.626L51.6626 86.3514L54.3536 86.1881L54.4177 87.3152L51.7267 87.4734L51.8398 89.3076L54.7717 89.1296L54.8437 90.341L50.5786 90.5979L50.1594 83.4935ZM45.4156 86.575C46.3649 86.6985 46.8864 86.3329 46.97 85.6507C47.0636 84.9586 46.6059 84.4986 45.7401 84.39L45.0022 84.2912L44.7119 86.4813L45.4156 86.575ZM48.0086 90.6193L46.3999 90.4068L44.6582 87.5345L44.5794 87.5247L44.2498 90.1252L42.9267 89.9522L43.8465 82.9068L45.9371 83.1786C47.6197 83.4012 48.5002 84.3604 48.318 85.7484C48.1948 86.6894 47.5505 87.553 46.1042 87.642L48.0086 90.6193ZM38.2405 81.2604L42.2302 82.5312L41.8614 83.693L39.1459 82.8279L38.5358 84.736L41.1037 85.5518L40.7543 86.6641L38.1912 85.8483L37.3697 88.4339L36.1006 88.0336L38.2405 81.2604Z" fill="black"/>
<path d="M38.5326 59.3052H35.2554V41.8673H31.3799V38.9262H42.4132V41.8673H38.5326V59.3052ZM48.4639 42.5101H45.2774V38.9603H48.4639V42.5101ZM48.4408 59.3078H45.2529V44.5221H48.4408V59.3078ZM57.3302 56.653C58.7567 56.653 59.4752 55.8669 59.4752 54.2946V43.9339C59.4752 42.3617 58.7571 41.5756 57.3302 41.5756C55.9184 41.5756 55.2133 42.3617 55.2147 43.9339V54.2964C55.2147 55.8687 55.9199 56.6548 57.3302 56.6548M51.909 54.1234V44.1069C51.909 42.3617 52.3797 41.0135 53.3207 40.0627C54.2571 39.1133 55.5896 38.6338 57.3302 38.6338C59.0816 38.6338 60.4342 39.1133 61.3692 40.0627C62.3041 41.0121 62.7719 42.3617 62.7719 44.1069V54.1234C62.7719 55.8687 62.3037 57.2183 61.3551 58.1677C60.4065 59.117 59.0675 59.5966 57.3309 59.5966C55.5943 59.5966 54.2564 59.1221 53.3215 58.1677C52.3865 57.2133 51.9097 55.8687 51.9097 54.1234M70.5293 62.879H65.2457V61.7208C65.2313 61.0416 65.3833 60.3693 65.6883 59.7631C66.1039 59.0668 66.6266 58.4412 67.2369 57.9093C67.7542 57.4642 68.2196 56.9617 68.6242 56.4112C68.8766 56.0126 69.0082 55.5489 69.0031 55.0764C69.0031 54.2556 68.6537 53.8458 67.9453 53.8458C67.2074 53.8458 66.8386 54.2559 66.8386 55.0764V55.9812H65.2605V55.122C65.218 54.3771 65.469 53.6454 65.9592 53.0851C66.2256 52.8291 66.542 52.6314 66.8883 52.5047C67.2347 52.3779 67.6034 52.3247 67.9713 52.3485C68.3386 52.324 68.7071 52.3744 69.0546 52.4967C69.4021 52.6191 69.7213 52.8108 69.9931 53.0604C70.2343 53.326 70.4203 53.6372 70.5403 53.9759C70.6603 54.3146 70.7118 54.674 70.6918 55.033C70.6921 55.6935 70.5081 56.341 70.1606 56.9016C69.6469 57.665 69.0312 58.3537 68.3307 58.9484C67.9065 59.3076 67.5311 59.7213 67.2142 60.1789C67.0165 60.4942 66.9124 60.8596 66.9143 61.2322V61.3806H70.5301L70.5293 62.879Z" fill="black"/>
<path d="M38.5326 59.3052H35.2554V41.8673H31.3799V38.9262H42.4132V41.8673H38.5326V59.3052ZM48.4639 42.5101H45.2774V38.9603H48.4639V42.5101ZM48.4408 59.3078H45.2529V44.5221H48.4408V59.3078ZM57.3302 56.653C58.7567 56.653 59.4752 55.8669 59.4752 54.2946V43.9339C59.4752 42.3617 58.7571 41.5756 57.3302 41.5756C55.9184 41.5756 55.2133 42.3617 55.2147 43.9339V54.2964C55.2147 55.8687 55.9199 56.6548 57.3302 56.6548M51.909 54.1234V44.1069C51.909 42.3617 52.3797 41.0135 53.3207 40.0627C54.2571 39.1133 55.5896 38.6338 57.3302 38.6338C59.0816 38.6338 60.4342 39.1133 61.3692 40.0627C62.3041 41.0121 62.7719 42.3617 62.7719 44.1069V54.1234C62.7719 55.8687 62.3037 57.2183 61.3551 58.1677C60.4065 59.117 59.0675 59.5966 57.3309 59.5966C55.5943 59.5966 54.2564 59.1221 53.3215 58.1677C52.3865 57.2133 51.9097 55.8687 51.9097 54.1234M70.5293 62.879H65.2457V61.7208C65.2313 61.0416 65.3833 60.3693 65.6883 59.7631C66.1039 59.0668 66.6266 58.4412 67.2369 57.9093C67.7542 57.4642 68.2196 56.9617 68.6242 56.4112C68.8766 56.0126 69.0082 55.5489 69.0031 55.0764C69.0031 54.2556 68.6537 53.8458 67.9453 53.8458C67.2074 53.8458 66.8386 54.2559 66.8386 55.0764V55.9812H65.2605V55.122C65.218 54.3771 65.469 53.6454 65.9592 53.0851C66.2256 52.8291 66.542 52.6314 66.8883 52.5047C67.2347 52.3779 67.6034 52.3247 67.9713 52.3485C68.3386 52.324 68.7071 52.3744 69.0546 52.4967C69.4021 52.6191 69.7213 52.8108 69.9931 53.0604C70.2343 53.326 70.4203 53.6372 70.5403 53.9759C70.6603 54.3146 70.7118 54.674 70.6918 55.033C70.6921 55.6935 70.5081 56.341 70.1606 56.9016C69.6469 57.665 69.0312 58.3537 68.3307 58.9484C67.9065 59.3076 67.5311 59.7213 67.2142 60.1789C67.0165 60.4942 66.9124 60.8596 66.9143 61.2322V61.3806H70.5301L70.5293 62.879Z" fill="black"/>
<path d="M28.9543 69.1208L27.3604 67.1382L71.4337 31.2156L73.0276 33.1982L28.9543 69.1208Z" fill="black"/>
</g>
</g>
<defs>
<clipPath id="clip0_2005_1660">
<rect width="80.1716" height="81.2406" fill="white" transform="translate(10.3174 9.37866)"/>
</clipPath>
</defs>
</svg>
