<svg width="101" height="100" viewBox="0 0 101 100" fill="none" xmlns="http://www.w3.org/2000/svg">
<circle cx="50.8004" cy="50" r="50" fill="#24C433"/>
<g clip-path="url(#clip0_2127_3261)">
<mask id="mask0_2127_3261" style="mask-type:luminance" maskUnits="userSpaceOnUse" x="1" y="0" width="100" height="100">
<path d="M1.4296 0H100.096V100H1.4296V0Z" fill="white"/>
</mask>
<g mask="url(#mask0_2127_3261)">
<path d="M5.14921 7.6264C5.82437 10.8301 5.67809 14.1319 5.54261 17.1203C5.41343 20.0778 5.28425 22.8759 6.02197 24.8124C7.07256 27.691 8.6646 30.3417 10.7121 32.6214C11.7084 33.705 12.4018 35.0319 12.7226 36.4685C13.0434 37.9052 12.9803 39.401 12.5395 40.8055C5.45168 63.5237 18.1209 87.6869 40.8378 94.7748C41.6333 95.0233 42.4359 95.2484 43.2445 95.4501C64.2596 100.836 85.4529 89.9777 93.6363 69.6249C102.545 47.4644 92.7572 24.0561 70.3657 13.9658C68.6793 13.2137 66.9453 12.5729 65.1751 12.0477C64.9346 11.9784 64.7139 11.8531 64.5311 11.6821C64.3483 11.511 64.2087 11.2991 64.1236 11.0637C64.0364 10.8294 64.0065 10.5777 64.0364 10.3296C64.0663 10.0814 64.1552 9.84399 64.2956 9.63719C65.4828 7.7978 66.2262 5.70751 66.4669 3.53146C62.3238 4.22295 58.1309 4.57254 53.9305 4.57669C47.6591 4.71803 42.7093 4.82246 35.9465 9.16364C26.3979 15.2757 24.6335 23.1829 24.6146 23.2567C24.5346 23.6277 24.3258 23.9584 24.0254 24.1902C23.7249 24.4221 23.3521 24.5401 22.973 24.5234C22.5948 24.5028 22.2364 24.3477 21.9624 24.0862C21.6884 23.8246 21.5168 23.4738 21.4787 23.0969C20.2184 10.6577 9.73085 8.13686 5.14876 7.6264M54.0471 100C50.1353 99.9966 46.2394 99.5008 42.4514 98.5245C17.6658 92.3274 2.59665 67.209 8.79328 42.4215C9.00888 41.5586 9.24969 40.702 9.5148 39.8525C9.78849 38.9822 9.82804 38.055 9.62946 37.1645C9.43089 36.274 9.00121 35.4515 8.38368 34.7799C6.05978 32.2013 4.25028 29.2022 3.05261 25.944C2.08758 23.3859 2.22261 20.2745 2.37655 16.9795C2.53634 13.413 2.70243 9.72406 1.52135 6.45288C1.437 6.21482 1.41028 5.96015 1.44338 5.70976C1.47647 5.45937 1.56844 5.22039 1.71174 5.01242C1.85442 4.80396 2.0449 4.63266 2.26728 4.51285C2.48966 4.39303 2.73749 4.32818 2.99005 4.32371H3.02111C3.8511 4.32371 19.013 4.53257 23.5257 17.5989C25.2902 14.383 28.512 10.1526 34.2239 6.48799C41.7501 1.67462 47.3576 1.55128 53.8567 1.40453C57.7857 1.31856 62.2287 1.21998 67.8073 0.0334003C68.0307 -0.0128805 68.2614 -0.0110453 68.4841 0.0387838C68.7068 0.0886128 68.9163 0.185293 69.0987 0.322392C69.2808 0.459462 69.4311 0.634298 69.5393 0.834913C69.6476 1.03553 69.7111 1.25718 69.7257 1.48466C69.7951 4.29547 69.1917 7.08216 67.9657 9.61243C69.2242 10.041 70.4614 10.5293 71.6733 11.0758C95.6703 21.8856 106.147 47.0093 96.5741 70.8057C89.3067 88.8955 72.4421 100 54.0462 100" fill="#F5F2ED"/>
<path d="M16.9839 42.6259C16.7524 42.6254 16.5236 42.5751 16.3133 42.4782C15.9318 42.2986 15.6373 41.9748 15.4944 41.5781C15.3515 41.1814 15.372 40.7442 15.5512 40.3626C18.6682 33.6788 28.4243 30.9096 37.0335 28.4644C39.3516 27.8004 41.5589 27.1729 43.47 26.509C51.4027 23.7429 55.2822 19.5925 58.3934 16.2615L58.7804 15.8564C59.0683 15.5489 59.4664 15.3685 59.8873 15.3546C60.3082 15.3408 60.7173 15.4947 61.0247 15.7825C61.3321 16.0704 61.5125 16.4685 61.5264 16.8895C61.5402 17.3104 61.3863 17.7195 61.0985 18.0269L60.7114 18.4321C57.539 21.8325 53.1856 26.4869 44.5165 29.5056C42.555 30.1943 40.2801 30.8398 37.8946 31.5164C30.3382 33.6608 20.9377 36.3419 18.4166 41.7098C18.2902 41.9834 18.088 42.215 17.8342 42.3773C17.5803 42.5396 17.2853 42.6259 16.9839 42.6259Z" fill="#F5F2ED"/>
<path d="M22.7162 36.8822C22.3988 36.8826 22.0887 36.7877 21.8258 36.6099C21.5629 36.4322 21.3594 36.1796 21.2416 35.8849C21.1238 35.5903 21.097 35.267 21.1648 34.957C21.2326 34.6469 21.3919 34.3644 21.622 34.1458C23.0731 32.7625 24.4441 30.6162 26.0366 28.1324C30.278 21.5166 36.0889 12.4593 49.1226 10.1366C49.3275 10.0975 49.5382 10.0998 49.7422 10.1432C49.9462 10.1867 50.1395 10.2704 50.3107 10.3895C50.482 10.5086 50.6277 10.6607 50.7394 10.8369C50.8512 11.013 50.9266 11.2097 50.9613 11.4154C51.0355 11.8306 50.9417 12.2582 50.7008 12.6043C50.4598 12.9503 50.0913 13.1866 49.6762 13.261C38.0131 15.3393 32.8544 23.3892 28.7102 29.8506C27.007 32.5064 25.5379 34.794 23.8099 36.442C23.5164 36.7259 23.1241 36.8847 22.7157 36.8849M16.5123 44.3901C16.3667 44.3907 16.2217 44.3699 16.082 44.3285C15.8817 44.2721 15.6944 44.1767 15.5309 44.0479C15.3673 43.9191 15.2308 43.7594 15.129 43.5778C15.0272 43.3962 14.9622 43.1964 14.9377 42.9897C14.9132 42.7829 14.9296 42.5734 14.986 42.3731C14.986 42.3713 14.9874 42.369 14.9878 42.3672C18.2151 31.0101 13.7397 21.1416 11.7471 18.2945C11.6218 18.1249 11.5316 17.9319 11.4819 17.7269C11.4321 17.522 11.4238 17.3092 11.4574 17.1009C11.491 16.8927 11.5659 16.6933 11.6776 16.5144C11.7893 16.3355 11.9356 16.1807 12.1079 16.0591C12.2802 15.9375 12.475 15.8516 12.681 15.8063C12.887 15.761 13.0999 15.7573 13.3073 15.7954C13.5147 15.8335 13.7125 15.9127 13.8889 16.0282C14.0653 16.1437 14.2169 16.2934 14.3347 16.4683C17.1254 20.4345 21.4851 31.133 18.0359 43.24C17.9408 43.5711 17.7407 43.8624 17.4656 44.0697C17.1905 44.2771 16.8555 44.3894 16.511 44.3897M40.2884 60.8757H36.5255V35.0074H41.7701L47.0148 51.2341V35.0074H50.8204V60.8757H46.5349L40.2884 41.5128V60.8757ZM62.5709 57.5118C64.397 57.5118 65.3008 56.5156 65.3008 54.5174V41.3652C65.3008 39.367 64.397 38.3708 62.5709 38.3708C60.775 38.3708 59.8779 39.3688 59.8779 41.3652V54.5174C59.8779 56.5156 60.7754 57.514 62.5709 57.5118ZM55.66 54.296V41.5862C55.66 39.3666 56.2627 37.6569 57.4554 36.4456C58.6482 35.2343 60.3573 34.6378 62.5709 34.6378C64.8088 34.6378 66.5364 35.2406 67.7291 36.4456C68.9219 37.6506 69.5188 39.3661 69.5188 41.5862V54.296C69.5188 56.5156 68.9102 58.2253 67.7048 59.4303C66.4994 60.6353 64.7845 61.2444 62.5709 61.2444C60.3573 61.2444 58.6482 60.6416 57.4554 59.4303C56.2627 58.219 55.66 56.5156 55.66 54.296ZM28.1085 66.5011L27.1061 72.3305H29.1167L28.1085 66.5011ZM31.7422 76.2778H29.7874L29.4061 73.9906H26.8166L26.4169 76.2778H24.6345L26.8851 64.5214H29.4723L31.7422 76.2778ZM34.779 66.2121V74.5744H35.9786C36.7964 74.5744 37.2146 74.1315 37.2146 73.2339V67.5527C37.2146 66.6609 36.796 66.2121 35.9786 66.2121H34.779ZM36.0213 76.2715H32.8611V64.5151H36.0209C38.0747 64.5151 39.1014 65.5459 39.1019 67.608V73.1664C39.1019 75.237 38.0752 76.2724 36.0213 76.2724M42.551 66.2121V74.5744H43.756C44.5738 74.5744 44.9857 74.1315 44.9857 73.2339V67.5527C44.9857 66.6609 44.5738 66.2121 43.756 66.2121H42.551ZM43.7929 76.2715H40.6327V64.5151H43.7924C45.8526 64.5151 46.8815 65.5459 46.8793 67.608V73.1664C46.8793 75.237 45.8503 76.2724 43.7929 76.2724M48.4101 64.5187H50.3284V76.2751H48.4101V64.5187ZM55.6352 76.2746H53.7353V66.2153H51.4848V64.5183H57.8853V66.2153H55.6348L55.6352 76.2746ZM59.0407 64.5187H60.9591V76.2751H59.0407V64.5187ZM66.7727 76.2571H64.2521L62.1186 64.5192H64.054L65.5799 73.8898L67.1476 64.5192H68.9246L66.7727 76.2571ZM75.7068 76.2746H70.0625V64.5178H75.7068V66.2148H71.98V69.3694H74.9682V71.0665H71.9795V74.5776H75.7064L75.7068 76.2746ZM76.6494 73.3879V72.7973H78.4444V73.4554C78.4444 74.3408 78.8562 74.7838 79.6862 74.7838C79.8532 74.7929 80.0201 74.7663 80.1759 74.7058C80.3318 74.6454 80.473 74.5524 80.5901 74.4331C80.8238 74.1559 80.9406 73.7987 80.9159 73.4369C80.9332 72.9964 80.7961 72.5637 80.5284 72.2134C80.0973 71.7409 79.6004 71.333 79.0529 71.0021C78.3271 70.5814 77.6968 70.0142 77.2021 69.3366C76.8456 68.7458 76.6664 68.065 76.6858 67.3753C76.6631 66.9706 76.7221 66.5654 76.8595 66.1841C76.9968 65.8027 77.2097 65.4529 77.4852 65.1557C77.7872 64.8756 78.1429 64.6599 78.5308 64.5215C78.9186 64.383 79.3306 64.3248 79.7416 64.3503C80.1485 64.324 80.5564 64.3813 80.9403 64.5188C81.3241 64.6563 81.6757 64.8711 81.9732 65.1498C82.2443 65.4565 82.4523 65.8137 82.5851 66.201C82.718 66.5882 82.7731 66.9978 82.7474 67.4064V67.8115H80.947V67.3559C80.947 66.4642 80.554 66.0154 79.761 66.0154C79.6011 66.0054 79.4409 66.0298 79.2913 66.0871C79.1417 66.1445 79.0063 66.2333 78.8941 66.3476C78.6704 66.6154 78.5577 66.9586 78.579 67.3069C78.5718 67.7215 78.7086 68.1261 78.9661 68.4507C79.4167 68.9066 79.9251 69.3015 80.4784 69.6251C81.2145 70.0455 81.8471 70.6253 82.3297 71.3222C82.6822 71.9411 82.8567 72.6454 82.8338 73.3573C82.8572 73.7719 82.7968 74.1871 82.6563 74.5779C82.5158 74.9688 82.298 75.3274 82.016 75.6323C81.7047 75.9154 81.3397 76.1331 80.9427 76.2726C80.5456 76.412 80.1247 76.4702 79.7047 76.4439C79.2925 76.4712 78.8792 76.4139 78.49 76.2754C78.1009 76.1369 77.7442 75.9202 77.442 75.6386C77.1664 75.3353 76.9543 74.9799 76.8181 74.5933C76.6819 74.2068 76.6244 73.797 76.6489 73.3879" fill="#F5F2ED"/>
<path d="M15.3064 60.5121C14.9201 60.5134 14.5467 60.3732 14.2567 60.1181C13.9668 59.8629 13.7802 59.5103 13.7324 59.127C13.5016 57.3718 13.3866 55.6032 13.388 53.8329C13.3683 50.0852 13.8669 46.3528 14.8698 42.7418C14.9879 42.3399 15.2587 42.0003 15.6242 41.7958C15.9897 41.5912 16.4208 41.538 16.8251 41.6475C17.2284 41.7598 17.5706 42.0277 17.7764 42.3923C17.9822 42.7569 18.0347 43.1883 17.9224 43.5917L17.9193 43.6029C16.9988 46.9351 16.5396 50.3777 16.5546 53.8347C16.5568 55.4673 16.6635 57.0978 16.8741 58.7169C16.9015 58.9236 16.8879 59.1337 16.8341 59.3351C16.7803 59.5366 16.6873 59.7254 16.5605 59.8909C16.4337 60.0564 16.2755 60.1953 16.095 60.2997C15.9145 60.404 15.7152 60.4717 15.5085 60.499L15.5031 60.4999C15.4356 60.5062 15.3681 60.5121 15.3064 60.5121Z" fill="#F5F2ED"/>
</g>
</g>
<defs>
<clipPath id="clip0_2127_3261">
<rect width="98.6667" height="100" fill="white" transform="translate(1.4296)"/>
</clipPath>
</defs>
</svg>
