<svg width="101" height="100" viewBox="0 0 101 100" fill="none" xmlns="http://www.w3.org/2000/svg">
<circle cx="50.1997" cy="50" r="50" fill="#24C433"/>
<g clip-path="url(#clip0_2127_3224)">
<mask id="mask0_2127_3224" style="mask-type:luminance" maskUnits="userSpaceOnUse" x="0" y="0" width="100" height="100">
<path d="M0.859955 7.62939e-06H99.5441V100H0.859955V7.62939e-06Z" fill="white"/>
</mask>
<g mask="url(#mask0_2127_3224)">
<path d="M49.9432 16.6771C31.5178 16.6789 16.5825 31.6912 16.5843 50.2083C16.5861 68.7254 31.524 83.735 49.9494 83.7332C68.3747 83.7314 83.31 68.7191 83.3082 50.202C83.2856 31.6939 68.3597 16.6963 49.9432 16.6771ZM49.9432 86.8798C29.7889 86.8847 13.4466 70.4691 13.4417 50.2145C13.4369 29.9599 29.7712 13.5363 49.9254 13.5314C70.0797 13.5265 86.422 29.9421 86.4269 50.1967V50.2025C86.4065 70.4455 70.0859 86.8526 49.9432 86.8798ZM2.97229 38.462L2.30733 41.0014L0.859955 40.6178L2.61011 33.9798L4.05749 34.3633L3.38411 36.8814L10.3236 38.7253L9.91039 40.306L2.97229 38.462ZM3.76624 31.1472L4.4139 29.6383L12.3916 33.0972L11.7439 34.6057L3.76624 31.1472ZM8.30653 25.385L6.92609 27.6184L5.66046 26.8213L9.27559 20.979L10.5479 21.7702L9.17363 23.9915L15.2823 27.8068L14.4228 29.2008L8.30653 25.385ZM15.9238 20.7785L17.5831 18.9466L14.3026 17.6319L15.9238 20.7785ZM21.192 20.4377L18.9271 19.5248L16.6322 22.0562L17.7648 24.2285L16.6082 25.5004L12.4057 17.1578L13.6714 15.7581L22.3485 19.1657L21.192 20.4377ZM29.3882 14.078L28.1225 14.9664L21.207 12.386L21.1951 12.3922L24.7073 17.3886L23.4173 18.3015L18.416 11.1631L19.7242 10.2382L26.5302 12.7634L26.5364 12.7589L23.0964 7.85252L24.3864 6.93967L29.3882 14.078ZM28.0246 5.15363L29.5048 4.45909L33.1793 12.3686L31.6991 13.0632L28.0246 5.15363ZM34.4777 8.01736L33.0662 2.8811L34.6284 2.44272L36.0634 7.59724C36.4025 8.84466 37.2807 9.3864 38.3885 9.08212C39.5087 8.76581 40.0234 7.82846 39.6741 6.58104L38.2511 1.42652L39.8244 0.988582L41.2429 6.12484C41.8059 8.15725 40.8918 9.95888 38.7906 10.5492C36.7071 11.1283 35.0482 10.0502 34.479 8.0178M45.4312 8.88387L43.8628 8.91416L44.9649 0.157264L46.9026 0.120733L49.0566 6.30973H49.0685L50.9051 0.0351951L52.837 0L54.2844 8.7021L52.704 8.7324L51.7407 2.29303H51.7044L49.7729 8.79254L48.3619 8.82283L46.1822 2.43915L46.1458 2.44539L45.4312 8.88387ZM61.5559 8.84466L62.3671 9.11197C64.0322 9.65371 65.5097 9.05093 66.0789 7.31657C66.6419 5.55771 65.8005 4.20069 64.1474 3.65895L63.318 3.39165L61.5559 8.84466ZM67.6734 7.82846C66.8498 10.3416 64.4945 11.4005 61.836 10.5305L59.5349 9.78201L62.2297 1.45102L64.5309 2.19947C67.2257 3.08202 68.4851 5.32114 67.6734 7.82846ZM68.2214 13.0596L72.2097 5.26946L73.6678 6.02326L69.6794 13.8134L68.2214 13.0596ZM79.8385 15.5451C80.9951 14.0237 80.5952 12.3196 79.475 11.4678C78.3366 10.5853 76.617 10.6583 75.4605 12.1739C74.2853 13.7114 74.6842 15.4043 75.8235 16.2753C76.9375 17.1333 78.6815 17.0723 79.8381 15.5451M74.1403 11.1635C75.5305 9.18993 78.2493 8.7226 80.2131 10.1197C80.2747 10.1638 80.3359 10.2097 80.3953 10.2569C82.3219 11.6883 82.7288 14.4184 81.3045 16.3546C81.2557 16.421 81.2048 16.4856 81.1525 16.5493C79.5597 18.6365 76.8968 19.008 74.9094 17.4804C72.9735 16.0485 72.5591 13.3109 73.9834 11.3649C74.0339 11.2963 74.0862 11.229 74.1403 11.1635ZM84.131 19.8603L85.6005 14.8581L86.8236 16.3109L85.7335 19.9151L89.4214 19.3733L90.6263 20.8034L85.484 21.4548L84.014 26.518L82.7909 25.0758L83.8867 21.4124L80.1444 21.947L78.9333 20.5107L84.131 19.8603ZM92.1419 23.4088L92.9939 24.8085L85.5598 29.342L84.7175 27.9422L92.1419 23.4088ZM88.885 32.4325L89.1997 33.2237C89.8536 34.8605 91.2584 35.6094 92.9296 34.9278C94.6253 34.2399 95.1337 32.7248 94.4861 31.1062L94.1651 30.3043L88.885 32.4325ZM93.5596 36.4791C91.1254 37.465 88.8163 36.3271 87.7767 33.7223L86.8746 31.4769L94.9405 28.2211L95.835 30.4727C96.8888 33.1012 95.9924 35.4994 93.5582 36.4791M98.5636 38.5124L99.5441 43.6852L98.091 43.9649L97.4128 40.4049L95.3416 40.8005L95.9534 44.0625L94.6093 44.324L93.9794 41.0624L91.7815 41.4883L92.4535 45.0497L91.0004 45.3295L90.0251 40.1567L98.5636 38.5124ZM57.282 90.6047L62.3622 89.3631L62.7076 90.8052L59.2135 91.6632L59.71 93.7125L62.9119 92.9351L63.2329 94.2739L60.0358 95.0589L60.5678 97.2374L64.0557 96.3856L64.4067 97.8277L59.3261 99.0751L57.282 90.6047ZM49.9019 91.2288L55.152 90.9125L55.2406 92.4036L51.6193 92.6228L51.7523 94.7466L55.0646 94.5456L55.1435 95.933L51.8312 96.1276L51.9704 98.3855L55.5793 98.1663L55.668 99.6574L50.4179 99.9737L49.9019 91.2288ZM44.0628 95.0219C45.2313 95.1738 45.8732 94.7238 45.9761 93.8841C46.0913 93.0323 45.5279 92.466 44.4622 92.3324L43.5539 92.2107L43.1966 94.9065L44.0628 95.0219ZM47.2545 100L45.2743 99.7385L43.1305 96.2029L43.0334 96.1909L42.6278 99.3919L40.9991 99.1789L42.1313 90.5067L44.7047 90.8412C46.7758 91.1152 47.8596 92.2958 47.6353 94.0044C47.4837 95.1627 46.6907 96.2257 44.9104 96.3353L47.2545 100ZM35.2309 88.4801L40.1418 90.0442L39.6878 91.4743L36.3453 90.4096L35.5944 92.7583L38.7551 93.7624L38.3251 95.1315L35.1701 94.1273L34.159 97.31L32.5968 96.8173L35.2309 88.4801Z" fill="#F5F2ED"/>
<path d="M35.591 61.455H31.5569V39.9904H26.7865V36.3702H40.3675V39.9904H35.591V61.455ZM47.8154 40.7816H43.8931V36.4121H47.8154V40.7816ZM47.7871 61.4581H43.863V43.2582H47.7871V61.4581ZM58.7291 58.1903C60.485 58.1903 61.3694 57.2227 61.3694 55.2874V42.5343C61.3694 40.599 60.4854 39.6313 58.7291 39.6313C56.9913 39.6313 56.1233 40.599 56.1251 42.5343V55.2896C56.1251 57.2249 56.9931 58.1925 58.7291 58.1925M52.056 55.0766V42.7472C52.056 40.599 52.6354 38.9395 53.7938 37.7691C54.9464 36.6006 56.5866 36.0103 58.7291 36.0103C60.8848 36.0103 62.5499 36.6006 63.7007 37.7691C64.8515 38.9377 65.4273 40.599 65.4273 42.7472V55.0766C65.4273 57.2249 64.8511 58.8862 63.6834 60.0547C62.5157 61.2233 60.8676 61.8136 58.73 61.8136C56.5924 61.8136 54.9455 61.2296 53.7947 60.0547C52.6439 58.8799 52.0569 57.2249 52.0569 55.0766M74.9761 65.8539H68.4724V64.4283C68.4547 63.5923 68.6418 62.7648 69.0172 62.0185C69.5287 61.1615 70.1721 60.3914 70.9234 59.7367C71.5601 59.1888 72.133 58.5702 72.631 57.8927C72.9416 57.402 73.1037 56.8312 73.0973 56.2497C73.0973 55.2393 72.6673 54.7349 71.7954 54.7349C70.887 54.7349 70.4331 55.2397 70.4331 56.2497V57.3634H68.4906V56.3058C68.4383 55.3889 68.7472 54.4882 69.3506 53.7985C69.6785 53.4834 70.068 53.2401 70.4943 53.0841C70.9206 52.928 71.3745 52.8626 71.8273 52.8919C72.2795 52.8616 72.7331 52.9237 73.1608 53.0743C73.5885 53.2249 73.9815 53.4609 74.316 53.7682C74.6129 54.095 74.8419 54.4781 74.9896 54.8951C75.1372 55.312 75.2006 55.7543 75.176 56.1962C75.1764 57.0093 74.9499 57.8062 74.5221 58.4964C73.8899 59.436 73.132 60.2837 72.2697 61.0157C71.7475 61.4579 71.2855 61.9672 70.8955 62.5304C70.6521 62.9184 70.524 63.3682 70.5262 63.8269V64.0095H74.9769L74.9761 65.8539Z" fill="#F5F2ED"/>
<path d="M35.591 61.455H31.5569V39.9904H26.7865V36.3702H40.3675V39.9904H35.591V61.455ZM47.8154 40.7816H43.8931V36.4121H47.8154V40.7816ZM47.7871 61.4581H43.863V43.2582H47.7871V61.4581ZM58.7291 58.1903C60.485 58.1903 61.3694 57.2227 61.3694 55.2874V42.5343C61.3694 40.599 60.4854 39.6313 58.7291 39.6313C56.9913 39.6313 56.1233 40.599 56.1251 42.5343V55.2896C56.1251 57.2249 56.9931 58.1925 58.7291 58.1925M52.056 55.0766V42.7472C52.056 40.599 52.6354 38.9395 53.7938 37.7691C54.9464 36.6006 56.5866 36.0103 58.7291 36.0103C60.8848 36.0103 62.5499 36.6006 63.7007 37.7691C64.8515 38.9377 65.4273 40.599 65.4273 42.7472V55.0766C65.4273 57.2249 64.8511 58.8862 63.6834 60.0547C62.5157 61.2233 60.8676 61.8136 58.73 61.8136C56.5924 61.8136 54.9455 61.2296 53.7947 60.0547C52.6439 58.8799 52.0569 57.2249 52.0569 55.0766M74.9761 65.8539H68.4724V64.4283C68.4547 63.5923 68.6418 62.7648 69.0172 62.0185C69.5287 61.1615 70.1721 60.3914 70.9234 59.7367C71.5601 59.1888 72.133 58.5702 72.631 57.8927C72.9416 57.402 73.1037 56.8312 73.0973 56.2497C73.0973 55.2393 72.6673 54.7349 71.7954 54.7349C70.887 54.7349 70.4331 55.2397 70.4331 56.2497V57.3634H68.4906V56.3058C68.4383 55.3889 68.7472 54.4882 69.3506 53.7985C69.6785 53.4834 70.068 53.2401 70.4943 53.0841C70.9206 52.928 71.3745 52.8626 71.8273 52.8919C72.2795 52.8616 72.7331 52.9237 73.1608 53.0743C73.5885 53.2249 73.9815 53.4609 74.316 53.7682C74.6129 54.095 74.8419 54.4781 74.9896 54.8951C75.1372 55.312 75.2006 55.7543 75.176 56.1962C75.1764 57.0093 74.9499 57.8062 74.5221 58.4964C73.8899 59.436 73.132 60.2837 72.2697 61.0157C71.7475 61.4579 71.2855 61.9672 70.8955 62.5304C70.6521 62.9184 70.524 63.3682 70.5262 63.8269V64.0095H74.9769L74.9761 65.8539Z" fill="#F5F2ED"/>
<path d="M23.7999 73.5374L21.8379 71.0969L76.0882 26.8794L78.0502 29.3199L23.7999 73.5374Z" fill="#F5F2ED"/>
</g>
</g>
<defs>
<clipPath id="clip0_2127_3224">
<rect width="98.6842" height="100" fill="white" transform="translate(0.859955)"/>
</clipPath>
</defs>
</svg>
