<svg width="100" height="100" viewBox="0 0 100 100" fill="none" xmlns="http://www.w3.org/2000/svg">
<circle cx="50" cy="50" r="50" fill="#F5F2EC"/>
<g clip-path="url(#clip0_2005_1649)">
<mask id="mask0_2005_1649" style="mask-type:luminance" maskUnits="userSpaceOnUse" x="12" y="9" width="76" height="82">
<path d="M12.3652 9.7868H87.6351V90.2122H12.3652V9.7868Z" fill="white"/>
</mask>
<g mask="url(#mask0_2005_1649)">
<path d="M70.4333 26.4706C68.5246 25.4158 66.3052 25.0853 64.1762 25.5387C61.095 26.1951 57.9677 27.3321 54.7861 27.1987C50.7061 27.0274 48.0258 22.6655 48.3017 18.822C48.371 17.8692 48.5987 16.935 48.9753 16.0585C52.6125 16.0299 56.8105 17.0858 59.774 18.3655C59.8304 18.3927 59.8948 18.3983 59.955 18.3811C60.0152 18.364 60.0672 18.3253 60.1012 18.2723C60.1352 18.2193 60.149 18.1556 60.14 18.0931C60.1309 18.0306 60.0996 17.9736 60.052 17.9327C57.1776 15.5256 53.7157 13.942 50.028 13.3472C51.0096 12.2098 52.225 11.3022 53.5896 10.6875C54.9541 10.0729 56.435 9.76599 57.929 9.78824C63.3097 9.70257 67.5074 15.339 69.6841 19.2636C71.7054 22.8977 70.881 25.4806 70.4333 26.4699" fill="black"/>
<path d="M80.0131 30.9994C108.852 72.7259 48.6678 114.133 18.9901 73.6866C4.31384 53.8556 15.2867 21.9141 39.4709 16.9285C9.96772 29.12 9.97703 71.9026 39.8337 82.4579C69.747 93.1367 96.3339 58.5741 80.0131 30.9994Z" fill="black"/>
<path d="M34.0325 50.9038H31.4743V33.1754H35.0362L38.5979 44.2919V33.1757H41.1847V50.9041H38.2681L34.0325 37.6327V50.9038ZM49.1572 48.5992C50.3964 48.5992 51.0173 47.9142 51.0197 46.5446V37.5303C51.0197 36.1649 50.3989 35.4817 49.1572 35.4803C47.9368 35.4803 47.326 36.1635 47.3243 37.5303V46.5439C47.3243 47.9135 47.9351 48.5985 49.1572 48.5985M44.4694 46.3966V37.6825C44.4694 36.1653 44.8747 34.9917 45.6849 34.1626C46.4951 33.3335 47.6526 32.9194 49.1572 32.9211C50.6789 32.9211 51.8427 33.3348 52.6577 34.1626C53.4728 34.9903 53.8732 36.1649 53.8732 37.6825V46.397C53.8732 47.9142 53.4634 49.0878 52.6436 49.9169C51.8237 50.7457 50.6617 51.1601 49.1572 51.1584C47.6543 51.1584 46.4968 50.7447 45.6849 49.9169C44.8729 49.0892 44.4677 47.916 44.4694 46.397M59.6926 50.9038H57.1337V33.1754H60.6964L64.2583 44.2919V33.1757H66.8452V50.9041H63.9286L59.6926 37.6327V50.9038ZM31.2491 68.5821V59.8457C31.2491 58.3284 31.6464 57.1549 32.4411 56.3258C33.2358 55.4966 34.3761 55.0826 35.8616 55.0843C37.3362 55.0843 38.4733 55.498 39.2729 56.3258C40.0776 57.1535 40.4801 58.3267 40.4801 59.8457V61.0871H37.7997V59.6942C37.7997 58.3288 37.1789 57.6455 35.9372 57.6442C34.7169 57.6442 34.106 58.3274 34.1043 59.6942V68.7057C34.1043 70.0753 34.7151 70.7603 35.9372 70.7603C37.1765 70.7603 37.7973 70.0753 37.7997 68.7057V65.696H36.0406V63.0877H40.4787V68.5821C40.4787 70.0854 40.0762 71.2506 39.2715 72.0783C38.4668 72.9061 37.3296 73.3198 35.8603 73.3198C34.3902 73.3198 33.253 72.9061 32.449 72.0783C31.645 71.2506 31.2449 70.0854 31.2491 68.5821ZM46.1978 73.0638H43.6912V55.3354H47.7244L50.085 68.3551L52.417 55.3357H56.4594V73.0642H53.7501V59.3362L51.1632 73.0642H48.7791L46.1978 59.3362V73.0638ZM64.4318 70.7606C65.6711 70.7606 66.2919 70.0757 66.2944 68.7061V59.6918C66.2944 58.3263 65.6735 57.6431 64.4318 57.6417C63.2115 57.6417 62.6006 58.325 62.5989 59.6918V68.7057C62.5989 70.0753 63.2098 70.7606 64.4318 70.7606ZM59.744 68.5584V59.8457C59.744 58.3284 60.1493 57.1549 60.9595 56.3258C61.7697 55.4966 62.9273 55.0822 64.4318 55.0826C65.9536 55.0826 67.1173 55.4963 67.9324 56.324C68.7474 57.1518 69.1479 58.3263 69.1479 59.8439V68.5584C69.1479 70.0757 68.7381 71.2492 67.9182 72.0783C67.0984 72.9071 65.9363 73.3215 64.4318 73.3198C62.929 73.3198 61.7715 72.9061 60.9595 72.0783C60.1476 71.2506 59.7423 70.0774 59.744 68.5584Z" fill="black"/>
</g>
</g>
<defs>
<clipPath id="clip0_2005_1649">
<rect width="75.2699" height="80.4254" fill="white" transform="translate(12.3652 9.78687)"/>
</clipPath>
</defs>
</svg>
