<svg width="101" height="100" viewBox="0 0 101 100" fill="none" xmlns="http://www.w3.org/2000/svg">
<circle cx="50.2002" cy="50" r="50" fill="#F5F2EC"/>
<g clip-path="url(#clip0_2005_1686)">
<mask id="mask0_2005_1686" style="mask-type:luminance" maskUnits="userSpaceOnUse" x="10" y="9" width="81" height="82">
<path d="M10.0488 9.84908H90.3448V90.145H10.0488V9.84908Z" fill="white"/>
</mask>
<g mask="url(#mask0_2005_1686)">
<path d="M50.1966 11.703C29.0812 11.703 11.9024 28.8819 11.9024 49.9973C11.9024 71.1127 29.0812 88.2911 50.1966 88.2911C71.312 88.2911 88.4908 71.1127 88.4908 49.9973C88.4908 28.8819 71.312 11.703 50.1966 11.703ZM50.1966 90.1451C28.0586 90.1451 10.0488 72.1349 10.0488 49.9973C10.0488 27.8597 28.0586 9.84912 50.1966 9.84912C72.3346 9.84912 90.3444 27.8593 90.3444 49.9969C90.3444 72.1341 72.3346 90.1447 50.1966 90.1447" fill="black"/>
<path d="M45.496 24.8453H54.8953V22.1456H45.496V24.8453ZM55.7782 26.6109H44.6131C44.4972 26.6109 44.3824 26.5881 44.2753 26.5438C44.1682 26.4995 44.0708 26.4345 43.9889 26.3525C43.9069 26.2705 43.8419 26.1732 43.7976 26.0661C43.7532 25.959 43.7304 25.8442 43.7305 25.7283V21.2626C43.7304 21.1467 43.7532 21.0319 43.7976 20.9247C43.8419 20.8176 43.9069 20.7203 43.9888 20.6383C44.0708 20.5563 44.1681 20.4912 44.2752 20.4469C44.3823 20.4025 44.4971 20.3796 44.6131 20.3796H55.7782C55.8942 20.3796 56.009 20.4024 56.1162 20.4468C56.2233 20.4911 56.3207 20.5561 56.4027 20.6381C56.4847 20.7201 56.5497 20.8175 56.5941 20.9246C56.6384 21.0318 56.6612 21.1466 56.6612 21.2626V25.7283C56.6612 25.8442 56.6384 25.9591 56.5941 26.0662C56.5497 26.1733 56.4847 26.2707 56.4027 26.3526C56.3207 26.4346 56.2233 26.4996 56.1161 26.5439C56.009 26.5882 55.8942 26.611 55.7782 26.6109ZM55.7782 53.5224H44.6131C42.8947 53.5224 41.4971 52.1248 41.4971 50.4064V44.8632C41.4971 44.629 41.5901 44.4044 41.7557 44.2388C41.9213 44.0732 42.1459 43.9802 42.38 43.9802C42.6142 43.9802 42.8388 44.0732 43.0044 44.2388C43.17 44.4044 43.263 44.629 43.263 44.8632V50.4068C43.2635 50.7647 43.4059 51.1078 43.659 51.3608C43.912 51.6139 44.2552 51.7563 44.6131 51.7568H55.7782C56.1362 51.7563 56.4794 51.6139 56.7325 51.3607C56.9855 51.1076 57.1279 50.7644 57.1283 50.4064V36.609C57.1283 36.3749 57.2213 36.1503 57.3869 35.9847C57.5525 35.8191 57.7771 35.7261 58.0113 35.7261C58.2454 35.7261 58.47 35.8191 58.6356 35.9847C58.8012 36.1503 58.8942 36.3749 58.8942 36.609V50.4068C58.8942 52.1252 57.4966 53.5224 55.7782 53.5224Z" fill="black"/>
<path d="M42.381 39.451C42.1468 39.451 41.9222 39.358 41.7566 39.1924C41.591 39.0268 41.498 38.8022 41.498 38.5681C41.498 29.7614 46.0417 25.279 46.2348 25.093C46.4035 24.9307 46.6296 24.8419 46.8637 24.8461C47.0978 24.8503 47.3206 24.9471 47.4835 25.1153C47.8213 25.4658 47.8117 26.0235 47.4627 26.3621C47.4203 26.403 43.2639 30.5516 43.2639 38.5681C43.2639 38.8022 43.1709 39.0268 43.0053 39.1924C42.8397 39.358 42.6152 39.451 42.381 39.451ZM56.5994 31.6387C56.4217 31.6386 56.2482 31.585 56.1015 31.4848C55.9548 31.3845 55.8417 31.2424 55.7769 31.077C54.5646 27.978 52.9476 26.3773 52.9316 26.3618C52.7633 26.1989 52.6666 25.9759 52.6627 25.7418C52.6589 25.5076 52.7482 25.2815 52.911 25.1132C53.0739 24.9449 53.2969 24.8482 53.531 24.8444C53.7652 24.8405 53.9912 24.9298 54.1595 25.0926C54.236 25.1669 56.058 26.9495 57.4218 30.4339C57.4743 30.5677 57.4933 30.7124 57.4772 30.8553C57.461 30.9982 57.4102 31.135 57.3291 31.2537C57.2481 31.3725 57.1392 31.4697 57.012 31.5368C56.8848 31.6039 56.7432 31.6389 56.5994 31.6387ZM31.7661 48.9757C31.5717 48.9759 31.3827 48.9118 31.2284 48.7936C31.0742 48.6753 30.9632 48.5094 30.9128 48.3217C30.8624 48.134 30.8754 47.9348 30.9497 47.7552C31.024 47.5756 31.1556 47.4255 31.3239 47.3283L68.1867 26.0454C68.3896 25.9285 68.6306 25.8968 68.8568 25.9575C69.083 26.0181 69.2759 26.1661 69.3931 26.3688C69.4511 26.4692 69.4887 26.5801 69.5039 26.695C69.519 26.81 69.5113 26.9268 69.4813 27.0388C69.4513 27.1508 69.3994 27.2558 69.3288 27.3478C69.2582 27.4397 69.1701 27.5169 69.0697 27.5748L32.2068 48.858C32.0728 48.9354 31.9208 48.976 31.7661 48.9757ZM24.999 59.3794C24.9982 59.2631 25.0205 59.1478 25.0646 59.0402C25.1087 58.9326 25.1738 58.8348 25.256 58.7526C25.3382 58.6704 25.436 58.6053 25.5436 58.5612C25.6512 58.5171 25.7665 58.4948 25.8828 58.4957C25.9991 58.4947 26.1144 58.5169 26.222 58.561C26.3297 58.6051 26.4275 58.6701 26.5097 58.7524C26.592 58.8346 26.657 58.9324 26.7011 59.0401C26.7452 59.1477 26.7674 59.2631 26.7665 59.3794V64.992H30.0377C30.1433 64.9914 30.2481 65.0117 30.3459 65.0519C30.4436 65.092 30.5324 65.1512 30.6071 65.226C30.6818 65.3007 30.741 65.3895 30.7811 65.4873C30.8212 65.5851 30.8415 65.6898 30.8408 65.7955C30.8415 65.9012 30.8212 66.006 30.7811 66.1037C30.741 66.2015 30.6818 66.2903 30.6071 66.3651C30.5324 66.4398 30.4436 66.499 30.3459 66.5392C30.2481 66.5793 30.1433 66.5997 30.0377 66.599H25.8828C25.7665 66.5999 25.6511 66.5777 25.5435 66.5336C25.4359 66.4895 25.3381 66.4244 25.2559 66.3422C25.1737 66.2599 25.1086 66.1622 25.0645 66.0546C25.0204 65.9469 24.9982 65.8316 24.999 65.7153V59.3794ZM36.2949 63.2357L35.1817 60.5846L34.0689 63.2357H36.2949ZM31.3254 65.4628L34.1257 59.1388C34.3214 58.7025 34.6768 58.4385 35.1587 58.4385H35.2619C35.7439 58.4385 36.0888 58.7025 36.2838 59.1388L39.0842 65.4628C39.1417 65.5887 39.1762 65.7042 39.1762 65.8189C39.1762 66.2897 38.809 66.6681 38.3382 66.6681C37.9253 66.6681 37.6494 66.4267 37.489 66.0595L36.9491 64.7971H33.4143L32.8522 66.1171C32.7036 66.4613 32.404 66.6681 32.0368 66.6681C31.5778 66.6681 31.2218 66.3009 31.2218 65.8412C31.2218 65.7153 31.2674 65.5887 31.3257 65.4628M39.2921 62.6045V62.5822C39.2921 60.2972 41.0131 58.4273 43.4815 58.4273C44.6857 58.4273 45.5014 58.7481 46.1672 59.242C46.3506 59.3794 46.511 59.6318 46.511 59.9423C46.511 60.4242 46.1211 60.8026 45.6384 60.8026C45.3978 60.8026 45.2367 60.7112 45.1108 60.631C44.6177 60.2638 44.1005 60.0566 43.4693 60.0566C42.1148 60.0566 41.1397 61.1809 41.1397 62.5592V62.5822C41.1397 63.959 42.0925 65.1064 43.4693 65.1064C44.2156 65.1064 44.7091 64.8773 45.2144 64.4755C45.362 64.351 45.5485 64.282 45.7417 64.2806C46.1895 64.2806 46.5689 64.6482 46.5689 65.0952C46.5689 65.3711 46.4308 65.5883 46.2704 65.7265C45.5471 66.3577 44.6979 66.7368 43.4125 66.7368C41.0473 66.7368 39.2921 64.9118 39.2921 62.6045ZM49.5201 60.1947H47.8217C47.6057 60.1939 47.3988 60.1076 47.2461 59.9548C47.0935 59.802 47.0074 59.595 47.0067 59.379C47.0067 58.9316 47.3743 58.5643 47.8217 58.5643H52.9866C53.4344 58.5643 53.8016 58.9319 53.8016 59.379C53.801 59.595 53.715 59.802 53.5624 59.9548C53.4098 60.1076 53.2029 60.1939 52.987 60.1947H51.2875V65.7844C51.2884 65.9007 51.2662 66.016 51.2221 66.1237C51.1781 66.2313 51.113 66.3291 51.0308 66.4114C50.9485 66.4936 50.8507 66.5587 50.7431 66.6027C50.6354 66.6468 50.5201 66.669 50.4038 66.6681C50.2875 66.6689 50.1722 66.6466 50.0646 66.6025C49.957 66.5584 49.8593 66.4934 49.777 66.4111C49.6948 66.3289 49.6297 66.2312 49.5856 66.1236C49.5415 66.016 49.5192 65.9007 49.5201 65.7844V60.1947ZM60.4877 62.6045V62.5822C60.4877 61.2047 59.4774 60.0566 58.0538 60.0566C56.6313 60.0566 55.644 61.1809 55.644 62.5592V62.5822C55.644 63.959 56.6536 65.1064 58.0772 65.1064C59.5004 65.1064 60.4877 63.9824 60.4877 62.6045ZM53.7964 62.6045V62.5822C53.7964 60.2972 55.5983 58.4273 58.0772 58.4273C60.5568 58.4273 62.3353 60.2749 62.3353 62.5588V62.5822C62.3353 64.8661 60.5334 66.7372 58.0538 66.7372C55.575 66.7372 53.7964 64.8884 53.7964 62.6045ZM63.1663 65.7499C62.9714 65.6117 62.8336 65.3592 62.8336 65.0841C62.8336 64.6248 63.2012 64.2695 63.6594 64.2695C63.8896 64.2695 64.05 64.3497 64.1647 64.4299C64.7737 64.8773 65.4391 65.1532 66.2192 65.1532C66.9425 65.1532 67.3788 64.8661 67.3788 64.3953V64.3719C67.3788 63.9245 67.1029 63.6954 65.7599 63.3508C64.1413 62.9376 63.0976 62.4902 63.0976 60.895V60.8716C63.0976 59.4139 64.2683 58.45 65.9099 58.45C66.8849 58.45 67.7341 58.7025 68.4574 59.1621C68.578 59.2345 68.6776 59.3372 68.7461 59.46C68.8147 59.5828 68.8498 59.7214 68.848 59.8621C68.848 60.3206 68.4808 60.6767 68.0211 60.6767C67.8631 60.6773 67.708 60.6334 67.5737 60.5501C66.9881 60.2063 66.4375 60.0113 65.8865 60.0113C65.2096 60.0113 64.8535 60.3206 64.8535 60.7112V60.7335C64.8535 61.2623 65.1977 61.4338 66.5864 61.7899C68.2164 62.215 69.1343 62.7998 69.1343 64.2004V64.2227C69.1343 65.8189 67.9179 66.7138 66.1846 66.7138C65.1286 66.7138 64.0611 66.3922 63.1663 65.7499ZM70.2137 65.7157V59.4481C70.2128 59.3318 70.2351 59.2165 70.2792 59.1089C70.3233 59.0013 70.3884 58.9035 70.4706 58.8213C70.5529 58.7391 70.6506 58.674 70.7582 58.6299C70.8658 58.5858 70.9811 58.5635 71.0974 58.5643H75.5516C75.9867 58.5643 76.3428 58.9208 76.3428 59.3567C76.3428 59.793 75.9867 60.1372 75.5519 60.1372H71.97V61.7665H75.0351C75.4702 61.7665 75.8263 62.1229 75.8263 62.5588C75.8263 62.9951 75.4702 63.3393 75.0355 63.3393H71.97V65.0266H75.6087C76.0447 65.0266 76.4007 65.383 76.4007 65.8189C76.4007 66.2552 76.0447 66.599 75.6084 66.599H71.0974C70.9811 66.5999 70.8658 66.5776 70.7582 66.5335C70.6506 66.4894 70.5529 66.4243 70.4706 66.3421C70.3884 66.2598 70.3233 66.1621 70.2792 66.0545C70.2351 65.9469 70.2128 65.8316 70.2137 65.7153M36.6142 70.9251C36.6134 70.8088 36.6357 70.6935 36.6798 70.5859C36.7239 70.4783 36.789 70.3806 36.8712 70.2984C36.9534 70.2161 37.0512 70.1511 37.1588 70.107C37.2664 70.0628 37.3817 70.0406 37.4979 70.0414H41.9978C42.4452 70.0414 42.8013 70.3979 42.8013 70.8453C42.8019 70.951 42.7815 71.0557 42.7413 71.1535C42.7012 71.2512 42.642 71.34 42.5673 71.4148C42.4925 71.4895 42.4037 71.5487 42.306 71.5888C42.2082 71.629 42.1035 71.6494 41.9978 71.6488H38.3813V73.3594H41.4813C41.587 73.3587 41.6917 73.379 41.7894 73.4191C41.8872 73.4592 41.976 73.5183 42.0507 73.5929C42.1255 73.6676 42.1847 73.7564 42.2248 73.8541C42.265 73.9518 42.2854 74.0565 42.2848 74.1621C42.2855 74.2679 42.2652 74.3727 42.2251 74.4705C42.1849 74.5683 42.1258 74.6571 42.051 74.7319C41.9763 74.8066 41.8874 74.8658 41.7896 74.9059C41.6918 74.946 41.587 74.9663 41.4813 74.9657H38.3816V77.2614C38.3826 77.3778 38.3605 77.4931 38.3164 77.6008C38.2723 77.7085 38.2073 77.8063 38.125 77.8885C38.0428 77.9708 37.945 78.0358 37.8373 78.0799C37.7296 78.124 37.6143 78.1461 37.4979 78.1451C37.3816 78.146 37.2663 78.1238 37.1587 78.0797C37.0511 78.0356 36.9533 77.9705 36.8711 77.8883C36.7888 77.8061 36.7238 77.7083 36.6797 77.6007C36.6356 77.493 36.6133 77.3777 36.6142 77.2614V70.9251ZM47.055 73.9449C47.9164 73.9449 48.4095 73.4853 48.4095 72.8087V72.7854C48.4095 72.0275 47.8819 71.6376 47.0204 71.6376H45.2642V73.9449H47.055ZM43.4968 70.9255C43.4959 70.8092 43.5182 70.6939 43.5623 70.5863C43.6064 70.4787 43.6715 70.381 43.7537 70.2987C43.8359 70.2165 43.9337 70.1514 44.0413 70.1073C44.1489 70.0632 44.2642 70.0409 44.3805 70.0418H47.1697C48.1912 70.0418 48.9835 70.3292 49.5112 70.8568C49.9586 71.305 50.2003 71.9362 50.2003 72.6929V72.7163C50.2003 73.9787 49.5691 74.7596 48.5929 75.1613L49.8208 76.6529C49.9931 76.8712 50.1078 77.0546 50.1078 77.3309C50.1078 77.824 49.695 78.1455 49.2698 78.1455C48.8681 78.1455 48.6044 77.9506 48.3984 77.6858L46.6766 75.5055H45.2642V77.2618C45.2651 77.3781 45.2429 77.4935 45.1988 77.6011C45.1547 77.7087 45.0897 77.8065 45.0074 77.8888C44.9252 77.971 44.8274 78.0361 44.7197 78.0802C44.6121 78.1242 44.4968 78.1465 44.3805 78.1455C44.2642 78.1464 44.1489 78.1241 44.0413 78.08C43.9337 78.0358 43.8359 77.9708 43.7537 77.8886C43.6715 77.8063 43.6064 77.7086 43.5623 77.601C43.5182 77.4934 43.4959 77.3781 43.4968 77.2618V70.9255ZM51.3729 77.1927V70.9251C51.372 70.8088 51.3943 70.6935 51.4384 70.5859C51.4826 70.4783 51.5476 70.3806 51.6298 70.2984C51.7121 70.2161 51.8098 70.1511 51.9174 70.107C52.025 70.0628 52.1403 70.0406 52.2566 70.0414H56.7108C57.1459 70.0414 57.5017 70.3979 57.5017 70.8341C57.5017 71.2704 57.1459 71.6146 56.7108 71.6146H53.1292V73.2439H56.1932C56.6295 73.2439 56.9855 73.6 56.9855 74.0363C56.9855 74.4726 56.6291 74.8168 56.1932 74.8168H53.1292V76.504H56.7676C57.2039 76.504 57.56 76.8601 57.56 77.2963C57.56 77.7326 57.2035 78.0761 56.7676 78.0761H52.2562C52.1399 78.0769 52.0246 78.0546 51.9171 78.0105C51.8095 77.9664 51.7117 77.9014 51.6295 77.8191C51.5472 77.7369 51.4822 77.6391 51.4381 77.5315C51.394 77.424 51.3717 77.3087 51.3725 77.1924M58.5985 77.1927V70.9251C58.5977 70.8088 58.6199 70.6935 58.6641 70.5859C58.7082 70.4783 58.7732 70.3806 58.8555 70.2984C58.9377 70.2161 59.0354 70.1511 59.143 70.107C59.2506 70.0628 59.3659 70.0406 59.4822 70.0414H63.9364C64.3716 70.0414 64.7276 70.3979 64.7276 70.8341C64.7276 71.2704 64.3716 71.6146 63.9368 71.6146H60.3548V73.2439H63.4199C63.8551 73.2439 64.2111 73.6 64.2111 74.0363C64.2111 74.4726 63.8551 74.8168 63.4203 74.8168H60.3548V76.504H63.9936C64.4295 76.504 64.7856 76.8601 64.7856 77.2963C64.7856 77.7326 64.4295 78.0761 63.9932 78.0761H59.4822C59.3659 78.0769 59.2506 78.0546 59.143 78.0105C59.0354 77.9664 58.9377 77.9014 58.8555 77.8191C58.7732 77.7369 58.7082 77.6391 58.6641 77.5315C58.6199 77.424 58.5977 77.309 58.5985 77.1927Z" fill="black"/>
</g>
</g>
<defs>
<clipPath id="clip0_2005_1686">
<rect width="80.2959" height="80.2959" fill="white" transform="translate(10.0488 9.84912)"/>
</clipPath>
</defs>
</svg>
