<svg width="100" height="100" viewBox="0 0 100 100" fill="none" xmlns="http://www.w3.org/2000/svg">
<circle cx="50" cy="50" r="50" fill="#F5F2EC"/>
<g clip-path="url(#clip0_2005_1709)">
<mask id="mask0_2005_1709" style="mask-type:luminance" maskUnits="userSpaceOnUse" x="9" y="9" width="82" height="82">
<path d="M9.84863 9.84908H90.1446V90.145H9.84863V9.84908Z" fill="white"/>
</mask>
<g mask="url(#mask0_2005_1709)">
<path d="M49.9964 11.703C28.881 11.703 11.7022 28.8819 11.7022 49.9973C11.7022 71.1127 28.881 88.2911 49.9964 88.2911C71.1118 88.2911 88.2906 71.1127 88.2906 49.9973C88.2906 28.8819 71.1118 11.703 49.9964 11.703ZM49.9964 90.1451C27.8584 90.1451 9.84863 72.1349 9.84863 49.9973C9.84863 27.8597 27.8584 9.84912 49.9964 9.84912C72.1344 9.84912 90.1442 27.8593 90.1442 49.9969C90.1442 72.1341 72.1344 90.1447 49.9964 90.1447" fill="black"/>
<path d="M30.778 50.7685C30.5836 50.7686 30.3946 50.7046 30.2403 50.5863C30.0861 50.4681 29.9751 50.3022 29.9247 50.1145C29.8743 49.9267 29.8873 49.7276 29.9616 49.548C30.0359 49.3684 30.1674 49.2183 30.3358 49.121L68.7755 26.9277C68.9784 26.8108 69.2194 26.7791 69.4456 26.8396C69.6717 26.9002 69.8647 27.0481 69.9819 27.2508C70.04 27.3512 70.0776 27.4621 70.0928 27.5771C70.108 27.6921 70.1003 27.8089 70.0703 27.921C70.0402 28.033 69.9884 28.1381 69.9178 28.2301C69.8471 28.322 69.759 28.3992 69.6585 28.4571L31.2187 50.6501C31.0848 50.7277 30.9328 50.7686 30.778 50.7685ZM59.3581 53.0543C59.2055 53.0543 59.0529 53.0153 58.9163 52.9366L50.7991 48.2503C50.6013 48.1307 50.4582 47.9383 50.4006 47.7145C50.343 47.4906 50.3755 47.253 50.4911 47.0528C50.6066 46.8526 50.7961 46.7056 51.0188 46.6435C51.2414 46.5814 51.4796 46.6091 51.6821 46.7205L59.3581 51.1521L66.5934 46.9756V38.6213L61.1385 35.4722C60.9456 35.3503 60.8074 35.1584 60.7527 34.9368C60.6981 34.7152 60.7313 34.4811 60.8454 34.2834C60.9595 34.0858 61.1457 33.9399 61.3649 33.8764C61.5841 33.8129 61.8194 33.8367 62.0215 33.9428L67.9178 37.3473C68.052 37.4248 68.1635 37.5362 68.241 37.6704C68.3185 37.8046 68.3593 37.9568 68.3593 38.1118V47.4854C68.3593 47.801 68.1911 48.0925 67.9174 48.2503L59.7996 52.9362C59.6653 53.0138 59.5129 53.0547 59.3577 53.0546" fill="black"/>
<path d="M59.3591 53.0542C59.125 53.0542 58.9005 52.9612 58.7349 52.7957C58.5693 52.6302 58.4762 52.4057 58.4761 52.1716V43.3082L53.0217 40.1591C52.9212 40.1011 52.8332 40.0239 52.7626 39.9319C52.692 39.8399 52.6402 39.7348 52.6102 39.6228C52.5801 39.5107 52.5725 39.3939 52.5876 39.2789C52.6028 39.1639 52.6404 39.053 52.6984 38.9526C52.7564 38.8521 52.8337 38.7641 52.9257 38.6935C53.0177 38.6229 53.1227 38.5711 53.2348 38.5411C53.3468 38.5111 53.4637 38.5034 53.5787 38.5185C53.6937 38.5337 53.8045 38.5713 53.905 38.6293L59.8006 42.0338C59.9348 42.1114 60.0463 42.2229 60.1238 42.3571C60.2013 42.4914 60.2421 42.6437 60.2421 42.7987V52.1716C60.2421 52.4058 60.149 52.6304 59.9834 52.7959C59.8179 52.9615 59.5933 53.0542 59.3591 53.0542Z" fill="black"/>
<path d="M59.3589 43.6814C59.1645 43.6816 58.9755 43.6175 58.8213 43.4993C58.667 43.381 58.556 43.2151 58.5057 43.0274C58.4553 42.8397 58.4682 42.6405 58.5425 42.4609C58.6169 42.2813 58.7484 42.1312 58.9167 42.034L67.0349 37.347C67.2372 37.2376 67.4743 37.2114 67.6956 37.274C67.9169 37.3366 68.1051 37.4831 68.2201 37.6823C68.3351 37.8815 68.3679 38.1177 68.3114 38.3407C68.255 38.5637 68.1138 38.7559 67.9179 38.8764L59.7996 43.5634C59.6657 43.6409 59.5137 43.6816 59.3589 43.6814ZM43.1232 34.3078C42.889 34.3078 42.6644 34.2148 42.4988 34.0492C42.3333 33.8836 42.2402 33.659 42.2402 33.4249V24.0513C42.2402 23.736 42.4084 23.4446 42.6821 23.2867L50.7992 18.5998C50.9335 18.5224 51.0857 18.4817 51.2407 18.4817C51.3956 18.4817 51.5479 18.5224 51.6822 18.5998L59.7993 23.2867C59.9335 23.3642 60.0451 23.4756 60.1226 23.6098C60.2002 23.744 60.2411 23.8963 60.2411 24.0513V30.7444C60.2411 30.9786 60.1481 31.2032 59.9825 31.3688C59.8169 31.5344 59.5923 31.6274 59.3582 31.6274C59.124 31.6274 58.8994 31.5344 58.7338 31.3688C58.5682 31.2032 58.4752 30.9786 58.4752 30.7444V24.5611L51.2407 20.3842L44.0062 24.5611V33.4249C44.0062 33.659 43.9131 33.8836 43.7476 34.0492C43.582 34.2148 43.3574 34.3078 43.1232 34.3078Z" fill="black"/>
<path d="M51.2403 36.3139C51.0061 36.3139 50.7815 36.2209 50.6159 36.0553C50.4503 35.8897 50.3573 35.6651 50.3573 35.4309V29.2476L42.6813 24.8164C42.4854 24.6959 42.3442 24.5037 42.2877 24.2808C42.2313 24.0578 42.2641 23.8216 42.3791 23.6223C42.4941 23.4231 42.6823 23.2767 42.9036 23.214C43.1249 23.1514 43.362 23.1776 43.5643 23.287L51.6818 27.9736C51.816 28.0511 51.9275 28.1626 52.005 28.2969C52.0825 28.4312 52.1233 28.5835 52.1232 28.7385V35.4313C52.1232 35.6655 52.0302 35.8901 51.8646 36.0557C51.699 36.2212 51.4745 36.3139 51.2403 36.3139Z" fill="black"/>
<path d="M51.2419 29.6212C51.0474 29.6214 50.8584 29.5574 50.7041 29.4392C50.5497 29.321 50.4387 29.1551 50.3883 28.9673C50.3378 28.7796 50.3508 28.5804 50.4251 28.4008C50.4994 28.2211 50.6309 28.071 50.7993 27.9737L58.9167 23.2867C59.0172 23.2288 59.128 23.1911 59.243 23.176C59.358 23.1609 59.4748 23.1685 59.5868 23.1985C59.6988 23.2286 59.8038 23.2803 59.8958 23.3509C59.9878 23.4215 60.065 23.5095 60.1229 23.61C60.1809 23.7104 60.2185 23.8212 60.2337 23.9362C60.2488 24.0512 60.2411 24.168 60.2111 24.28C60.1811 24.392 60.1293 24.497 60.0587 24.589C59.9881 24.681 59.9001 24.7582 59.7997 24.8162L51.683 29.5031C51.5489 29.5807 51.3967 29.6214 51.2419 29.6212ZM35.005 45.6872C34.7709 45.6872 34.5463 45.5942 34.3807 45.4286C34.2151 45.263 34.1221 45.0385 34.1221 44.8043V38.1119C34.1221 37.7963 34.2903 37.5048 34.5639 37.347L42.6818 32.6604C42.816 32.5828 42.9683 32.542 43.1233 32.542C43.2783 32.542 43.4305 32.5828 43.5647 32.6604L49.3586 36.008C49.4621 36.0644 49.5534 36.1408 49.6269 36.2329C49.7004 36.3251 49.7547 36.431 49.7867 36.5444C49.8186 36.6579 49.8275 36.7766 49.8129 36.8935C49.7982 37.0105 49.7603 37.1233 49.7014 37.2254C49.6424 37.3274 49.5636 37.4167 49.4696 37.4878C49.3757 37.5589 49.2684 37.6105 49.1542 37.6395C49.0399 37.6685 48.921 37.6744 48.8045 37.6567C48.688 37.6391 48.5761 37.5983 48.4756 37.5367L43.1233 34.4445L35.8884 38.6213V44.8039C35.8884 45.0381 35.7953 45.2627 35.6298 45.4283C35.4642 45.5938 35.2396 45.6869 35.0054 45.6869M43.1233 53.0543C42.971 53.0543 42.818 53.0153 42.6818 52.9366L36.7854 49.5329C36.685 49.4749 36.597 49.3977 36.5263 49.3057C36.4557 49.2137 36.4039 49.1087 36.3739 48.9966C36.3439 48.8846 36.3362 48.7678 36.3513 48.6528C36.3664 48.5378 36.4041 48.4269 36.462 48.3265C36.52 48.226 36.5972 48.138 36.6892 48.0674C36.7812 47.9968 36.8862 47.945 36.9982 47.9149C37.1103 47.8849 37.2271 47.8772 37.3421 47.8923C37.4571 47.9075 37.568 47.9451 37.6684 48.0031L43.1233 51.1517L50.3581 46.976V40.6772C50.3581 40.5613 50.3809 40.4464 50.4253 40.3393C50.4696 40.2322 50.5347 40.1349 50.6167 40.0529C50.6987 39.9709 50.796 39.9059 50.9032 39.8616C51.0103 39.8173 51.1252 39.7945 51.2411 39.7946C51.357 39.7946 51.4718 39.8174 51.5789 39.8617C51.686 39.906 51.7833 39.9711 51.8653 40.053C51.9473 40.135 52.0123 40.2323 52.0566 40.3394C52.101 40.4465 52.1238 40.5613 52.1237 40.6772V47.4855C52.1237 47.8011 51.9559 48.0926 51.6826 48.2504L43.5651 52.9362C43.4309 53.0138 43.2786 53.0547 43.1236 53.0547" fill="black"/>
<path d="M43.1227 53.0542C42.8886 53.0542 42.6641 52.9612 42.4985 52.7957C42.3329 52.6302 42.2398 52.4057 42.2397 52.1716V45.3637C42.2397 45.1295 42.3328 44.9049 42.4984 44.7394C42.6639 44.5738 42.8885 44.4807 43.1227 44.4807C43.3569 44.4807 43.5815 44.5738 43.7471 44.7394C43.9126 44.9049 44.0057 45.1295 44.0057 45.3637V52.1716C44.0057 52.4058 43.9126 52.6304 43.7471 52.7959C43.5815 52.9615 43.3569 53.0542 43.1227 53.0542ZM40.7983 42.342C40.6483 42.342 40.4965 42.3042 40.3576 42.2232L34.563 38.8763C34.4625 38.8183 34.3745 38.7412 34.3039 38.6492C34.2333 38.5572 34.1815 38.4522 34.1515 38.3402C34.1215 38.2282 34.1138 38.1114 34.129 37.9964C34.1442 37.8815 34.1819 37.7706 34.24 37.6703C34.2978 37.5697 34.3749 37.4815 34.4668 37.4108C34.5588 37.3401 34.6638 37.2883 34.7759 37.2583C34.8879 37.2283 35.0048 37.2207 35.1198 37.2359C35.2348 37.2512 35.3456 37.289 35.446 37.3472L41.2406 40.6949C41.4092 40.7919 41.5411 40.9418 41.6157 41.1215C41.6903 41.3012 41.7034 41.5005 41.653 41.6884C41.6026 41.8763 41.4915 42.0423 41.337 42.1605C41.1825 42.2787 40.9929 42.3425 40.7983 42.342ZM31.1852 65.7491C30.9903 65.6114 30.8525 65.3589 30.8525 65.0837C30.8525 64.6244 31.2198 64.2691 31.6783 64.2691C31.9085 64.2691 32.0689 64.3493 32.1833 64.4295C32.7922 64.8769 33.458 65.1528 34.2381 65.1528C34.9614 65.1528 35.3977 64.8658 35.3977 64.395V64.3716C35.3977 63.9242 35.1218 63.6951 33.7795 63.3505C32.1603 62.9372 31.1162 62.4898 31.1162 60.8947V60.8713C31.1162 59.4135 32.2873 58.4496 33.9288 58.4496C34.9039 58.4496 35.753 58.7021 36.476 59.1618C36.5967 59.2341 36.6963 59.3367 36.7649 59.4596C36.8335 59.5824 36.8687 59.721 36.8669 59.8617C36.8669 60.3203 36.4994 60.6763 36.04 60.6763C35.882 60.6769 35.7269 60.6331 35.5926 60.5497C35.0071 60.2059 34.4564 60.011 33.9054 60.011C33.2278 60.011 32.8724 60.3203 32.8724 60.7109V60.7332C32.8724 61.2619 33.2166 61.4334 34.6053 61.7895C36.235 62.2147 37.1532 62.7995 37.1532 64.2V64.2223C37.1532 65.8186 35.9368 66.7134 34.2036 66.7134C33.1476 66.7134 32.0797 66.3919 31.1849 65.7495M38.0703 63.1552V59.379C38.0703 58.8852 38.4602 58.4953 38.9541 58.4953C39.0704 58.4944 39.1857 58.5167 39.2933 58.5608C39.4009 58.6049 39.4987 58.6699 39.5809 58.7522C39.6631 58.8344 39.7282 58.9322 39.7723 59.0398C39.8164 59.1474 39.8386 59.2627 39.8378 59.379V63.1095C39.8378 64.4184 40.4924 65.0953 41.5706 65.0953C42.6493 65.0953 43.3039 64.4406 43.3039 63.1674V59.379C43.303 59.2627 43.3253 59.1474 43.3694 59.0398C43.4135 58.9322 43.4785 58.8344 43.5607 58.7522C43.643 58.6699 43.7408 58.6049 43.8484 58.5608C43.956 58.5167 44.0713 58.4944 44.1876 58.4953C44.6814 58.4953 45.0713 58.8852 45.0713 59.379V63.0984C45.0713 65.5312 43.7057 66.7245 41.5476 66.7245C39.3903 66.7245 38.0703 65.52 38.0703 63.1552ZM46.0326 62.6042V62.5819C46.0326 60.2969 47.8112 58.427 50.2443 58.427C51.4607 58.427 52.2642 58.7021 52.9883 59.2071C53.1602 59.3333 53.3551 59.5747 53.3551 59.9185C53.3551 60.1499 53.2632 60.3719 53.0996 60.5355C52.9359 60.6992 52.714 60.7911 52.4826 60.7911C52.2301 60.7911 52.0697 60.6986 51.9442 60.6073C51.4607 60.2635 50.9443 60.0566 50.1879 60.0566C48.9021 60.0566 47.8802 61.1928 47.8802 62.5585V62.5819C47.8802 64.0508 48.8902 65.1294 50.3134 65.1294C50.9565 65.1294 51.5298 64.969 51.9772 64.6475V63.5001H50.7842C50.3591 63.5001 50.0149 63.1671 50.0149 62.7427C50.0149 62.3171 50.3591 61.9729 50.7842 61.9729H52.8041C52.9204 61.9721 53.0357 61.9944 53.1433 62.0385C53.2509 62.0826 53.3486 62.1477 53.4309 62.2299C53.5131 62.3121 53.5782 62.4099 53.6223 62.5175C53.6664 62.6251 53.6887 62.7404 53.6878 62.8567V64.8079C53.6878 65.3244 53.4929 65.6804 53.0681 65.9329C52.4135 66.3347 51.4607 66.7364 50.2566 66.7364C47.754 66.7364 46.0326 64.9802 46.0326 62.6042ZM59.2905 63.2354L58.1773 60.5843L57.0645 63.2354H59.2905ZM54.3209 65.4625L57.1213 59.1384C57.317 58.7021 57.6723 58.4381 58.1543 58.4381H58.2575C58.7394 58.4381 59.0844 58.7017 59.2793 59.1384L62.0797 65.4625C62.1373 65.5883 62.1718 65.7038 62.1718 65.8186C62.1718 66.2894 61.8042 66.6677 61.3337 66.6677C60.9209 66.6677 60.645 66.4264 60.4846 66.0588L59.9447 64.7964H56.4099L55.8477 66.1167C55.6988 66.4609 55.3995 66.6677 55.0323 66.6677C54.5734 66.6677 54.2173 66.3001 54.2173 65.8408C54.2173 65.7146 54.263 65.5883 54.3209 65.4621M66.4541 62.4668C67.3155 62.4668 67.8086 62.0075 67.8086 61.3306V61.3076C67.8086 60.5497 67.2813 60.1599 66.4199 60.1599H64.6636V62.4672L66.4541 62.4668ZM62.8958 59.4477C62.895 59.3314 62.9173 59.2161 62.9614 59.1085C63.0055 59.0009 63.0706 58.9032 63.1528 58.821C63.235 58.7387 63.3328 58.6737 63.4404 58.6296C63.548 58.5854 63.6633 58.5632 63.7795 58.564H66.5688C67.5902 58.564 68.3826 58.8514 68.9102 59.379C69.358 59.8272 69.5994 60.4584 69.5994 61.2151V61.2385C69.5994 62.5009 68.9682 63.2818 67.992 63.6836L69.2199 65.1751C69.3922 65.3934 69.5069 65.5768 69.5069 65.8531C69.5069 66.3462 69.094 66.6677 68.6689 66.6677C68.2682 66.6677 68.0035 66.4728 67.7974 66.2081L66.0757 64.0278H64.6632V65.784C64.6642 65.9003 64.642 66.0157 64.5979 66.1233C64.5538 66.231 64.4888 66.3287 64.4065 66.411C64.3243 66.4932 64.2265 66.5583 64.1188 66.6024C64.0112 66.6465 63.8959 66.6687 63.7795 66.6677C63.6633 66.6686 63.548 66.6463 63.4404 66.6022C63.3328 66.5581 63.235 66.493 63.1528 66.4108C63.0706 66.3285 63.0055 66.2308 62.9614 66.1232C62.9173 66.0156 62.895 65.9003 62.8958 65.784V59.4477ZM36.4325 70.9251C36.4317 70.8088 36.454 70.6935 36.4981 70.5859C36.5422 70.4784 36.6073 70.3806 36.6895 70.2984C36.7717 70.2162 36.8695 70.1511 36.9771 70.107C37.0846 70.0629 37.1999 70.0406 37.3162 70.0414H41.8161C42.2635 70.0414 42.6196 70.3975 42.6196 70.8449C42.6202 70.9506 42.5998 71.0554 42.5596 71.1531C42.5195 71.2509 42.4603 71.3397 42.3856 71.4144C42.3108 71.4891 42.222 71.5483 42.1243 71.5885C42.0265 71.6286 41.9218 71.649 41.8161 71.6484H38.1996V73.359H41.2996C41.4052 73.3583 41.51 73.3786 41.6077 73.4187C41.7055 73.4588 41.7943 73.5179 41.869 73.5926C41.9438 73.6672 42.0029 73.756 42.0431 73.8537C42.0833 73.9514 42.1037 74.0561 42.1031 74.1618C42.1038 74.2675 42.0835 74.3723 42.0433 74.4701C42.0032 74.5679 41.944 74.6567 41.8693 74.7315C41.7945 74.8063 41.7057 74.8654 41.6079 74.9055C41.5101 74.9457 41.4053 74.966 41.2996 74.9653H38.1999V77.2611C38.2009 77.3774 38.1787 77.4928 38.1347 77.6004C38.0906 77.7081 38.0256 77.8059 37.9433 77.8882C37.861 77.9704 37.7632 78.0355 37.6556 78.0795C37.5479 78.1236 37.4325 78.1458 37.3162 78.1448C37.1999 78.1457 37.0846 78.1234 36.977 78.0793C36.8694 78.0352 36.7716 77.9702 36.6894 77.8879C36.6071 77.8057 36.5421 77.7079 36.498 77.6003C36.4539 77.4927 36.4316 77.3774 36.4325 77.2611V70.9251ZM46.8733 73.9442C47.7347 73.9442 48.2278 73.4845 48.2278 72.808V72.7846C48.2278 72.0272 47.7005 71.6373 46.8391 71.6373H45.0828V73.9442H46.8733ZM43.315 70.9248C43.3142 70.8085 43.3365 70.6932 43.3806 70.5856C43.4247 70.478 43.4898 70.3802 43.572 70.298C43.6542 70.2158 43.752 70.1507 43.8596 70.1066C43.9672 70.0625 44.0825 70.0402 44.1987 70.041H46.988C48.0095 70.041 48.8018 70.3284 49.3294 70.8561C49.7769 71.3042 50.0186 71.9354 50.0186 72.6922V72.7156C50.0186 73.978 49.3874 74.7589 48.4112 75.1606L49.6391 76.6521C49.8114 76.8705 49.9261 77.0539 49.9261 77.3301C49.9261 77.8232 49.5132 78.1448 49.0881 78.1448C48.6863 78.1448 48.4227 77.9499 48.2166 77.6851L46.4949 75.5048H45.0824V77.2611C45.0834 77.3774 45.0612 77.4927 45.0171 77.6004C44.973 77.708 44.908 77.8058 44.8257 77.8881C44.7435 77.9703 44.6457 78.0354 44.538 78.0794C44.4304 78.1235 44.3151 78.1457 44.1987 78.1448C44.0825 78.1456 43.9672 78.1233 43.8596 78.0792C43.752 78.0351 43.6542 77.9701 43.572 77.8878C43.4898 77.8056 43.4247 77.7078 43.3806 77.6003C43.3365 77.4927 43.3142 77.3774 43.315 77.2611V70.9248ZM51.1912 77.192V70.9251C51.1903 70.8088 51.2126 70.6935 51.2567 70.5859C51.3008 70.4784 51.3659 70.3806 51.4481 70.2984C51.5304 70.2162 51.6281 70.1511 51.7357 70.107C51.8433 70.0629 51.9586 70.0406 52.0749 70.0414H56.5291C56.9642 70.0414 57.3199 70.3979 57.3199 70.8338C57.3199 71.2701 56.9642 71.6143 56.5291 71.6143H52.9474V73.2436H56.0115C56.4477 73.2436 56.8038 73.6 56.8038 74.0359C56.8038 74.4722 56.4474 74.8164 56.0115 74.8164H52.9474V76.5036H56.5859C57.0222 76.5036 57.3782 76.8601 57.3782 77.296C57.3782 77.7323 57.0218 78.0761 56.5859 78.0761H52.0745C51.9582 78.0769 51.8429 78.0546 51.7353 78.0105C51.6277 77.9664 51.53 77.9014 51.4478 77.8191C51.3655 77.7369 51.3005 77.6392 51.2564 77.5316C51.2122 77.424 51.19 77.3087 51.1908 77.1924M58.4168 77.192V70.9251C58.4159 70.8088 58.4382 70.6935 58.4823 70.5859C58.5264 70.4784 58.5915 70.3806 58.6737 70.2984C58.756 70.2162 58.8537 70.1511 58.9613 70.107C59.0689 70.0629 59.1842 70.0406 59.3005 70.0414H63.7547C64.1898 70.0414 64.5459 70.3979 64.5459 70.8338C64.5459 71.2701 64.1898 71.6143 63.755 71.6143H60.173V73.2436H63.2382C63.6733 73.2436 64.0294 73.6 64.0294 74.0359C64.0294 74.4722 63.6733 74.8164 63.2385 74.8164H60.173V76.5036H63.8118C64.2478 76.5036 64.6038 76.8601 64.6038 77.296C64.6038 77.7323 64.2478 78.0761 63.8115 78.0761H59.3005C59.1842 78.0769 59.0689 78.0546 58.9613 78.0105C58.8537 77.9664 58.756 77.9014 58.6737 77.8191C58.5915 77.7369 58.5264 77.6392 58.4823 77.5316C58.4382 77.424 58.4159 77.3087 58.4168 77.1924" fill="black"/>
</g>
</g>
<defs>
<clipPath id="clip0_2005_1709">
<rect width="80.2959" height="80.2959" fill="white" transform="translate(9.84863 9.84912)"/>
</clipPath>
</defs>
</svg>
