<svg width="100" height="100" viewBox="0 0 100 100" fill="none" xmlns="http://www.w3.org/2000/svg">
<circle cx="50" cy="50" r="50" fill="#24C433"/>
<g clip-path="url(#clip0_2127_3213)">
<mask id="mask0_2127_3213" style="mask-type:luminance" maskUnits="userSpaceOnUse" x="3" y="0" width="94" height="100">
<path d="M3.20514 0H96.7949V100H3.20514V0Z" fill="white"/>
</mask>
<g mask="url(#mask0_2127_3213)">
<path d="M75.4067 20.7443C73.0335 19.4328 70.2738 19.0219 67.6266 19.5856C63.7956 20.4018 59.907 21.8155 55.9512 21.6497C50.8781 21.4367 47.5454 16.0131 47.8885 11.2342C47.9747 10.0494 48.2578 8.88781 48.7261 7.79801C53.2485 7.7625 58.4682 9.07532 62.153 10.6665C62.2232 10.7004 62.3032 10.7073 62.3781 10.686C62.4529 10.6646 62.5176 10.6165 62.5599 10.5506C62.6022 10.4848 62.6193 10.4056 62.6081 10.3279C62.5968 10.2501 62.5579 10.1792 62.4987 10.1283C58.9247 7.13547 54.6202 5.16639 50.035 4.42677C51.2555 3.01258 52.7667 1.88406 54.4634 1.11981C56.16 0.355569 58.0014 -0.0260136 59.859 0.00164739C66.5493 -0.104867 71.7686 6.90346 74.4752 11.7832C76.9884 16.3019 75.9634 19.5133 75.4067 20.7434" fill="#F5F2ED"/>
<path d="M87.3178 26.3756C123.176 78.2577 48.3433 129.743 11.4424 79.4524C-6.80588 54.7946 6.83764 15.079 36.908 8.87988C0.224092 24.0387 0.235675 77.2342 37.3592 90.3584C74.553 103.636 107.611 60.6616 87.3178 26.3756Z" fill="#F5F2ED"/>
<path d="M30.1461 51.1243H26.9652V29.081H31.3941L35.8225 42.9032V29.0814H39.039V51.1248H35.4126L30.1461 34.6232V51.1243ZM48.9519 48.2588C50.4928 48.2588 51.2647 47.4071 51.2677 45.7042V34.4959C51.2677 32.7982 50.4958 31.9486 48.9519 31.9469C47.4345 31.9469 46.675 32.7964 46.6729 34.4959V45.7033C46.6729 47.4063 47.4324 48.258 48.9519 48.258M43.1231 45.5202V34.6851C43.1231 32.7986 43.6271 31.3394 44.6345 30.3085C45.6419 29.2776 47.0811 28.7627 48.9519 28.7649C50.844 28.7649 52.291 29.2793 53.3044 30.3085C54.3178 31.3377 54.8157 32.7982 54.8157 34.6851V45.5206C54.8157 47.4071 54.3063 48.8663 53.2868 49.8972C52.2674 50.9278 50.8226 51.443 48.9519 51.4408C47.0833 51.4408 45.644 50.9265 44.6345 49.8972C43.6249 48.868 43.121 47.4093 43.1231 45.5206M62.0516 51.1243H58.8698V29.081H63.2996L67.7285 42.9032V29.0814H70.945V51.1248H67.3185L62.0516 34.6232V51.1243ZM26.6851 73.1053V62.2426C26.6851 60.356 27.1792 58.8969 28.1673 57.8659C29.1554 56.835 30.5732 56.3202 32.4204 56.3223C34.2538 56.3223 35.6677 56.8367 36.6618 57.8659C37.6624 58.8951 38.1629 60.3539 38.1629 62.2426V63.7862H34.8302V62.0542C34.8302 60.3565 34.0582 59.5069 32.5143 59.5052C30.997 59.5052 30.2374 60.3547 30.2353 62.0542V73.259C30.2353 74.962 30.9948 75.8137 32.5143 75.8137C34.0552 75.8137 34.8272 74.962 34.8302 73.259V69.5167H32.6429V66.2737H38.1612V73.1053C38.1612 74.9745 37.6607 76.4233 36.6601 77.4525C35.6596 78.4817 34.2456 78.9961 32.4186 78.9961C30.5908 78.9961 29.1768 78.4817 28.1772 77.4525C27.1775 76.4233 26.68 74.9745 26.6851 73.1053ZM45.2722 78.6779H42.1556V56.6345H47.1703L50.1055 72.823L53.0051 56.6349H58.0314V78.6783H54.6626V61.6091L51.4461 78.6783H48.4818L45.2722 61.6091V78.6779ZM67.9442 75.8141C69.4851 75.8141 70.2571 74.9624 70.2601 73.2595V62.0512C70.2601 60.3534 69.4881 59.5039 67.9442 59.5022C66.4269 59.5022 65.6673 60.3517 65.6652 62.0512V73.259C65.6652 74.962 66.4247 75.8141 67.9442 75.8141ZM62.1155 73.0759V62.2426C62.1155 60.356 62.6194 58.8969 63.6268 57.8659C64.6342 56.835 66.0735 56.3197 67.9442 56.3202C69.8363 56.3202 71.2833 56.8346 72.2968 57.8638C73.3102 58.893 73.8081 60.3534 73.8081 62.2404V73.0759C73.8081 74.9624 73.2986 76.4216 72.2792 77.4525C71.2598 78.483 69.8149 78.9983 67.9442 78.9961C66.0756 78.9961 64.6363 78.4817 63.6268 77.4525C62.6172 76.4233 62.1133 74.9646 62.1155 73.0759Z" fill="#F5F2ED"/>
</g>
</g>
<defs>
<clipPath id="clip0_2127_3213">
<rect width="93.5897" height="100" fill="white" transform="translate(3.20514)"/>
</clipPath>
</defs>
</svg>
