<svg width="101" height="100" viewBox="0 0 101 100" fill="none" xmlns="http://www.w3.org/2000/svg">
<circle cx="50.3994" cy="50" r="50" fill="#24C433"/>
<g clip-path="url(#clip0_2127_3236)">
<mask id="mask0_2127_3236" style="mask-type:luminance" maskUnits="userSpaceOnUse" x="1" y="0" width="99" height="101">
<path d="M1.087 0.000244141H99.7171V100H1.087V0.000244141Z" fill="white"/>
</mask>
<g mask="url(#mask0_2127_3236)">
<path d="M50.4018 2.30887C24.4651 2.30887 3.36378 23.7033 3.36378 50.0002C3.36378 76.2972 24.4651 97.6911 50.4018 97.6911C76.3386 97.6911 97.4399 76.2972 97.4399 50.0002C97.4399 23.7033 76.3386 2.30887 50.4018 2.30887ZM50.4018 100C23.209 100 1.087 77.5703 1.087 50.0002C1.087 22.4302 23.209 0 50.4018 0C77.5946 0 99.7167 22.4297 99.7167 49.9998C99.7167 77.5693 77.5946 99.9995 50.4018 99.9995" fill="#F5F2ED"/>
<path d="M42.6145 31.0436C42.4015 31.0436 42.1857 30.9803 41.9969 30.8471C40.1238 29.5292 39.005 27.39 39.005 25.1269V19.3485C39.0048 19.1561 39.0545 18.9669 39.149 18.8C39.2436 18.6331 39.3797 18.4943 39.5438 18.3975C39.7078 18.3007 39.8941 18.2492 40.0839 18.2483C40.2738 18.2474 40.4605 18.297 40.6255 18.3922L48.4104 22.8777C50.3666 24.2474 51.4858 26.3857 51.4858 28.6501C51.4858 28.9417 51.3716 29.2213 51.1682 29.4275C50.9649 29.6337 50.689 29.7495 50.4015 29.7495C50.1139 29.7495 49.8381 29.6337 49.6347 29.4275C49.4314 29.2213 49.3171 28.9417 49.3171 28.6501C49.3171 27.1066 48.5472 25.6439 47.2574 24.7376L41.1741 21.2366V25.1269C41.1741 26.67 41.944 28.1327 43.2338 29.0409C43.4237 29.1744 43.5665 29.366 43.6414 29.5876C43.7163 29.8093 43.7194 30.0494 43.6503 30.2729C43.5811 30.4965 43.4433 30.6918 43.257 30.8303C43.0707 30.9689 42.8455 31.0439 42.6145 31.0436Z" fill="#F5F2ED"/>
<path d="M40.6679 37.8798C40.2656 37.8798 39.8789 37.6523 39.6914 37.2601C39.2434 36.328 39.0087 35.3052 39.005 34.2683V28.4899C39.0052 28.2976 39.0551 28.1087 39.1498 27.942C39.2444 27.7754 39.3805 27.6367 39.5444 27.54C39.7084 27.4433 39.8944 27.3918 40.0841 27.3906C40.2738 27.3895 40.4604 27.4388 40.6255 27.5336L48.0396 31.8054C48.1635 31.8767 48.2723 31.9721 48.3598 32.0861C48.4473 32.2001 48.5118 32.3305 48.5496 32.4697C48.5874 32.609 48.5977 32.7545 48.58 32.8978C48.5623 33.0411 48.5169 33.1795 48.4464 33.3051C48.3042 33.5583 48.0687 33.744 47.7916 33.8214C47.5145 33.8988 47.2184 33.8616 46.9683 33.718L41.1741 30.3793V34.2683C41.1741 34.9587 41.336 35.6611 41.6421 36.2997C41.7222 36.4672 41.7591 36.6527 41.7493 36.8386C41.7394 37.0246 41.6832 37.2049 41.5858 37.3628C41.4885 37.5207 41.3532 37.651 41.1927 37.7414C41.0321 37.8318 40.8515 37.8794 40.6679 37.8798ZM50.4012 44.67C50.2161 44.67 50.0318 44.6224 49.8653 44.5266L44.8912 41.6601C44.7674 41.5888 44.6586 41.4935 44.5711 41.3795C44.4836 41.2656 44.4191 41.1352 44.3813 40.996C44.3435 40.8568 44.3332 40.7114 44.3509 40.5681C44.3686 40.4248 44.4139 40.2864 44.4844 40.1609C44.5544 40.0351 44.6483 39.9245 44.7606 39.8356C44.8729 39.7466 45.0014 39.6811 45.1388 39.6427C45.2762 39.6044 45.4197 39.5939 45.5611 39.612C45.7024 39.63 45.8389 39.6762 45.9626 39.748L49.3167 41.6809V37.7919C49.3167 37.6475 49.3447 37.5046 49.3992 37.3712C49.4537 37.2378 49.5336 37.1166 49.6343 37.0145C49.7351 36.9125 49.8546 36.8315 49.9862 36.7763C50.1178 36.7211 50.2588 36.6927 50.4012 36.6928C50.5436 36.6927 50.6847 36.7211 50.8162 36.7763C50.9478 36.8315 51.0674 36.9125 51.1681 37.0145C51.2688 37.1166 51.3487 37.2378 51.4032 37.3712C51.4578 37.5046 51.4858 37.6475 51.4858 37.7919V43.5703C51.4857 43.862 51.3714 44.1416 51.168 44.3478C50.9646 44.554 50.6888 44.6699 50.4012 44.67Z" fill="#F5F2ED"/>
<path d="M50.4012 53.8073C50.217 53.8073 50.0318 53.7601 49.8653 53.664L42.0799 49.1794C40.2834 47.9198 39.171 45.9623 39.0228 43.8911C39.0124 43.7471 39.0301 43.6023 39.0749 43.4652C39.1198 43.3281 39.1908 43.2012 39.284 43.0919C39.3771 42.9826 39.4907 42.893 39.618 42.8282C39.7454 42.7634 39.8841 42.7247 40.0262 42.7143C40.6287 42.6805 41.1422 43.1258 41.1855 43.7311C41.2872 45.1471 42.053 46.4886 43.2338 47.3195L49.3167 50.8201V46.9297C49.3167 45.3866 48.5468 43.9235 47.2561 43.0162C47.139 42.9339 47.0391 42.829 46.962 42.7075C46.885 42.586 46.8323 42.4503 46.807 42.3082C46.7817 42.166 46.7843 42.0202 46.8146 41.8791C46.845 41.7379 46.9024 41.6042 46.9838 41.4856C47.0649 41.3669 47.1684 41.2656 47.2882 41.1874C47.408 41.1092 47.5419 41.0558 47.6821 41.0301C47.8223 41.0044 47.9661 41.007 48.1053 41.0377C48.2445 41.0684 48.3764 41.1267 48.4934 41.2091C50.3661 42.527 51.4858 44.6657 51.4858 46.9293V52.7081C51.4857 52.9997 51.3714 53.2794 51.168 53.4856C50.9646 53.6918 50.6888 53.8072 50.4012 53.8073ZM40.0896 22.2808C39.8019 22.2808 39.5261 22.165 39.3227 21.9587C39.1193 21.7525 39.005 21.4728 39.005 21.1812V14.8377C39.005 14.546 39.1193 14.2663 39.3227 14.0601C39.5261 13.8539 39.8019 13.738 40.0896 13.738C40.3772 13.738 40.6531 13.8539 40.8565 14.0601C41.0599 14.2663 41.1741 14.546 41.1741 14.8377V21.1812C41.1741 21.4728 41.0599 21.7525 40.8565 21.9587C40.6531 22.165 40.3772 22.2808 40.0896 22.2808ZM50.4012 32.1646C50.1136 32.1646 49.8377 32.0487 49.6343 31.8425C49.4309 31.6363 49.3167 31.3566 49.3167 31.065V28.6502C49.3167 26.3857 50.435 24.2479 52.3086 22.9305L60.1761 18.3923C60.3411 18.2972 60.5278 18.2477 60.7176 18.2487C60.9073 18.2497 61.0935 18.3012 61.2576 18.398C61.4216 18.4947 61.5577 18.6335 61.6523 18.8003C61.7468 18.9671 61.7966 19.1562 61.7965 19.3486V25.0294C61.7965 25.3211 61.6823 25.6008 61.4789 25.807C61.2755 26.0132 60.9996 26.1291 60.712 26.1291C60.4243 26.1291 60.1485 26.0132 59.9451 25.807C59.7417 25.6008 59.6274 25.3211 59.6274 25.0294V21.2376L53.4634 24.7904C52.2561 25.6445 51.4863 27.1066 51.4863 28.6502V31.065C51.4863 31.3566 51.372 31.6363 51.1686 31.8425C50.9652 32.0487 50.6889 32.1646 50.4012 32.1646Z" fill="#F5F2ED"/>
<path d="M50.4018 44.67C50.2594 44.67 50.1183 44.6416 49.9867 44.5864C49.8551 44.5311 49.7355 44.4501 49.6348 44.348C49.5341 44.2459 49.4542 44.1246 49.3997 43.9912C49.3452 43.8578 49.3172 43.7147 49.3173 43.5703V37.7919C49.3173 37.6475 49.3453 37.5045 49.3998 37.3712C49.4543 37.2378 49.5342 37.1166 49.6349 37.0145C49.7357 36.9124 49.8552 36.8315 49.9868 36.7763C50.1184 36.721 50.2594 36.6927 50.4018 36.6927C50.5442 36.6927 50.6853 36.721 50.8168 36.7763C50.9484 36.8315 51.068 36.9124 51.1687 37.0145C51.2694 37.1166 51.3493 37.2378 51.4038 37.3712C51.4583 37.5045 51.4864 37.6475 51.4864 37.7919V41.6809L57.6509 38.1281C58.8581 37.274 59.628 35.8114 59.628 34.2687V31.7559C59.628 31.6115 59.6561 31.4686 59.7106 31.3352C59.7651 31.2018 59.845 31.0806 59.9457 30.9785C60.0464 30.8764 60.166 30.7955 60.2976 30.7403C60.4292 30.6851 60.5702 30.6567 60.7126 30.6567C60.855 30.6567 60.996 30.6851 61.1276 30.7403C61.2592 30.7955 61.3787 30.8764 61.4795 30.9785C61.5802 31.0806 61.6601 31.2018 61.7146 31.3352C61.7691 31.4686 61.7972 31.6115 61.7972 31.7559V34.2687C61.7972 36.5323 60.6788 38.67 58.8052 39.9879L50.9377 44.5266C50.7713 44.6223 50.5865 44.67 50.4018 44.67Z" fill="#F5F2ED"/>
<path d="M59.6276 39.5171L53.4631 43.0685C52.2559 43.923 51.4855 45.3861 51.4855 46.9297V50.8186L57.6505 47.2668C58.8577 46.4122 59.6276 44.9491 59.6276 43.4056V39.5171ZM50.401 53.8077C50.1133 53.8077 49.8374 53.6919 49.634 53.4857C49.4306 53.2794 49.3164 52.9997 49.3164 52.7081V46.9297C49.3164 44.6661 50.4352 42.5274 52.3083 41.2091L60.1758 36.6718C60.341 36.577 60.5277 36.5276 60.7174 36.5286C60.9072 36.5296 61.0934 36.5808 61.2576 36.6773C61.4214 36.7743 61.5573 36.913 61.6517 37.0797C61.7461 37.2465 61.7958 37.4354 61.7958 37.6276V43.406C61.7958 45.6696 60.678 47.8078 58.8048 49.1262L50.9373 53.6644C50.7708 53.7596 50.5852 53.8077 50.401 53.8077ZM60.7117 22.2808C60.4241 22.2808 60.1482 22.1649 59.9448 21.9587C59.7414 21.7525 59.6271 21.4728 59.6271 21.1811V14.8376C59.6271 14.546 59.7414 14.2663 59.9448 14.0601C60.1482 13.8539 60.4241 13.738 60.7117 13.738C60.9994 13.738 61.2752 13.8539 61.4786 14.0601C61.682 14.2663 61.7963 14.546 61.7963 14.8376V21.1811C61.7963 21.4728 61.682 21.7525 61.4786 21.9587C61.2752 22.1649 60.9994 22.2808 60.7117 22.2808ZM50.401 27.5084C50.1133 27.5084 49.8374 27.3926 49.634 27.1864C49.4306 26.9801 49.3164 26.7004 49.3164 26.4088V11.8504C49.3164 11.706 49.3444 11.563 49.3989 11.4297C49.4535 11.2963 49.5334 11.1751 49.6341 11.073C49.7348 10.9709 49.8544 10.89 49.9859 10.8348C50.1175 10.7795 50.2585 10.7512 50.401 10.7512C50.5434 10.7512 50.6844 10.7795 50.816 10.8348C50.9475 10.89 51.0671 10.9709 51.1678 11.073C51.2686 11.1751 51.3485 11.2963 51.403 11.4297C51.4575 11.563 51.4855 11.706 51.4855 11.8504V26.4088C51.4855 26.7004 51.3713 26.9801 51.1679 27.1864C50.9645 27.3926 50.6886 27.5084 50.401 27.5084ZM27.7622 48.7807C27.5234 48.7809 27.2913 48.7011 27.1018 48.5538C26.9123 48.4066 26.776 48.2 26.7141 47.9662C26.6522 47.7324 26.6681 47.4844 26.7594 47.2607C26.8507 47.037 27.0122 46.8501 27.219 46.729L72.4988 20.2235C72.748 20.0778 73.0441 20.0384 73.3219 20.114C73.5998 20.1895 73.8367 20.3737 73.9806 20.6262C74.0519 20.7513 74.0981 20.8893 74.1167 21.0325C74.1353 21.1757 74.1259 21.3212 74.089 21.4607C74.0521 21.6001 73.9884 21.7309 73.9017 21.8454C73.8149 21.96 73.7068 22.056 73.5834 22.1282L28.3031 48.6337C28.1387 48.7301 27.9521 48.7808 27.7622 48.7807ZM23.2223 65.7007V65.673C23.2223 62.8273 25.4069 60.4985 28.3957 60.4985C29.8898 60.4985 30.8768 60.8412 31.7657 61.4701C31.9773 61.6273 32.2168 61.9278 32.2168 62.356C32.2168 62.6443 32.1039 62.9207 31.9029 63.1245C31.7019 63.3282 31.4292 63.4427 31.145 63.4427C30.8348 63.4427 30.6373 63.3276 30.4827 63.2138C29.8898 62.7856 29.2554 62.5281 28.3254 62.5281C26.7469 62.5281 25.4918 63.9431 25.4918 65.6439V65.673C25.4918 67.5023 26.7314 68.8457 28.4805 68.8457C29.2705 68.8457 29.9747 68.6459 30.5238 68.2454V66.8166H29.0588C28.5366 66.8166 28.1138 66.4018 28.1138 65.8732C28.1138 65.3433 28.5366 64.9146 29.0588 64.9146H31.5399C31.6828 64.9136 31.8244 64.9413 31.9566 64.9963C32.0887 65.0512 32.2088 65.1322 32.3098 65.2346C32.4108 65.3371 32.4907 65.4588 32.5449 65.5928C32.5991 65.7268 32.6265 65.8704 32.6254 66.0152V68.4452C32.6254 69.0884 32.3855 69.5319 31.8638 69.8463C31.0597 70.3467 29.8898 70.847 28.4103 70.847C25.3363 70.847 23.2223 68.6598 23.2223 65.7007ZM34.1811 61.6842C34.1801 61.5393 34.2075 61.3957 34.2617 61.2617C34.3159 61.1278 34.3958 61.006 34.4968 60.9036C34.5978 60.8012 34.7178 60.7202 34.85 60.6652C34.9822 60.6103 35.1238 60.5825 35.2666 60.5836C35.4095 60.5824 35.5512 60.6101 35.6834 60.665C35.8156 60.7199 35.9357 60.8009 36.0368 60.9033C36.1378 61.0058 36.2177 61.1275 36.2718 61.2616C36.326 61.3957 36.3533 61.5393 36.3521 61.6842V68.6741H40.3702C40.5001 68.6732 40.6288 68.6985 40.7489 68.7485C40.8691 68.7985 40.9782 68.8722 41.07 68.9653C41.1618 69.0584 41.2345 69.169 41.2838 69.2908C41.3331 69.4126 41.3581 69.5431 41.3572 69.6748C41.3581 69.8064 41.3331 69.937 41.2838 70.0588C41.2345 70.1805 41.1618 70.2912 41.07 70.3843C40.9782 70.4774 40.8691 70.5511 40.7489 70.6011C40.6288 70.651 40.5001 70.6763 40.3702 70.6755H35.2666C35.1238 70.6766 34.9821 70.6489 34.8499 70.594C34.7178 70.539 34.5977 70.458 34.4966 70.3556C34.3956 70.2532 34.3157 70.1314 34.2615 69.9974C34.2074 69.8634 34.1801 69.7197 34.1811 69.5749V61.6842ZM41.7476 66.387V61.6842C41.7476 61.0691 42.2265 60.5836 42.8331 60.5836C42.976 60.5825 43.1176 60.6102 43.2498 60.6651C43.382 60.72 43.5021 60.8011 43.6031 60.9035C43.7041 61.0059 43.784 61.1277 43.8382 61.2617C43.8924 61.3957 43.9197 61.5393 43.9186 61.6842V66.3301C43.9186 67.9601 44.7227 68.8031 46.0472 68.8031C47.3721 68.8031 48.1762 67.9879 48.1762 66.4022V61.6842C48.1751 61.5393 48.2024 61.3957 48.2566 61.2617C48.3107 61.1277 48.3906 61.0059 48.4917 60.9035C48.5927 60.8011 48.7128 60.72 48.845 60.6651C48.9772 60.6102 49.1188 60.5825 49.2616 60.5836C49.8682 60.5836 50.3471 61.0691 50.3471 61.6842V66.3162C50.3471 69.346 48.6696 70.8322 46.0189 70.8322C43.369 70.8322 41.7476 69.3321 41.7476 66.387ZM54.1778 62.6996H52.0917C51.8263 62.6985 51.5722 62.5911 51.3846 62.4008C51.1971 62.2105 51.0914 61.9527 51.0906 61.6837C51.0906 61.1265 51.5421 60.6691 52.0917 60.6691H58.4358C58.9859 60.6691 59.4369 61.1269 59.4369 61.6837C59.4362 61.9527 59.3306 62.2104 59.1432 62.4008C58.9557 62.5911 58.7016 62.6985 58.4363 62.6996H56.3488V69.6609C56.3499 69.8058 56.3226 69.9494 56.2685 70.0835C56.2144 70.2175 56.1344 70.3393 56.0334 70.4417C55.9324 70.5442 55.8123 70.6252 55.6801 70.6801C55.5478 70.735 55.4062 70.7627 55.2633 70.7615C55.1205 70.7625 54.9788 70.7348 54.8467 70.6798C54.7145 70.6249 54.5944 70.5439 54.4934 70.4415C54.3924 70.3391 54.3125 70.2173 54.2583 70.0833C54.2041 69.9493 54.1768 69.8057 54.1778 69.6609V62.6996ZM60.2565 69.5749V61.7692C60.2555 61.6244 60.2829 61.4808 60.3371 61.3468C60.3912 61.2128 60.4712 61.0911 60.5722 60.9887C60.6732 60.8863 60.7932 60.8053 60.9254 60.7503C61.0576 60.6954 61.1992 60.6676 61.342 60.6687H66.8132C67.3478 60.6687 67.7847 61.1126 67.7847 61.6559C67.7847 62.1993 67.3478 62.628 66.8132 62.628H62.4138V64.6571H66.1788C66.7134 64.6571 67.1503 65.1005 67.1503 65.6439C67.1503 66.1872 66.7134 66.6159 66.1788 66.6159H62.4138V68.7171H66.883C67.4189 68.7171 67.8563 69.1606 67.8563 69.7039C67.8563 70.2473 67.4185 70.675 66.883 70.675H61.3416C61.1987 70.6761 61.0571 70.6483 60.9249 70.5934C60.7928 70.5384 60.6727 70.4574 60.5717 70.355C60.4707 70.2526 60.3908 70.1308 60.3366 69.9968C60.2824 69.8628 60.255 69.7193 60.2561 69.5744M69.1324 61.7128C69.1314 61.568 69.1588 61.4244 69.213 61.2904C69.2671 61.1564 69.3471 61.0347 69.4481 60.9323C69.5491 60.8299 69.6691 60.7488 69.8013 60.6939C69.9335 60.639 70.0751 60.6112 70.2179 60.6123H70.4437C70.9654 60.6123 71.276 60.8698 71.5716 61.2555L75.7585 66.8304V61.6698C75.7585 61.3816 75.8714 61.1052 76.0724 60.9014C76.2734 60.6976 76.546 60.5831 76.8303 60.5831C77.1145 60.5831 77.3871 60.6976 77.5881 60.9014C77.7892 61.1052 77.9021 61.3816 77.9021 61.6698V69.6318C77.9021 70.2468 77.4227 70.7323 76.8166 70.7323H76.7459C76.2237 70.7323 75.9144 70.4757 75.618 70.0896L71.276 64.3144V69.6748C71.276 69.963 71.1631 70.2394 70.9621 70.4432C70.7611 70.647 70.4885 70.7615 70.2042 70.7615C69.92 70.7615 69.6474 70.647 69.4464 70.4432C69.2454 70.2394 69.1324 69.963 69.1324 69.6748V61.7128ZM33.7392 76.0636C33.7382 75.9188 33.7655 75.7752 33.8197 75.6412C33.8739 75.5072 33.9538 75.3855 34.0548 75.2831C34.1558 75.1807 34.2759 75.0996 34.4081 75.0447C34.5402 74.9897 34.6818 74.962 34.8247 74.963H40.3525C40.9016 74.963 41.339 75.4065 41.339 75.9637C41.3397 76.0953 41.3147 76.2258 41.2653 76.3475C41.216 76.4693 41.1433 76.5799 41.0515 76.673C40.9597 76.766 40.8506 76.8397 40.7305 76.8897C40.6105 76.9398 40.4818 76.9651 40.352 76.9644H35.9102V79.0948H39.7176C39.8474 79.0939 39.976 79.1192 40.0961 79.1691C40.2161 79.219 40.3252 79.2926 40.417 79.3856C40.5088 79.4786 40.5815 79.5892 40.6309 79.7109C40.6802 79.8325 40.7053 79.963 40.7045 80.0945C40.7054 80.2262 40.6804 80.3567 40.6311 80.4785C40.5819 80.6003 40.5092 80.7109 40.4174 80.804C40.3255 80.8971 40.2164 80.9708 40.0963 81.0208C39.9762 81.0708 39.8474 81.0961 39.7176 81.0952H35.9102V83.9544C35.9114 84.0992 35.8841 84.2429 35.83 84.377C35.7759 84.5111 35.696 84.6329 35.5949 84.7353C35.4939 84.8378 35.3738 84.9188 35.2415 84.9737C35.1093 85.0285 34.9676 85.0562 34.8247 85.0549C34.6818 85.056 34.5402 85.0283 34.408 84.9734C34.2758 84.9185 34.1557 84.8375 34.0547 84.735C33.9537 84.6326 33.8738 84.5109 33.8196 84.3768C33.7654 84.2428 33.7381 84.0992 33.7392 83.9544V76.0636ZM46.5644 79.8236C47.6225 79.8236 48.2282 79.2511 48.2282 78.4085V78.3794C48.2282 77.4361 47.5801 76.9505 46.5219 76.9505H44.3646V79.8236H46.5644ZM42.1937 76.0631C42.1926 75.9183 42.22 75.7747 42.2742 75.6407C42.3284 75.5067 42.4083 75.385 42.5093 75.2826C42.6103 75.1802 42.7304 75.0992 42.8625 75.0442C42.9947 74.9893 43.1363 74.9615 43.2792 74.9626H46.7053C47.9595 74.9626 48.9333 75.3205 49.5814 75.9776C50.1314 76.5357 50.4279 77.3219 50.4279 78.2643V78.2934C50.4279 79.8656 49.6525 80.8381 48.453 81.3384L49.9617 83.196C50.1734 83.4679 50.3143 83.6963 50.3143 84.0404C50.3143 84.6545 49.8071 85.0549 49.2849 85.0549C48.7914 85.0549 48.4676 84.8122 48.2145 84.4824L46.0996 81.7671H44.3642V83.9544C44.3653 84.0992 44.3381 84.2429 44.2839 84.3769C44.2298 84.511 44.1499 84.6328 44.0488 84.7352C43.9478 84.8376 43.8277 84.9186 43.6955 84.9735C43.5632 85.0284 43.4216 85.0561 43.2787 85.0549C43.1359 85.056 42.9943 85.0282 42.8621 84.9733C42.7299 84.9183 42.6099 84.8373 42.5089 84.7349C42.4078 84.6325 42.3279 84.5108 42.2737 84.3768C42.2196 84.2428 42.1922 84.0992 42.1932 83.9544L42.1937 76.0631ZM51.8677 83.8683V76.0636C51.8667 75.9188 51.8941 75.7752 51.9483 75.6412C52.0024 75.5072 52.0824 75.3855 52.1834 75.2831C52.2844 75.1807 52.4044 75.0996 52.5366 75.0447C52.6688 74.9897 52.8104 74.962 52.9532 74.963H58.4244C58.959 74.963 59.3964 75.407 59.3964 75.9499C59.3964 76.4932 58.959 76.9219 58.4249 76.9219H54.025V78.951H57.7886C58.3246 78.951 58.7619 79.3949 58.7619 79.9378C58.7619 80.4811 58.3246 80.9098 57.7886 80.9098H54.025V83.011H58.4947C59.0301 83.011 59.4675 83.4549 59.4675 83.9978C59.4675 84.5412 59.0301 84.9694 58.4942 84.9694H52.9532C52.8104 84.9704 52.6688 84.9427 52.5366 84.8877C52.4044 84.8328 52.2844 84.7518 52.1834 84.6494C52.0824 84.547 52.0024 84.4252 51.9483 84.2912C51.8941 84.1572 51.8667 84.0136 51.8677 83.8688M60.7436 83.8683V76.0636C60.7426 75.9188 60.77 75.7752 60.8242 75.6412C60.8783 75.5072 60.9583 75.3855 61.0593 75.2831C61.1603 75.1807 61.2803 75.0996 61.4125 75.0447C61.5447 74.9897 61.6863 74.962 61.8291 74.963H67.3003C67.8349 74.963 68.2723 75.407 68.2723 75.9499C68.2723 76.4932 67.8349 76.9219 67.3008 76.9219H62.9009V78.951H66.6659C67.2004 78.951 67.6378 79.3949 67.6378 79.9378C67.6378 80.4811 67.2005 80.9098 66.6664 80.9098H62.9009V83.011H67.3706C67.906 83.011 68.3434 83.4549 68.3434 83.9978C68.3434 84.5412 67.906 84.9694 67.3701 84.9694H61.8291C61.6863 84.9704 61.5447 84.9427 61.4125 84.8877C61.2803 84.8328 61.1603 84.7518 61.0593 84.6494C60.9583 84.547 60.8783 84.4252 60.8242 84.2912C60.77 84.1572 60.7426 84.0136 60.7436 83.8688" fill="#F5F2ED"/>
</g>
</g>
<defs>
<clipPath id="clip0_2127_3236">
<rect width="98.6301" height="100" fill="white" transform="translate(1.087)"/>
</clipPath>
</defs>
</svg>
