<svg width="101" height="100" viewBox="0 0 101 100" fill="none" xmlns="http://www.w3.org/2000/svg">
<circle cx="51" cy="50" r="50" fill="#24C433"/>
<g clip-path="url(#clip0_2127_3273)">
<mask id="mask0_2127_3273" style="mask-type:luminance" maskUnits="userSpaceOnUse" x="0" y="0" width="100" height="100">
<path d="M0 0H100V100H0V0Z" fill="white"/>
</mask>
<g mask="url(#mask0_2127_3273)">
<path d="M49.9998 2.30887C23.7028 2.30887 2.30841 23.7033 2.30841 50.0002C2.30841 76.2972 23.7028 97.6911 49.9998 97.6911C76.2967 97.6911 97.6911 76.2972 97.6911 50.0002C97.6911 23.7033 76.2967 2.30887 49.9998 2.30887ZM49.9998 100C22.4293 100 0 77.5703 0 50.0002C0 22.4302 22.4293 0 49.9998 0C77.5703 0 99.9995 22.4297 99.9995 49.9998C99.9995 77.5693 77.5703 99.9995 49.9998 99.9995" fill="#F5F2ED"/>
<path d="M26.0658 50.9606C25.8237 50.9608 25.5883 50.881 25.3962 50.7337C25.204 50.5864 25.0659 50.3799 25.0031 50.1461C24.9404 49.9122 24.9565 49.6643 25.0491 49.4406C25.1416 49.2169 25.3054 49.03 25.515 48.9089L73.3876 21.2695C73.6403 21.1238 73.9404 21.0843 74.2221 21.1598C74.5038 21.2352 74.744 21.4194 74.89 21.6718C74.9623 21.7968 75.0093 21.9349 75.0282 22.0782C75.047 22.2214 75.0375 22.3669 75.0001 22.5065C74.9627 22.646 74.8981 22.7768 74.8102 22.8914C74.7222 23.0059 74.6124 23.102 74.4873 23.1742L26.6146 50.8131C26.4479 50.9098 26.2585 50.9607 26.0658 50.9606ZM61.6592 53.8073C61.4692 53.8073 61.2791 53.7587 61.109 53.6607L51 47.8245C50.7536 47.6755 50.5754 47.4359 50.5037 47.1571C50.4319 46.8783 50.4724 46.5824 50.6163 46.3331C50.7602 46.0837 50.9962 45.9007 51.2735 45.8234C51.5508 45.746 51.8474 45.7805 52.0996 45.9193L61.6592 51.4383L70.67 46.237V35.8325L63.8766 31.9107C63.6363 31.7588 63.4641 31.5199 63.3961 31.2439C63.3281 30.9679 63.3694 30.6763 63.5115 30.4302C63.6536 30.184 63.8855 30.0024 64.1585 29.9233C64.4315 29.8443 64.7245 29.8739 64.9762 30.006L72.3194 34.2459C72.4866 34.3424 72.6254 34.4812 72.722 34.6483C72.8185 34.8155 72.8693 35.0051 72.8693 35.1981V46.8719C72.8693 47.2649 72.6598 47.6279 72.319 47.8245L62.2091 53.6602C62.0418 53.7569 61.852 53.8078 61.6588 53.8077" fill="#F5F2ED"/>
<path d="M61.6594 53.8073C61.3679 53.8073 61.0882 53.6915 60.882 53.4854C60.6758 53.2793 60.5599 52.9997 60.5598 52.7081V41.6697L53.7668 37.7479C53.6417 37.6757 53.5321 37.5795 53.4442 37.4649C53.3562 37.3503 53.2917 37.2195 53.2544 37.0799C53.217 36.9404 53.2074 36.7949 53.2263 36.6517C53.2452 36.5084 53.2921 36.3703 53.3643 36.2453C53.4365 36.1202 53.5327 36.0105 53.6473 35.9226C53.7619 35.8347 53.8927 35.7702 54.0322 35.7328C54.1718 35.6954 54.3173 35.6859 54.4605 35.7047C54.6037 35.7236 54.7418 35.7705 54.8669 35.8427L62.2093 40.0827C62.3765 40.1792 62.5153 40.3181 62.6118 40.4853C62.7083 40.6525 62.7591 40.8422 62.7591 41.0352V52.7081C62.7591 52.9998 62.6432 53.2795 62.437 53.4857C62.2308 53.6919 61.9511 53.8073 61.6594 53.8073Z" fill="#F5F2ED"/>
<path d="M61.6597 42.1346C61.4176 42.1347 61.1822 42.055 60.9901 41.9077C60.798 41.7604 60.6598 41.5538 60.597 41.32C60.5343 41.0862 60.5504 40.8382 60.643 40.6145C60.7355 40.3908 60.8993 40.2039 61.1089 40.0828L71.2193 34.2457C71.4713 34.1094 71.7665 34.0768 72.0421 34.1548C72.3178 34.2328 72.5521 34.4152 72.6954 34.6633C72.8386 34.9114 72.8794 35.2056 72.8091 35.4833C72.7388 35.761 72.563 36.0003 72.319 36.1504L62.2086 41.9875C62.0418 42.084 61.8524 42.1348 61.6597 42.1346ZM41.4398 30.4608C41.1482 30.4608 40.8685 30.3449 40.6623 30.1387C40.4561 29.9325 40.3402 29.6528 40.3402 29.3611V17.6873C40.3402 17.2947 40.5497 16.9317 40.8905 16.7352L50.9995 10.898C51.1667 10.8017 51.3563 10.751 51.5493 10.751C51.7423 10.751 51.9319 10.8017 52.0991 10.898L62.2081 16.7352C62.3753 16.8316 62.5142 16.9704 62.6108 17.1375C62.7074 17.3046 62.7583 17.4942 62.7584 17.6873V26.0229C62.7584 26.3145 62.6425 26.5942 62.4363 26.8005C62.2301 27.0067 61.9504 27.1225 61.6588 27.1225C61.3671 27.1225 61.0874 27.0067 60.8812 26.8005C60.675 26.5942 60.5591 26.3145 60.5591 26.0229V18.3222L51.5493 13.1204L42.5395 18.3222V29.3611C42.5395 29.6528 42.4236 29.9325 42.2174 30.1387C42.0112 30.3449 41.7315 30.4608 41.4398 30.4608Z" fill="#F5F2ED"/>
<path d="M51.5484 32.9591C51.2567 32.9591 50.977 32.8432 50.7708 32.637C50.5646 32.4308 50.4487 32.1511 50.4487 31.8594V24.1587L40.8891 18.6402C40.6451 18.4901 40.4693 18.2508 40.399 17.9731C40.3287 17.6954 40.3695 17.4012 40.5127 17.1531C40.6559 16.905 40.8903 16.7226 41.1659 16.6446C41.4416 16.5666 41.7368 16.5992 41.9887 16.7355L52.0982 22.5722C52.2654 22.6687 52.4043 22.8076 52.5008 22.9748C52.5973 23.142 52.6481 23.3317 52.648 23.5247V31.8599C52.648 32.1515 52.5322 32.4312 52.3259 32.6374C52.1197 32.8437 51.84 32.9591 51.5484 32.9591Z" fill="#F5F2ED"/>
<path d="M51.5507 24.6241C51.3086 24.6244 51.0732 24.5447 50.8809 24.3974C50.6887 24.2502 50.5505 24.0436 50.4877 23.8098C50.4249 23.5759 50.441 23.3279 50.5335 23.1042C50.6261 22.8804 50.7899 22.6935 50.9995 22.5724L61.109 16.7352C61.234 16.663 61.3721 16.6161 61.5153 16.5973C61.6584 16.5784 61.8039 16.588 61.9434 16.6254C62.0829 16.6627 62.2137 16.7272 62.3282 16.8151C62.4428 16.9031 62.5389 17.0127 62.6111 17.1377C62.6833 17.2628 62.7302 17.4009 62.7491 17.5441C62.7679 17.6872 62.7584 17.8327 62.721 17.9722C62.6836 18.1117 62.6191 18.2425 62.5312 18.357C62.4433 18.4716 62.3337 18.5677 62.2086 18.6399L52.1001 24.4771C51.9331 24.5736 51.7436 24.6244 51.5507 24.6241ZM31.3295 44.6326C31.0379 44.6326 30.7582 44.5168 30.5519 44.3106C30.3457 44.1043 30.2299 43.8246 30.2299 43.533V35.1983C30.2299 34.8052 30.4393 34.4422 30.7801 34.2457L40.8901 28.409C41.0572 28.3125 41.2468 28.2616 41.4399 28.2616C41.6329 28.2616 41.8225 28.3125 41.9897 28.409L49.2053 32.5782C49.3343 32.6483 49.4479 32.7436 49.5394 32.8583C49.631 32.973 49.6987 33.1049 49.7385 33.2462C49.7783 33.3875 49.7893 33.5353 49.7711 33.681C49.7528 33.8266 49.7056 33.9672 49.6322 34.0943C49.5588 34.2214 49.4607 34.3325 49.3436 34.4211C49.2266 34.5097 49.093 34.5739 48.9507 34.6101C48.8084 34.6462 48.6604 34.6535 48.5152 34.6315C48.3701 34.6095 48.2309 34.5587 48.1057 34.482L41.4399 30.631L32.4296 35.8327V43.5325C32.4296 43.8242 32.3137 44.1039 32.1075 44.3101C31.9013 44.5163 31.6216 44.6322 31.33 44.6322M41.4399 53.8075C41.2503 53.8075 41.0598 53.759 40.8901 53.6609L33.5468 49.4219C33.4217 49.3497 33.3121 49.2536 33.2241 49.139C33.1362 49.0244 33.0717 48.8936 33.0343 48.7541C32.9969 48.6146 32.9873 48.4691 33.0061 48.3259C33.025 48.1827 33.0718 48.0446 33.144 47.9195C33.2162 47.7944 33.3124 47.6848 33.427 47.5968C33.5415 47.5089 33.6723 47.4444 33.8118 47.407C33.9513 47.3696 34.0968 47.36 34.2401 47.3788C34.3833 47.3977 34.5213 47.4445 34.6464 47.5167L41.4399 51.4381L50.4502 46.2377V38.3932C50.4501 38.2488 50.4785 38.1058 50.5337 37.9724C50.589 37.8389 50.67 37.7177 50.7721 37.6156C50.8743 37.5136 50.9955 37.4326 51.1289 37.3774C51.2624 37.3222 51.4054 37.2939 51.5498 37.294C51.6942 37.2939 51.8371 37.3223 51.9705 37.3775C52.1039 37.4328 52.2251 37.5137 52.3272 37.6158C52.4292 37.7179 52.5102 37.8391 52.5654 37.9725C52.6206 38.1059 52.649 38.2488 52.649 38.3932V46.8721C52.649 47.2652 52.44 47.6282 52.0996 47.8247L41.9902 53.6605C41.823 53.7571 41.6334 53.808 41.4403 53.808" fill="#F5F2ED"/>
<path d="M41.4393 53.8074C41.1477 53.8074 40.8681 53.6916 40.6619 53.4855C40.4556 53.2794 40.3397 52.9998 40.3396 52.7082V44.2297C40.3396 43.9381 40.4555 43.6584 40.6617 43.4522C40.8679 43.2459 41.1476 43.1301 41.4393 43.1301C41.7309 43.1301 42.0106 43.2459 42.2168 43.4522C42.423 43.6584 42.5389 43.9381 42.5389 44.2297V52.7082C42.5389 52.9999 42.423 53.2795 42.2168 53.4858C42.0106 53.692 41.7309 53.8074 41.4393 53.8074ZM38.5445 40.4665C38.3577 40.4665 38.1685 40.4194 37.9956 40.3186L30.7791 36.1503C30.6539 36.0782 30.5443 35.9821 30.4563 35.8675C30.3684 35.753 30.3039 35.6222 30.2665 35.4827C30.2292 35.3432 30.2197 35.1977 30.2386 35.0546C30.2575 34.9114 30.3044 34.7734 30.3768 34.6483C30.4487 34.5231 30.5448 34.4133 30.6593 34.3253C30.7738 34.2372 30.9046 34.1726 31.0442 34.1353C31.1837 34.0979 31.3293 34.0884 31.4725 34.1074C31.6157 34.1265 31.7537 34.1736 31.8787 34.246L39.0952 38.4152C39.3053 38.536 39.4696 38.7227 39.5625 38.9465C39.6554 39.1703 39.6717 39.4185 39.6089 39.6525C39.5462 39.8865 39.4078 40.0932 39.2154 40.2404C39.0229 40.3877 38.7868 40.4671 38.5445 40.4665ZM26.5724 69.6176C26.3296 69.446 26.1581 69.1316 26.1581 68.7889C26.1581 68.2169 26.6154 67.7744 27.1865 67.7744C27.4732 67.7744 27.673 67.8742 27.8154 67.9741C28.5738 68.5313 29.4029 68.8749 30.3744 68.8749C31.2752 68.8749 31.8186 68.5175 31.8186 67.9311V67.902C31.8186 67.3448 31.475 67.0595 29.8033 66.6303C27.7867 66.1157 26.4864 65.5584 26.4864 63.5719V63.5427C26.4864 61.7273 27.9449 60.5268 29.9892 60.5268C31.2036 60.5268 32.2611 60.8413 33.1614 61.4138C33.3118 61.5038 33.4358 61.6316 33.5213 61.7846C33.6067 61.9375 33.6505 62.1102 33.6484 62.2854C33.6484 62.8565 33.1906 63.3 32.6186 63.3C32.4217 63.3007 32.2286 63.2461 32.0613 63.1423C31.3321 62.7141 30.6463 62.4713 29.9601 62.4713C29.1162 62.4713 28.6737 62.8565 28.6737 63.343V63.3707C28.6737 64.0292 29.1023 64.2428 30.8318 64.6863C32.8613 65.2158 34.0049 65.9441 34.0049 67.6884V67.7161C34.0049 69.704 32.49 70.8185 30.3314 70.8185C29.0163 70.8185 27.6864 70.418 26.5719 69.618M35.1471 66.3871V61.6843C35.1471 61.0692 35.6326 60.5837 36.2477 60.5837C36.3925 60.5826 36.5361 60.6103 36.6701 60.6652C36.8042 60.7201 36.9259 60.8012 37.0283 60.9036C37.1308 61.006 37.2118 61.1278 37.2667 61.2618C37.3216 61.3958 37.3493 61.5394 37.3482 61.6843V66.3302C37.3482 67.9602 38.1635 68.8032 39.5063 68.8032C40.8497 68.8032 41.6649 67.988 41.6649 66.4024V61.6843C41.6638 61.5394 41.6915 61.3958 41.7464 61.2618C41.8014 61.1278 41.8824 61.006 41.9848 60.9036C42.0872 60.8012 42.209 60.7201 42.343 60.6652C42.477 60.6103 42.6206 60.5826 42.7655 60.5837C43.3805 60.5837 43.866 61.0692 43.866 61.6843V66.3163C43.866 69.3461 42.1653 70.8323 39.4777 70.8323C36.791 70.8323 35.1471 69.3323 35.1471 66.3871ZM45.0632 65.7009V65.6731C45.0632 62.8274 47.2782 60.4986 50.3085 60.4986C51.8234 60.4986 52.8241 60.8413 53.7258 61.4702C53.9399 61.6274 54.1827 61.928 54.1827 62.3562C54.1827 62.6444 54.0682 62.9208 53.8644 63.1246C53.6606 63.3284 53.3842 63.4429 53.096 63.4429C52.7815 63.4429 52.5818 63.3277 52.4255 63.214C51.8234 62.7858 51.1802 62.5282 50.2382 62.5282C48.6368 62.5282 47.3643 63.9432 47.3643 65.644V65.6731C47.3643 67.5025 48.622 68.8458 50.3945 68.8458C51.1954 68.8458 51.9094 68.646 52.4666 68.2456V66.8167H50.9809C50.4514 66.8167 50.0227 66.4019 50.0227 65.8733C50.0227 65.3434 50.4514 64.9147 50.9809 64.9147H53.4964C53.6412 64.9137 53.7848 64.9415 53.9188 64.9964C54.0528 65.0513 54.1746 65.1324 54.277 65.2348C54.3794 65.3372 54.4604 65.4589 54.5153 65.5929C54.5703 65.7269 54.598 65.8705 54.597 66.0153V68.4453C54.597 69.0886 54.3542 69.532 53.8252 69.8465C53.01 70.3468 51.8234 70.8471 50.3238 70.8471C47.207 70.8471 45.0632 68.6599 45.0632 65.7009ZM61.5745 66.487L60.1881 63.1853L58.8022 66.487H61.5745ZM55.3854 69.2606L58.873 61.3846C59.1167 60.8413 59.5592 60.5125 60.1595 60.5125H60.288C60.8882 60.5125 61.3178 60.8408 61.5606 61.3846L65.0482 69.2606C65.1198 69.4173 65.1628 69.5612 65.1628 69.704C65.1628 70.2904 64.7051 70.7616 64.1192 70.7616C63.6049 70.7616 63.2614 70.461 63.0616 70.0032L62.3892 68.431H57.987L57.2869 70.0754C57.1015 70.504 56.7288 70.7616 56.2714 70.7616C55.6999 70.7616 55.2564 70.3038 55.2564 69.7318C55.2564 69.5746 55.3133 69.4173 55.3854 69.2601M70.496 65.5298C71.5688 65.5298 72.1829 64.9577 72.1829 64.1148V64.0861C72.1829 63.1423 71.5262 62.6567 70.4534 62.6567H68.2662V65.5302L70.496 65.5298ZM66.0646 61.7698C66.0635 61.625 66.0913 61.4814 66.1462 61.3474C66.2012 61.2134 66.2822 61.0917 66.3846 60.9893C66.487 60.8869 66.6087 60.8058 66.7427 60.7509C66.8767 60.696 67.0203 60.6682 67.1651 60.6693H70.6388C71.911 60.6693 72.8978 61.0272 73.5549 61.6843C74.1125 62.2424 74.4131 63.0285 74.4131 63.9709V64.0001C74.4131 65.5723 73.627 66.5448 72.4113 67.0451L73.9405 68.9027C74.1551 69.1746 74.298 69.403 74.298 69.747C74.298 70.3611 73.7838 70.7616 73.2543 70.7616C72.7553 70.7616 72.4256 70.5188 72.169 70.1891L70.0247 67.4738H68.2657V69.661C68.2669 69.8059 68.2392 69.9495 68.1843 70.0836C68.1294 70.2176 68.0484 70.3394 67.946 70.4419C67.8435 70.5443 67.7217 70.6253 67.5877 70.6802C67.4536 70.7351 67.31 70.7628 67.1651 70.7616C67.0203 70.7626 66.8767 70.7349 66.7427 70.68C66.6087 70.625 66.487 70.544 66.3846 70.4416C66.2822 70.3392 66.2012 70.2174 66.1462 70.0834C66.0913 69.9494 66.0635 69.8059 66.0646 69.661V61.7698ZM33.1073 76.0637C33.1063 75.9189 33.1341 75.7753 33.189 75.6413C33.2439 75.5073 33.325 75.3856 33.4274 75.2832C33.5298 75.1808 33.6515 75.0997 33.7855 75.0448C33.9195 74.9899 34.0631 74.9621 34.2079 74.9632H39.812C40.3692 74.9632 40.8127 75.4066 40.8127 75.9638C40.8134 76.0955 40.788 76.2259 40.738 76.3476C40.688 76.4694 40.6143 76.58 40.5212 76.6731C40.4282 76.7661 40.3175 76.8398 40.1958 76.8898C40.0741 76.9399 39.9436 76.9653 39.812 76.9645H35.308V79.0949H39.1688C39.3003 79.094 39.4308 79.1193 39.5525 79.1692C39.6742 79.2192 39.7849 79.2927 39.8779 79.3857C39.971 79.4787 40.0447 79.5893 40.0948 79.711C40.1448 79.8327 40.1702 79.9631 40.1694 80.0946C40.1703 80.2263 40.145 80.3568 40.095 80.4786C40.045 80.6004 39.9714 80.7111 39.8783 80.8042C39.7852 80.8972 39.6745 80.9709 39.5527 81.0209C39.4309 81.0709 39.3004 81.0962 39.1688 81.0953H35.3085V83.9545C35.3097 84.0993 35.2821 84.243 35.2272 84.3771C35.1723 84.5112 35.0913 84.633 34.9889 84.7354C34.8864 84.8379 34.7646 84.9189 34.6305 84.9738C34.4964 85.0287 34.3528 85.0563 34.2079 85.055C34.0631 85.0562 33.9195 85.0284 33.7854 84.9735C33.6514 84.9186 33.5296 84.8376 33.4272 84.7352C33.3248 84.6327 33.2438 84.511 33.1889 84.377C33.1339 84.2429 33.1062 84.0993 33.1073 83.9545V76.0637ZM46.1102 79.8237C47.183 79.8237 47.7971 79.2512 47.7971 78.4087V78.3795C47.7971 77.4362 47.1404 76.9506 46.0676 76.9506H43.8804V79.8237H46.1102ZM41.6788 76.0633C41.6777 75.9184 41.7055 75.7749 41.7604 75.6409C41.8154 75.5069 41.8964 75.3851 41.9988 75.2827C42.1012 75.1803 42.223 75.0993 42.357 75.0443C42.4909 74.9894 42.6345 74.9616 42.7794 74.9627H46.2531C47.5252 74.9627 48.512 75.3206 49.1691 75.9777C49.7263 76.5359 50.0273 77.322 50.0273 78.2644V78.2935C50.0273 79.8657 49.2412 80.8382 48.0255 81.3386L49.5547 83.1961C49.7693 83.468 49.9122 83.6964 49.9122 84.0405C49.9122 84.6546 49.398 85.055 48.8685 85.055C48.3682 85.055 48.0399 84.8123 47.7832 84.4826L45.639 81.7672H43.8799V83.9545C43.8811 84.0993 43.8534 84.243 43.7985 84.377C43.7436 84.5111 43.6626 84.6329 43.5602 84.7353C43.4577 84.8377 43.336 84.9188 43.2019 84.9737C43.0678 85.0285 42.9242 85.0562 42.7794 85.055C42.6345 85.0561 42.4909 85.0283 42.357 84.9734C42.223 84.9185 42.1012 84.8374 41.9988 84.735C41.8964 84.6326 41.8154 84.5109 41.7604 84.3769C41.7055 84.2429 41.6777 84.0993 41.6788 83.9545V76.0633ZM51.4877 83.8685V76.0637C51.4866 75.9189 51.5144 75.7753 51.5693 75.6413C51.6243 75.5073 51.7053 75.3856 51.8077 75.2832C51.9101 75.1808 52.0318 75.0997 52.1658 75.0448C52.2998 74.9899 52.4434 74.9621 52.5882 74.9632H58.1354C58.6774 74.9632 59.1204 75.4071 59.1204 75.95C59.1204 76.4933 58.6774 76.922 58.1354 76.922H53.6749V78.9511H57.4908C58.0342 78.9511 58.4776 79.395 58.4776 79.9379C58.4776 80.4812 58.0337 80.9099 57.4908 80.9099H53.6749V83.0111H58.2062C58.7495 83.0111 59.193 83.4551 59.193 83.9979C59.193 84.5413 58.7491 84.9695 58.2062 84.9695H52.5878C52.4429 84.9705 52.2994 84.9428 52.1654 84.8878C52.0314 84.8329 51.9096 84.7519 51.8072 84.6495C51.7048 84.5471 51.6238 84.4253 51.5688 84.2913C51.5139 84.1573 51.4862 84.0138 51.4872 83.8689M60.4864 83.8685V76.0637C60.4853 75.9189 60.5131 75.7753 60.568 75.6413C60.623 75.5073 60.704 75.3856 60.8064 75.2832C60.9088 75.1808 61.0305 75.0997 61.1645 75.0448C61.2985 74.9899 61.4421 74.9621 61.5869 74.9632H67.1342C67.6761 74.9632 68.1196 75.4071 68.1196 75.95C68.1196 76.4933 67.6761 76.922 67.1346 76.922H62.6736V78.9511H66.4909C67.0329 78.9511 67.4763 79.395 67.4763 79.9379C67.4763 80.4812 67.0329 80.9099 66.4914 80.9099H62.6736V83.0111H67.2054C67.7482 83.0111 68.1917 83.4551 68.1917 83.9979C68.1917 84.5413 67.7482 84.9695 67.2049 84.9695H61.5869C61.4421 84.9705 61.2985 84.9428 61.1645 84.8878C61.0305 84.8329 60.9088 84.7519 60.8064 84.6495C60.704 84.5471 60.623 84.4253 60.568 84.2913C60.5131 84.1573 60.4853 84.0138 60.4864 83.8689" fill="#F5F2ED"/>
</g>
</g>
<defs>
<clipPath id="clip0_2127_3273">
<rect width="100" height="100" fill="white"/>
</clipPath>
</defs>
</svg>
