<svg width="155" height="32" viewBox="0 0 155 32" fill="none" xmlns="http://www.w3.org/2000/svg">
<mask id="mask0_2127_2881" style="mask-type:alpha" maskUnits="userSpaceOnUse" x="0" y="0" width="155" height="32">
<path d="M15.1992 31.3644L17.9322 4.34068C18.086 2.95502 18.3556 2.72376 18.8176 2.72376H19.0869V1.18429H14.6601V2.72376H14.9296C15.5454 2.72376 15.8533 3.14742 15.7764 4.34068L14.1981 20.5088L12.389 4.34068C12.2347 3.07052 12.5426 2.72376 13.2361 2.72376H13.3127V1.18429H7.15348V2.72376H7.46192C8.03939 2.72376 8.03939 2.95502 8.15488 4.34068L8.61686 8.46015L7.19207 21.5482L5.5757 4.34068C5.38303 2.95502 5.6526 2.72376 6.26839 2.72376H6.34503V1.18429H0.108887V2.72376H0.417051C1.07143 2.72376 1.10975 2.95502 1.26383 4.34068L4.03541 31.3644H8.03912L9.61745 17.4673L11.2341 31.3644H15.1992ZM41.7232 13.6568C41.7232 11.7706 41.7232 11.116 42.9164 11.116C43.7249 11.116 43.7249 11.4239 43.7249 13.0022V29.1317C43.7249 29.7094 43.5322 29.8247 43.2243 29.8247H43.0322V31.3641H49.2298V29.8247H48.9602C48.5371 29.8247 48.4216 29.6703 48.4216 29.0545V12.1557C48.4216 9.38356 47.8441 8.30553 45.1108 8.30553C43.5322 8.30553 42.3778 8.80609 41.6463 10.538C41.3378 8.99849 40.5297 8.30553 38.4127 8.30553C36.6803 8.30553 35.7563 8.84468 35.0637 10.538V8.30553L29.7512 8.72918V10.2687H29.9819C30.3284 10.2687 30.5977 10.538 30.5977 11.3855V28.9388C30.5977 29.6317 30.4439 29.8247 29.9819 29.8247H29.7512V31.3641H35.6794V29.8247H35.4487C35.1406 29.8247 35.0637 29.7092 35.0637 29.2469V13.6568C35.0637 11.7706 35.0248 11.116 36.2181 11.116C37.0265 11.116 37.0265 11.4239 37.0265 13.0022V29.1317C37.0265 29.7094 36.8341 29.8247 36.5645 29.8247H36.2952V31.3641H42.3778V29.8247H42.3007C41.8775 29.8247 41.7232 29.6703 41.7232 29.0545V13.6568ZM85.0313 31.3644H92.4615V29.8249H91.9604C91.3063 29.8249 91.1139 29.5551 91.1139 28.208V16.5822H95.0404V28.2077C95.0404 29.5548 94.848 29.8247 94.2319 29.8247H93.6542V31.3641H101.046V29.8247H100.43C99.7749 29.8247 99.6599 29.5548 99.6599 28.2077V4.34068C99.6599 2.95502 99.7749 2.72376 100.43 2.72376H101.046V1.18429H93.6542V2.72376H94.2319C94.848 2.72376 95.0404 2.95502 95.0404 4.34068V14.7724H91.1139V4.34068C91.1139 2.95502 91.3063 2.72376 91.9604 2.72376H92.4615V1.18429H85.0313V2.72376H85.6859C86.302 2.72376 86.4944 2.95502 86.4944 4.34068V28.9773C86.4944 29.632 86.302 29.8249 85.6859 29.8249H85.0313V31.3644ZM141.159 31.3644H147.049V29.8249H146.857C146.472 29.8249 146.433 29.7094 146.433 29.2472V13.6568C146.433 11.7706 146.472 11.116 147.665 11.116C148.55 11.116 148.55 11.4239 148.55 13.0022V29.1317C148.55 29.7094 148.397 29.8247 148.127 29.8247H147.857V31.3641H154.094V29.8247H153.824C153.401 29.8247 153.324 29.6703 153.324 29.0545V12.1557C153.324 9.38356 152.631 8.30553 149.936 8.30553C148.166 8.30553 147.165 8.84468 146.433 10.538V0.722046L140.774 1.18429V2.72376H141.352C141.736 2.72376 141.968 2.95502 141.968 3.80207V28.9388C141.968 29.6317 141.852 29.8247 141.352 29.8247H141.159V31.3644ZM23.5142 31.6337C28.4422 31.6337 29.1349 27.5148 29.1349 19.9696C29.1349 12.3864 28.4033 8.30553 23.5142 8.30553C18.6257 8.30553 17.8944 12.3864 17.8944 19.9696C17.8942 27.5148 18.5871 31.6337 23.5142 31.6337ZM60.8172 31.3644H66.7455V29.8249H66.4756C66.1299 29.8249 66.1299 29.7094 66.1299 29.2472V13.6568C66.1299 11.7706 66.1299 11.116 67.361 11.116C68.208 11.116 68.2469 11.4239 68.2469 13.0022V29.1317C68.2469 29.7094 68.0162 29.8247 67.7846 29.8247H67.5148V31.3641H73.7515V29.8247H73.4822C73.0585 29.8247 72.9435 29.6703 72.9435 29.0545V12.1557C72.9435 9.38356 72.2889 8.30553 69.5551 8.30553C67.8238 8.30553 66.7838 8.84468 66.1299 10.538V8.30553L60.4321 8.72918V10.2687H61.0482C61.3949 10.2687 61.6637 10.538 61.6637 11.3855V28.9388C61.6637 29.6317 61.5104 29.8247 61.0482 29.8247H60.8175V31.3644H60.8172ZM115.443 31.6337C117.483 31.6337 118.253 30.6334 118.676 29.4396C119.061 31.2103 119.485 31.6337 121.795 31.6337C124.489 31.6337 124.836 30.0173 124.798 26.8604H123.527C123.527 29.132 123.488 29.3627 123.065 29.3627C122.68 29.3627 122.68 29.1703 122.68 27.8996V12.9253C122.68 9.88412 121.68 8.3058 118.138 8.3058C115.328 8.3058 112.556 9.15284 112.709 12.1937C112.787 13.5799 113.326 15.0425 114.789 14.9653C116.136 14.8884 116.752 14.1574 116.752 13.0405C116.752 12.2709 116.174 11.0002 115.251 10.3072C115.597 10.1534 116.136 9.99881 117.021 9.99881C118.023 9.99881 118.215 10.7689 118.215 12.2318V16.4276C113.095 18.16 112.017 18.853 112.017 25.2818C112.017 29.9018 113.134 31.6337 115.443 31.6337ZM106.628 31.6337C110.438 31.6337 111.324 30.479 111.131 24.166H109.553C109.553 29.1703 109.399 29.5551 107.628 29.5551C105.511 29.5551 105.511 28.6311 105.511 20.0473V19.3538H111.67C111.67 10.6929 110.708 8.30607 106.627 8.30607C102.932 8.30607 101.007 10.5776 101.007 20.124C101.008 29.2086 102.47 31.6726 106.628 31.6337ZM55.4659 31.6337C59.2006 31.6337 60.2397 30.479 60.0854 24.166H58.5079C58.5079 29.1703 58.2769 29.5551 56.4673 29.5551C54.196 29.5551 54.3115 28.6311 54.3115 20.0473V19.3538H60.2783C60.2783 10.6929 59.4701 8.30607 55.4662 8.30607C51.7328 8.30607 49.8078 10.5776 49.8078 20.124C49.8075 29.2086 51.2701 31.6726 55.4659 31.6337ZM125.645 31.3644H131.805V29.8249H131.343C130.957 29.8249 130.803 29.632 130.803 29.0165V0.722046L125.068 1.18429V2.72376H125.722C126.107 2.72376 126.261 2.87758 126.261 3.4939V29.0934C126.261 29.6706 126.222 29.8249 125.953 29.8249H125.645V31.3644H125.645ZM80.6811 31.6337C83.4918 31.6337 84.9549 29.7858 84.9549 27.0148C84.9549 20.509 79.0647 16.7363 79.0647 12.0782C79.0647 10.6537 79.5653 10.2303 80.5662 10.2303C82.0287 10.2303 82.26 10.8464 82.5293 13.0405L82.7597 15.196H84.4535V8.49793H83.107C83.0296 9.34551 82.8377 9.65314 82.7597 9.53737C82.3372 9.03708 81.3357 8.3058 79.6808 8.3058C77.2168 8.3058 75.0613 9.42215 75.0613 13.0791C75.0613 18.7764 80.9126 23.1265 80.9126 27.4765C80.9126 29.3627 80.4895 29.6706 79.1419 29.6706C77.7948 29.6706 77.4486 29.0551 77.1793 26.2063L76.9864 24.3195H75.2156V31.3644H76.7551C76.8711 30.5943 77.141 30.0942 77.3712 30.325C77.8715 30.9027 78.4101 31.6337 80.6811 31.6337ZM132.959 26.5914C132.959 30.248 133.498 31.6337 137.116 31.6337C139.657 31.6337 140.235 30.6334 140.235 27.8232V24.0116H138.695V28.0156C138.695 29.3627 138.58 29.5165 138.079 29.5165C137.579 29.5165 137.463 29.3627 137.463 28.1694V10.2303H140.274V8.49793H137.502V2.72376H135.924C134.807 7.84409 133.845 8.49793 132.344 8.49793H131.921V10.1917H132.959L132.959 26.5914ZM23.5142 29.6703C22.437 29.6703 22.437 29.0548 22.437 19.9696C22.437 10.8464 22.437 10.2303 23.5142 10.2303C24.5923 10.2303 24.5923 10.8464 24.5923 19.9696C24.5923 29.0934 24.5923 29.6703 23.5142 29.6703ZM74.2911 9.46101C78.1402 6.6117 78.9106 4.45617 77.6399 2.49304C76.947 1.41528 75.3684 0.722316 74.2137 1.68459C72.8275 2.83926 73.1743 4.84151 75.7537 5.99645C75.2915 6.53507 74.2137 7.57505 73.3283 8.46042L74.2911 9.46101ZM117.291 28.9388C116.367 28.9388 116.367 27.977 116.367 24.9359C116.367 19.3924 116.367 18.6609 118.215 17.66V27.1683C118.215 28.5925 118.023 28.9388 117.291 28.9388ZM54.3112 17.7372C54.3881 10.5382 54.5039 10.192 55.5047 10.192C56.467 10.192 56.3904 10.5774 56.3904 17.7372H54.3112ZM105.512 17.7372C105.627 10.5382 105.704 10.192 106.705 10.192C107.706 10.192 107.552 10.5774 107.552 17.7372H105.512Z" fill="black"/>
</mask>
<g mask="url(#mask0_2127_2881)">
<rect x="-2.4986" y="-5.32068" width="165.895" height="49.302" fill="#979494"/>
</g>
</svg>
