<svg width="74" height="75" viewBox="0 0 74 75" fill="none" xmlns="http://www.w3.org/2000/svg">
<circle cx="37.1342" cy="37.696" r="36.3298" stroke="#24C433"/>
<mask id="mask0_2127_3396" style="mask-type:luminance" maskUnits="userSpaceOnUse" x="12" y="12" width="51" height="51">
<path d="M12 12H63V63H12V12Z" fill="white"/>
</mask>
<g mask="url(#mask0_2127_3396)">
<path d="M58.9721 26.9462C58.9269 26.8954 58.8798 26.8527 58.8311 26.8189C58.1651 26.3578 57.0892 26.8702 58.2163 24.1034C59.3435 21.3367 56.628 22.054 56.1156 23.7961C55.6033 25.538 53.81 25.4355 53.1439 26.9727C52.4779 28.5098 52.6828 30.4056 50.121 30.8153C48.7391 31.0365 47.9177 30.9691 47.2005 33.0185C46.4832 35.068 45.151 33.9153 44.3825 34.0305C43.6139 34.1458 41.2059 35.3755 41.5645 33.2747C41.9232 31.174 39.3613 31.2765 38.0292 32.8648C36.697 34.4532 36.902 34.7606 35.4674 35.3755C34.0327 35.9903 33.1617 33.8383 32.1882 35.0168C31.2148 36.1952 30.7536 36.8613 30.19 36.2464C29.6265 35.6316 28.7042 36.2595 27.5769 35.9455C26.4497 35.6316 24.6565 36.3746 24.8103 34.0305C24.9639 31.6864 24.4516 30.2519 22.4021 31.8401C20.3526 33.4285 20.8137 35.273 17.8933 35.3755C16.3177 35.4307 15.965 36.1421 15.9742 36.8982C15.9816 37.5057 16.0269 38.1183 15.8829 38.7085C15.5413 40.1089 15.1855 41.8127 15.398 41.9949M58.9721 26.9727C59.202 28.0082 59.6022 30.1986 59.3631 30.6768" stroke="#24C433" stroke-miterlimit="10" stroke-linecap="round" stroke-linejoin="round"/>
<path d="M15.3452 41.1824C15.2442 41.8505 15.3066 42.5987 15.7426 43.3901C16.9722 45.6225 14.0517 45.6737 13.5394 45.6225C13.027 45.5713 11.8999 47.2621 13.8468 48.338C15.7938 49.4139 15.1277 51.156 15.8963 51.3097C16.6648 51.4634 16.7673 48.9017 17.8433 49.0041C18.9192 49.1066 17.8433 46.6472 19.2778 46.3911C20.7125 46.1348 21.5323 46.4056 21.7372 47.0388C21.9422 47.672 23.2231 49.209 24.6576 48.8504C26.0923 48.4917 24.5552 47.3645 26.7584 47.467C28.9616 47.5695 29.8838 47.672 29.9862 48.6967C30.0887 49.7214 32.0357 48.543 32.5481 50.4387C33.0605 52.3345 34.8538 52.7444 35.9809 52.7444C37.1081 52.7444 37.5692 51.3097 39.4651 51.9758C41.3607 52.6419 40.7971 50.6436 41.4119 50.6436C42.0267 50.6436 43.1028 51.5147 44.8961 51.1048C46.6893 50.6949 49.4049 52.4369 49.5586 49.8751C49.7123 47.3133 49.866 45.6737 51.1982 46.4423C52.5303 47.2109 52.5303 48.0306 54.6309 47.672C56.7316 47.3133 56.0656 46.918 56.7316 47.0388C57.3977 47.1596 57.6026 47.9282 57.1927 49.2602C56.7829 50.5924 58.6786 51.9758 59.3447 48.8504C60.0107 45.725 58.986 45.2638 58.32 43.9317C57.6538 42.5996 57.0903 41.831 56.2705 42.036C55.4508 42.2409 53.7599 43.112 53.9649 41.5748C54.1699 40.0377 54.0764 38.8551 55.0499 38.189C56.0233 37.5229 55.5843 35.7431 55.4818 34.6159C55.3793 33.4887 56.6805 33.0696 57.2952 33.2233C57.91 33.377 58.0166 34.4066 58.1994 35.5802C58.4984 37.4991 60.5062 38.1526 61.6846 38.4088C62.863 38.6651 62.009 35.6827 60.933 34.3505C59.857 33.0183 58.7298 32.1986 59.2934 30.8152C59.3427 30.6943 59.3849 30.5675 59.4205 30.4364" stroke="#24C433" stroke-miterlimit="10" stroke-linecap="round" stroke-linejoin="round"/>
</g>
<path d="M12.8218 47.187L16.0342 50.5115L17.7898 48.345L18.4248 46.8135L20.0684 46.1038L21.936 47.2991L24.4014 48.8306L26.0449 47.2991L28.8091 47.5979L30.0791 48.9426L31.7227 49.3162L33.2915 51.52L35.5701 52.6033L37.8113 51.8936H39.9778L41.2478 50.5115L48.8679 51.0344L49.3535 48.9426L49.7271 46.8135L51.0344 46.1038L52.678 47.187L54 47.5L55.2554 47.187L56.4133 46.8135L57.3098 47.7847V49.3162L57.7954 50.5115H58.7666L59.439 48.345L59.1775 45.7302L57.7954 43.4517L57.3098 42.7046L56.4133 42.2937L54.1721 42.7046L53.6865 41.7708L54.1721 38.6704L55 38L55.2554 36.728V34.0759L56.4133 32.8806L57.7954 33.4409L59.1775 37.0642L60.5 38L62.1658 37.9607L61.2319 35.4954L59.439 32.0962V30.4526L59.1775 27.3896L57.7954 26.1196L58.3557 23.6917L57.7954 22.2722L55.853 24.6628L54 26.1196L53 27.3896L52.678 29.2573L51.0344 30.7515L48.3823 31.6106L46.7014 34.0759H44.8711L42.7793 34.5615L41.6213 34.0759L41.2478 32.395L39.9778 32.0962L38.4836 32.8806L34.9724 35.4954L32.6938 35.0471L30.6768 36.2798L29.0706 35.8315H26.3438L24.7002 35.0471V32.0962L24 31.5L23.0193 31.6106L19.0972 35.0471L16.0342 36.2798V39.4175L15.5 41.5L16.0342 43.4517V45.0579L13.4194 46.1038L12.8218 47.187Z" fill="#24C433"/>
</svg>
