<svg width="78" height="78" viewBox="0 0 78 78" fill="none" xmlns="http://www.w3.org/2000/svg">
<circle cx="38.5856" cy="38.5496" r="36.3298" stroke="#24C433"/>
<path fill-rule="evenodd" clip-rule="evenodd" d="M38.732 16.6309C50.9171 16.6309 60.7972 26.5092 60.7972 38.6961C60.7972 50.8811 50.9169 60.7615 38.732 60.7615C26.5451 60.7615 16.6666 50.8811 16.6666 38.6961C16.6666 26.5092 26.5451 16.6309 38.732 16.6309Z" fill="#24C433"/>
<path d="M38.732 62.7104C25.4907 62.7104 14.718 51.9379 14.718 38.6964C14.718 25.4551 25.4905 14.6826 38.732 14.6826C51.9735 14.6826 62.7458 25.4551 62.7458 38.6964C62.7458 51.9379 51.9733 62.7104 38.732 62.7104ZM38.732 15.6383C26.0176 15.6383 15.6738 25.9822 15.6738 38.6964C15.6738 51.4108 26.0177 61.7547 38.732 61.7547C51.4463 61.7547 61.7902 51.4108 61.7902 38.6964C61.7902 25.982 51.4463 15.6383 38.732 15.6383Z" fill="#24C433"/>
<path d="M30.3111 45.1687C29.5682 45.6464 28.7987 46.0007 27.9988 46.2415C27.2028 46.4785 26.3764 46.596 25.5274 46.596C23.6056 46.596 22.0836 45.8852 20.9597 44.4675C19.8395 43.0499 19.2766 41.1279 19.2766 38.7001C19.2766 36.2476 19.849 34.3143 20.9919 32.9061C22.1348 31.4997 23.7003 30.7947 25.6885 30.7947C26.4561 30.7947 27.1915 30.8894 27.8928 31.0809C28.5978 31.2685 29.2612 31.551 29.8828 31.9282V35.08C29.2385 34.5968 28.5978 34.2329 27.9629 33.9978C27.3261 33.7571 26.6873 33.6376 26.0487 33.6376C24.8641 33.6376 23.9524 34.0773 23.3099 34.9511C22.6693 35.8248 22.3472 37.0758 22.3472 38.7001C22.3472 40.313 22.6561 41.5602 23.2759 42.4377C23.8938 43.3152 24.7751 43.7549 25.9142 43.7549C26.2231 43.7549 26.5112 43.7303 26.7785 43.6772C27.0419 43.626 27.2808 43.5445 27.493 43.4365V40.4722H25.6713V37.8397H30.3111V45.1687ZM32.9361 31.0674H36.7192L39.346 39.2211L41.99 31.0674H45.7731V46.3039H42.9567V35.1594L40.2956 43.3775H38.4116L35.7524 35.1594V46.3039H32.936L32.9361 31.0674ZM48.69 31.0674H53.6255C55.0944 31.0674 56.2221 31.4996 57.0086 32.36C57.7932 33.2205 58.1874 34.4468 58.1874 36.035C58.1874 37.6329 57.7932 38.8628 57.0086 39.7234C56.222 40.5838 55.0944 41.016 53.6255 41.016H51.6657V46.3039H48.69V31.0674ZM51.6656 33.9105V38.1731H53.3088C53.8869 38.1731 54.3322 37.9892 54.6469 37.6159C54.9595 37.2425 55.117 36.7175 55.117 36.0352C55.117 35.3548 54.9597 34.8297 54.6469 34.4601C54.3322 34.0944 53.8869 33.9105 53.3088 33.9105H51.6656Z" fill="black"/>
</svg>
