<svg width="75" height="75" viewBox="0 0 75 75" fill="none" xmlns="http://www.w3.org/2000/svg">
<circle cx="37.3298" cy="37.696" r="36.3298" stroke="#24C433"/>
<g clip-path="url(#clip0_2127_3375)">
<path d="M28.8497 30.864C29.585 30.2245 30.642 30.2387 31.2476 30.4242C30.8516 29.9408 29.9249 29.543 29.6533 29.4952C29.4456 29.5722 28.8497 30.1799 28.8497 30.864Z" fill="#24C433"/>
<path d="M46.9322 28.963C47.7705 29.0891 48.0355 29.6522 48.0862 29.8242C48.3708 29.5863 48.6339 28.7588 48.5311 28.2157C48.0479 25.6489 42.0406 27.3492 39.0147 26.2591C38.9568 27.0073 39.946 28.2059 40.8923 28.6502C39.2746 30.0435 37.8223 32.852 37.5298 36.2827C37.2374 32.852 35.785 30.0435 34.1673 28.6502C35.1136 28.2059 36.1035 27.0073 36.045 26.2591C33.0191 27.3492 27.0118 25.6489 26.5272 28.2157C26.4256 28.7588 26.6887 29.5863 26.9733 29.8242C27.0241 29.6522 27.2898 29.0891 28.1274 28.963C32.36 28.3281 35.8937 34.8039 32.7039 37.4226C32.6551 37.4626 32.6824 37.5356 32.7481 37.5356H42.3122C42.3772 37.5356 42.4046 37.4626 42.3564 37.4226C39.1657 34.8039 42.6997 28.3281 46.9322 28.963Z" fill="#24C433"/>
<path d="M41.1189 44.5494C41.2818 43.3812 40.4866 43.0449 39.6549 43.1821C39.5514 42.7799 39.4667 42.4288 39.3703 42.0809C39.2935 41.7997 39.2655 41.2709 39.5937 41.2709C39.7708 41.2709 39.6999 41.7628 39.6829 41.9743C39.6679 42.1605 39.7356 42.2729 39.8875 42.2782C39.9825 42.282 40.1011 42.1619 40.1714 42.0822C40.6474 41.5476 40.7582 40.72 40.2001 40.321C39.7338 39.9855 38.5647 40.2351 38.2429 40.7123C38.1947 40.5325 37.963 40.2357 37.8516 40.1065C37.7434 39.9803 37.7154 39.8936 37.8653 39.783C37.9357 39.7294 38.1486 39.5194 38.1486 39.3021C38.1486 39.1734 38.0482 38.9361 37.7291 38.9361C37.4777 38.9361 37.1984 39.1087 37.1984 39.4947C37.1984 39.5801 37.2192 39.672 37.2753 39.7708C37.1162 39.745 36.6845 39.7552 36.4625 39.8097L39.5279 48.1611C40.4059 47.7312 41.0486 47.0504 41.0486 46.3198C41.0486 45.6971 40.1251 45.9034 39.6764 46.3896C39.5319 45.5995 39.4035 44.8709 39.2635 44.1441C39.2251 43.9437 39.3273 43.872 39.4895 43.8111C40.0339 43.6106 40.8872 43.773 40.8579 44.5534C40.8514 44.7299 41.1008 44.7299 41.1189 44.5494Z" fill="#24C433"/>
<path d="M49.5608 22.325C49.4846 22.0832 51.9666 22.0767 51.9666 23.6187C51.9666 24.6525 50.4823 25.142 50.4823 26.2147C50.4823 26.7137 51.0236 27.0803 51.1897 27.0803C50.8074 25.3586 52.388 26.2592 52.8153 26.5813C51.9666 24.2659 53.8768 24.2808 53.6886 23.2185C53.5577 22.477 51.8976 22.7006 51.2964 22.325C50.231 21.659 48.9694 19.0663 48.1384 21.659C49.6878 23.0872 48.7865 25.1893 46.819 25.1893C46.819 25.1893 46.8078 25.4976 46.8262 25.5221C49.1726 25.4078 49.9899 23.6963 49.5608 22.325Z" fill="#24C433"/>
<path d="M45.3823 29.4952C45.1094 29.5437 44.1845 29.9408 43.7872 30.4249C44.3936 30.2387 45.4507 30.2245 46.1852 30.864C46.1852 30.1799 45.59 29.5728 45.3823 29.4952Z" fill="#24C433"/>
<path d="M36.2996 44.7299C36.138 45.2084 36.2384 46.032 36.5548 46.3159C36.0045 46.3159 35.3514 46.418 35.0238 46.6495H35.0231C34.9449 46.2241 35.5408 45.4637 36.2996 44.7299ZM34.086 46.4549C33.9544 46.6514 33.8906 46.9877 33.8906 47.1312C33.8906 47.9588 34.8837 48.1256 35.2634 47.9504C36.3601 49.0043 38.5145 48.723 39.2355 48.3693L35.4424 38.0375C35.3651 37.8422 35.087 37.9352 35.1553 38.1383L35.7987 39.9143C35.2472 40.0449 34.3607 40.444 34.3607 40.9728C34.3607 41.6762 35.6152 42.1346 36.3399 42.0796C36.3041 42.24 36.3458 42.3828 36.4585 42.5141C36.1954 42.5141 35.699 42.6357 35.5356 42.8097C35.1513 42.454 34.5496 42.3247 34.2637 42.5412C33.9759 42.7599 33.9674 43.129 34.2677 43.5468C34.4766 43.8357 34.5548 44.1208 34.3204 44.4564C35.1944 44.4564 34.8721 43.3281 35.2145 43.3281C35.1697 43.5468 35.1977 43.7995 35.2966 44.0807C35.3631 44.2669 35.3631 44.3995 35.2497 44.5792C34.9678 45.0266 34.5295 46.0547 34.5886 46.9844C34.3022 46.9825 34.1563 46.9133 34.2572 46.5247C34.295 46.3799 34.2052 46.2764 34.086 46.4549Z" fill="#24C433"/>
<path d="M60.5049 34.8637C59.9186 35.1585 56.4813 36.7568 52.078 36.1659C52.1235 35.957 52.1621 35.7476 52.1939 35.5361C55.1239 35.1883 57.5063 34.6949 59.0252 33.8564C60.7556 32.9 61.5124 30.6177 60.6382 28.9193C60.6162 28.8766 60.5537 28.8689 60.5217 28.9045C60.043 29.4515 57.0335 32.7022 52.2916 33.7122C52.2799 33.4684 52.2571 33.2253 52.2246 32.9835C54.5274 31.6865 56.7757 30.193 57.8469 28.8268C59.4653 26.7612 59.3163 24.1271 57.7761 22.7835C57.7604 22.7699 57.7395 22.7634 57.718 22.7667C57.6972 22.7692 57.6789 22.7816 57.6672 22.799C57.18 23.5968 52.6192 30.9152 47.6116 34.0742C47.5509 34.1131 47.4891 34.1512 47.4272 34.1881C47.2833 34.2747 47.2677 34.4595 47.3902 34.5701C47.9671 35.0893 48.326 35.8121 48.326 36.6146C48.326 38.0099 47.243 39.1703 45.8108 39.4219C45.0834 39.5621 44.0322 39.5214 43.0233 39.1904C42.9778 39.1756 42.9308 39.2052 42.9308 39.2506V43.6697C42.9308 43.7409 43.0403 43.7583 43.0657 43.6904C43.6792 42.0773 45.515 41.7345 46.3182 41.7345C46.6073 43.4589 47.1238 44.8871 47.7938 45.6559C48.8861 46.9051 50.6694 46.887 51.4423 46.0238C51.4553 46.0096 51.4606 45.9902 51.4573 45.9715C51.4541 45.9527 51.4423 45.9359 51.4255 45.9268C50.9708 45.6676 48.3716 44.0835 47.8512 41.4876C48.0571 41.4172 48.257 41.3376 48.4491 41.2433C49.2879 42.6217 50.5091 43.8495 51.4925 44.3182C53.1441 45.1051 54.6558 44.7223 55.3265 43.5714C55.3507 43.5307 55.3213 43.4802 55.2718 43.4758C54.25 43.3943 51.1147 42.5027 49.7802 40.3289C49.9328 40.1899 50.0825 40.0446 50.2219 39.89C51.6189 40.9458 53.5936 41.8789 55.0081 42.0695C56.6623 42.2926 58.5367 41.7689 58.5822 39.8589C58.5828 39.8201 58.5483 39.7892 58.508 39.7917C57.9199 39.8266 54.0252 39.9948 51.2509 38.4139C51.3473 38.2315 51.4365 38.0466 51.5198 37.8586C51.5198 37.8586 55.7128 38.8419 57.6992 38.516C59.6737 38.1928 60.8298 36.7316 60.6064 34.9141C60.6006 34.8689 60.5472 34.8424 60.5049 34.8637Z" fill="#24C433"/>
<path d="M23.4825 37.8586C23.5659 38.0466 23.6558 38.2322 23.7528 38.4139C20.9791 39.9941 17.0864 39.8272 16.4957 39.7917C16.454 39.7892 16.4195 39.8221 16.4201 39.8595C16.4664 41.7689 18.3408 42.2931 19.995 42.0695C21.4082 41.8793 23.3842 40.9458 24.7805 39.8906C24.9206 40.0451 25.0697 40.1899 25.2221 40.3296C23.887 42.5027 20.7524 43.3943 19.7306 43.4757C19.6817 43.4802 19.6524 43.5307 19.6759 43.5714C20.3467 44.7223 21.8589 45.1051 23.5106 44.3189C24.4933 43.8495 25.7145 42.6217 26.5533 41.2439C26.7461 41.3376 26.9467 41.4172 27.1512 41.4876C26.6308 44.0835 24.0316 45.6682 23.5776 45.9275C23.5607 45.9365 23.549 45.9527 23.5457 45.9714C23.5425 45.9902 23.5477 46.0096 23.56 46.0238C24.3331 46.8876 26.117 46.9051 27.2091 45.6559C27.8799 44.8871 28.3951 43.4589 28.6843 41.7345C29.4879 41.7345 31.3232 42.0773 31.9367 43.6904C31.9634 43.7583 32.0723 43.7409 32.0723 43.6697V39.2506C32.0723 39.2052 32.0246 39.1756 31.9791 39.1903C30.9702 39.5214 29.9197 39.5621 29.1929 39.4219C27.7601 39.1703 26.6764 38.0099 26.6764 36.6146C26.6764 35.8121 27.0359 35.0887 27.6123 34.5689C27.7354 34.4595 27.7191 34.2746 27.5765 34.1881C27.5139 34.1505 27.4514 34.1131 27.3902 34.0742C22.3858 30.9165 17.8269 23.6034 17.3358 22.8003C17.313 22.7628 17.2583 22.7551 17.2245 22.7841C15.6868 24.1283 15.537 26.7618 17.1561 28.8268C18.2268 30.1923 20.475 31.6864 22.7772 32.9834C22.7447 33.2253 22.7225 33.4684 22.7108 33.7122C17.9728 32.7022 14.9652 29.4573 14.482 28.9069C14.45 28.8695 14.3856 28.8773 14.3634 28.92C13.492 30.6184 14.2488 32.9 15.9779 33.8564C17.4961 34.6942 19.8784 35.1876 22.8091 35.536C22.8404 35.7469 22.8788 35.957 22.9244 36.1652C18.5257 36.7561 15.0902 35.1612 14.4995 34.8644C14.4553 34.8424 14.4025 34.8695 14.3966 34.9154C14.1746 36.7329 15.3299 38.1928 17.3039 38.516C19.2897 38.8419 23.4825 37.8586 23.4825 37.8586Z" fill="#24C433"/>
<path d="M22.1878 26.5813C22.6144 26.2592 24.1957 25.3586 23.814 27.0803C23.9795 27.0803 24.5207 26.7137 24.5207 26.2147C24.5207 25.142 23.0358 24.6525 23.0358 23.6187C23.0358 22.0767 25.5178 22.0832 25.4416 22.325C25.013 23.6963 25.831 25.4084 28.1776 25.5221C28.1945 25.4976 28.1834 25.1893 28.1834 25.1893C26.2172 25.1893 25.3159 23.0872 26.8646 21.659C26.0329 19.0663 24.7721 21.659 23.7059 22.325C23.1048 22.7012 21.4447 22.477 21.3144 23.2185C21.1269 24.2808 23.0358 24.2659 22.1878 26.5813Z" fill="#24C433"/>
<path d="M43.7872 21.9151C43.7872 22.5049 44.165 22.9316 44.3629 23.0583C44.548 22.9316 44.9386 22.5049 44.9386 21.9151C44.9386 21.7665 44.7342 21.4386 44.3629 21.4386C43.9911 21.4386 43.7872 21.7665 43.7872 21.9151Z" fill="#24C433"/>
<path d="M36.4838 15.4813L37.1294 15.4115L37.0615 16.1692H37.9382L37.8705 15.4115L38.5159 15.4813V14.6557L37.8705 14.7255L37.9382 14.0001H37.0615L37.1294 14.7255L36.4838 14.6557V15.4813Z" fill="#24C433"/>
<path d="M36.6805 17.5199C36.6805 18.3571 37.2172 18.9629 37.498 19.1433C37.7604 18.9629 38.3153 18.3571 38.3153 17.5199C38.3153 17.309 38.0255 16.8436 37.498 16.8436C36.9703 16.8436 36.6805 17.309 36.6805 17.5199Z" fill="#24C433"/>
<path d="M32.151 25.5176C34.704 25.5176 35.8516 23.9625 36.1987 22.6139C36.7731 22.6139 37.2836 22.6139 38.7985 22.6139C39.1456 23.9625 40.2932 25.5176 42.8469 25.5176H45.8825C46.309 25.094 46.7141 24.3763 46.7141 23.6439C46.7141 22.5894 45.6968 22.5777 45.4148 22.5783C45.2181 23.3904 44.6769 23.7667 44.3728 23.914C44.0497 23.7752 43.5046 23.4188 43.3086 22.5757C43.0168 22.5803 42.0138 22.5932 42.0138 23.6439C42.0138 23.8733 42.066 24.1411 42.1812 24.4482C42.2425 24.611 42.3889 24.851 42.5276 25.0611C41.4506 24.9143 40.0756 24.1825 39.7742 22.6139C39.7742 22.6139 40.5699 21.359 40.77 20.8508C41.4876 19.0242 40.3219 18.2484 38.9815 18.2484C38.7946 19.114 38.1804 19.7387 37.4973 20.0419C36.8148 19.7387 36.2026 19.114 36.0157 18.2484C34.6753 18.2484 33.5103 19.0242 34.2272 20.8508C34.4273 21.359 35.2237 22.6139 35.2237 22.6139C34.9214 24.1825 33.5466 24.9143 32.4694 25.0611C32.6081 24.851 32.7547 24.611 32.8159 24.4482C32.9312 24.1411 32.9832 23.8733 32.9832 23.6439C32.9832 22.5932 31.9804 22.5803 31.6886 22.5757C31.4926 23.4188 30.9474 23.7752 30.625 23.914C30.3209 23.7667 29.7797 23.3904 29.583 22.5783C29.3004 22.5777 28.2831 22.5894 28.2831 23.6439C28.2831 24.3763 28.6882 25.094 29.1148 25.5176H32.151Z" fill="#24C433"/>
<path d="M45.1445 19.7289L44.643 19.7832L44.6957 19.1872H44.0328L44.0862 19.7832L43.5847 19.7289V20.3543L44.0862 20.2998L44.0328 20.896H44.6957L44.643 20.2998L45.1445 20.3543V19.7289Z" fill="#24C433"/>
<path d="M30.9643 19.1872H30.302L30.3541 19.7832L29.8533 19.7289V20.3543L30.3541 20.2998L30.302 20.896H30.9643L30.9117 20.2998L31.413 20.3543V19.7289L30.9117 19.7832L30.9643 19.1872Z" fill="#24C433"/>
<path d="M30.0584 21.9151C30.0584 22.5049 30.4492 22.9316 30.6341 23.0583C30.8321 22.9316 31.2106 22.5049 31.2106 21.9151C31.2106 21.7665 31.006 21.4386 30.6341 21.4386C30.2629 21.4386 30.0584 21.7665 30.0584 21.9151Z" fill="#24C433"/>
<path d="M49.889 48.7657L50.4471 48.7056L50.3885 49.3599H51.146L51.0873 48.7056L51.6448 48.7657V48.0519L51.0873 48.112L51.146 47.4855H50.3885L50.4471 48.112L49.889 48.0519V48.7657Z" fill="#24C433"/>
<path d="M51.1942 49.9327V51.9067H50.7494H50.7487H50.3404V49.9282C49.183 50.0821 48.2511 50.878 47.9827 51.9125C47.0586 52.0366 44.5662 51.4864 44.8091 51.1205C47.5549 47.2864 45.4545 45.004 42.9308 45.1308V47.706C42.9308 48.533 42.204 49.2028 41.3085 49.2028H39.5657C38.3153 49.2028 37.5012 50.4507 37.5012 50.4507C37.5012 50.4507 36.687 49.2028 35.4373 49.2028H33.6938C32.7977 49.2028 32.0727 48.533 32.0727 47.706V45.1308C29.5485 45.004 27.4462 47.2871 30.1932 51.1211C30.4342 51.4832 27.8591 52.0638 26.6516 51.917C26.3332 51.5899 25.874 51.383 25.3601 51.383C25.142 51.383 24.9251 51.4218 24.7206 51.4974C24.7206 51.4974 19.9741 47.0362 19.8869 46.9922L19.9259 46.9017C20.1962 46.4 19.7826 45.853 19.5208 45.8918C19.825 45.5297 19.8393 43.9457 18.1532 43.5791C18.2027 43.8972 18.2274 44.547 18.2274 44.547C18.2274 44.547 16.9262 43.8487 16.2729 44.4514C15.6992 45.1257 16.4957 46.3496 16.4957 46.3496C16.4957 46.3496 15.8301 46.3657 15.5018 46.3386C15.9844 47.9582 17.6028 47.8438 17.9526 47.5237C17.9298 47.7817 18.5153 48.1489 19.0109 47.8541L19.2291 47.7493C19.2675 47.8011 23.8902 52.1369 23.8902 52.1369C23.6779 52.4498 23.577 52.8332 23.6467 53.2431C23.7561 53.8825 24.2927 54.4127 24.9785 54.5498C25.4624 54.6468 25.9176 54.553 26.2824 54.341L27.5061 55.4685C27.6155 55.5668 27.7627 55.6282 27.9268 55.6166C28.2264 55.5966 28.4504 55.3554 28.4276 55.0793C28.4179 54.9545 28.3541 54.8479 28.2655 54.767C28.2459 54.745 27.0189 53.6149 27.0189 53.6149C28.031 52.9101 29.9164 52.4136 31.482 52.4136C31.757 52.4136 31.8858 52.1828 31.7915 51.9558C31.0822 50.2631 32.6069 49.0373 34.1837 50.0356C34.8721 50.4707 35.5708 51.328 36.097 52.7582C33.5096 53.3808 30.261 55.0942 29.6032 56.964C29.3505 57.6862 30.1861 58.6709 31.2014 58.8694C31.2196 58.8733 31.2386 58.87 31.2534 58.8597C31.2691 58.85 31.2803 58.8338 31.2835 58.8164C31.8143 56.0239 34.8387 53.9433 36.4129 53.5903C36.4916 53.8004 36.4656 53.7325 36.5452 53.942C34.8309 54.747 33.169 56.4442 32.6935 58.4621C32.4759 59.386 33.5141 60.2194 34.3712 60.447C34.4141 60.4586 34.4564 60.4289 34.4591 60.3875C34.622 57.8356 35.757 55.6683 36.7737 54.6823C36.8017 54.875 36.8226 55.069 36.8363 55.2629C36.8363 55.2629 35.7956 58.1433 35.7956 60.2446C35.7956 61.2222 37.2589 61.9043 37.4752 62C37.7454 61.9043 39.2074 61.2222 39.2074 60.2446C39.2074 58.1427 38.1667 55.2629 38.1667 55.2629C38.1804 55.069 38.2019 54.875 38.2299 54.6823C39.2459 55.6683 40.3817 57.8349 40.5446 60.3869C40.5466 60.4282 40.5894 60.4586 40.6318 60.447C41.4896 60.2194 42.5271 59.386 42.3102 58.4621C41.834 56.4442 40.1726 54.747 38.4585 53.942C38.5374 53.7325 38.5114 53.8004 38.59 53.5903C40.1649 53.9433 43.1887 56.0239 43.7195 58.8164C43.7227 58.8338 43.7339 58.85 43.7495 58.8597C43.7644 58.8694 43.7834 58.8733 43.8016 58.8694C44.8156 58.6709 45.6532 57.6862 45.3985 56.9647C44.7434 55.0942 41.4934 53.3808 38.906 52.7588C39.4335 51.328 40.1323 50.4707 40.82 50.0356C42.3961 49.0373 43.9208 50.2638 43.2115 51.9565C43.1165 52.1828 43.2454 52.4136 43.521 52.4136C45.2754 52.4136 47.4324 53.0375 48.3117 53.8774C48.8092 54.6396 49.7152 55.1498 50.75 55.1498C52.3216 55.1498 53.5954 53.9744 53.5954 52.5254C53.5954 51.2149 52.554 50.1293 51.1942 49.9327Z" fill="#24C433"/>
</g>
<defs>
<clipPath id="clip0_2127_3375">
<rect width="47" height="48" fill="white" transform="translate(14 14)"/>
</clipPath>
</defs>
</svg>
