<svg width="75" height="75" viewBox="0 0 75 75" fill="none" xmlns="http://www.w3.org/2000/svg">
<circle cx="37.6702" cy="37.696" r="36.3298" stroke="#24C433"/>
<path fill-rule="evenodd" clip-rule="evenodd" d="M47.1092 16.9995C48.1175 16.9995 48.9376 17.8222 48.9376 18.8322V23.3801H52.7496V18.8322C52.7496 15.7149 50.2191 13.1792 47.1092 13.1792H42.5489V16.9995H47.1092Z" fill="#24C433"/>
<path fill-rule="evenodd" clip-rule="evenodd" d="M48.9375 37.7094C48.9375 38.7161 48.1178 39.5349 47.109 39.5349H42.5489V43.3385H47.109C50.2191 43.3385 52.7496 40.8136 52.7496 37.7094V33.1375H48.9375V37.7094Z" fill="#24C433"/>
<path fill-rule="evenodd" clip-rule="evenodd" d="M26.4016 18.8321C26.4016 17.8222 27.222 16.9995 28.2303 16.9995H32.7909V13.1792H28.2303C25.1203 13.1792 22.5902 15.7151 22.5902 18.8321V23.3801H26.4016V18.8321Z" fill="#24C433"/>
<path fill-rule="evenodd" clip-rule="evenodd" d="M28.2298 39.5349C27.2218 39.5349 26.4011 38.7159 26.4011 37.7094V33.1375H22.5902V37.7094C22.5902 40.8134 25.1204 43.3385 28.2298 43.3385H32.7909V39.5349H28.2298Z" fill="#24C433"/>
<path fill-rule="evenodd" clip-rule="evenodd" d="M35.5004 37.1293L27.4685 29.0688L30.1259 26.4036L35.5004 31.7964L45.2124 22.0496L47.8699 24.7161L35.5004 37.1293Z" fill="#24C433"/>
<path fill-rule="evenodd" clip-rule="evenodd" d="M49.6305 48.3389C49.6305 48.6348 49.7227 48.8566 49.9075 49.004C50.0919 49.1525 50.3948 49.2262 50.815 49.2262C51.2349 49.2262 51.5392 49.1525 51.7273 49.004C51.9157 48.8566 52.0101 48.6348 52.0101 48.3389H51.1569C51.1569 48.4558 51.1307 48.5403 51.0783 48.5919C51.0257 48.643 50.9382 48.6696 50.815 48.6696C50.6913 48.6696 50.6055 48.643 50.5564 48.5919C50.5077 48.5403 50.4832 48.4558 50.4832 48.3389H49.6305ZM50.19 49.3368H48.9297V53.0789H50.1415L51.4453 51.1709V53.0789H52.7056V49.3368H51.4997L50.19 51.3101V49.3368ZM30.9613 52.1959C31.1449 52.4882 31.3987 52.7155 31.7225 52.8783C32.0463 53.0413 32.4102 53.1222 32.8148 53.1222C33.1857 53.1222 33.5164 53.0592 33.8073 52.9333C34.0988 52.8074 34.3387 52.6254 34.5276 52.3878L33.7148 51.6897C33.4785 51.9767 33.1999 52.1198 32.88 52.1198C32.6106 52.1198 32.3938 52.0362 32.2299 51.8706C32.0666 51.705 31.9853 51.4811 31.9853 51.2015C31.9853 50.9216 32.0666 50.6984 32.2299 50.5318C32.3938 50.3658 32.6106 50.283 32.88 50.283C33.1999 50.283 33.4785 50.4266 33.7148 50.7131L34.5276 50.0154C34.3387 49.7776 34.0988 49.5951 33.8073 49.469C33.5164 49.3432 33.1857 49.2803 32.8148 49.2803C32.4102 49.2803 32.0463 49.3618 31.7225 49.5244C31.3987 49.6869 31.1449 49.915 30.9613 50.2073C30.7773 50.4991 30.6857 50.8303 30.6857 51.2015C30.6857 51.5722 30.7773 51.9037 30.9613 52.1959ZM26.4447 53.0718V49.3297H25.2512V50.9498C25.1197 51.0056 24.9517 51.0329 24.7469 51.0329C24.549 51.0329 24.4015 50.9805 24.3047 50.8734C24.2075 50.7672 24.159 50.6031 24.159 50.3793V49.3297H22.9522V50.5156C22.9522 51.0032 23.0915 51.3747 23.3709 51.6293C23.6501 51.8838 24.057 52.0111 24.5906 52.0111C24.7887 52.0111 25.0085 51.9739 25.2512 51.901V53.0718H26.4447ZM42.2433 58.1766V58.7598H39.5892V58.1766C39.5892 57.6461 39.7093 57.2461 39.949 56.9777C40.1883 56.708 40.5121 56.5736 40.9206 56.5736C41.3227 56.5736 41.644 56.708 41.8836 56.9777C42.1241 57.2461 42.2433 57.6461 42.2433 58.1766ZM43.7656 56.475C43.4958 55.9542 43.1172 55.5576 42.6273 55.2852C42.1372 55.0133 41.5726 54.8767 40.9309 54.8767C40.2892 54.8767 39.723 55.0133 39.2337 55.2852C38.7447 55.5576 38.3649 55.9542 38.0957 56.475C37.8268 56.9962 37.6925 57.6229 37.6925 58.3536V62.2018H39.5892V60.4126H42.2433V62.2018H44.1682V58.3536C44.1682 57.6229 44.0342 56.9962 43.7656 56.475ZM36.2048 55.0626V62.2004H34.2473V59.482H31.5793V62.2004H29.6224V55.0626H31.5793V57.8069H34.2473V55.0626H36.2048ZM27.9159 58.5822C28.2272 58.9391 28.3827 59.3719 28.3827 59.8791C28.3827 60.2928 28.2704 60.6774 28.0466 61.0306C27.8218 61.3846 27.4807 61.6703 27.022 61.8864C26.5639 62.1037 25.9963 62.2123 25.3209 62.2123C24.8246 62.2123 24.3356 62.1512 23.8502 62.032C23.3649 61.9113 22.9447 61.7416 22.5899 61.5213L23.3128 60.0288C23.5871 60.216 23.8968 60.3597 24.2415 60.46C24.5861 60.5596 24.9258 60.6099 25.2602 60.6099C25.6021 60.6099 25.8729 60.5465 26.0738 60.42C26.2742 60.2928 26.3745 60.1123 26.3745 59.8791C26.3745 59.4258 26.0172 59.198 25.3003 59.198H24.4676V57.9463L25.7219 56.5945H22.9519V55.0629H28.031V56.3049L26.5757 57.8661C27.158 57.9862 27.6044 58.2256 27.9159 58.5822ZM47.8541 58.8064V62.2004H45.9045V55.0626H47.8541V58.4397H47.9032L50.4132 55.0626H52.7502L50.0056 58.5027L52.7502 62.2004H50.2087L47.8541 58.8064ZM30.1866 52.1483V53.0786H27.1929V49.3364H30.1866V50.2671H28.3754V50.7086H29.8843V51.5969H28.3754V52.1483H30.1866ZM38.2832 50.341H37.1633V53.0786H35.8969V50.341H34.777V49.3364H38.2832V50.341ZM42.5574 53.0786V49.3364H41.2653V50.6807H40.0724V49.3364H38.7814V53.0786H40.0724V51.695H41.2653V53.0786H42.5574ZM47.0642 53.0783H48.3211V49.3364H47.0642V53.0783ZM45.309 52.0986C45.392 52.0198 45.4335 51.9108 45.4335 51.772C45.4335 51.5273 45.2856 51.4062 44.9899 51.4062H44.4535V52.2157H44.9899C45.1195 52.2157 45.2262 52.1765 45.309 52.0986ZM46.3333 50.849C46.5894 51.053 46.7181 51.3533 46.7181 51.7508C46.7181 52.1799 46.5715 52.508 46.2795 52.7363C45.9861 52.9642 45.5857 53.0786 45.0766 53.0786H43.1969V49.3364H44.4535V50.5431H45.239C45.7122 50.5431 46.0764 50.6448 46.3333 50.849Z" fill="#24C433"/>
</svg>
