<svg width="26" height="15" viewBox="0 0 26 15" fill="none" xmlns="http://www.w3.org/2000/svg">
<path d="M21.1974 4.65211C20.1987 4.65211 19.2959 4.95036 18.5306 5.47177V0.755646H16.4058V9.46424C16.4058 12.1148 18.5626 14.2444 21.1868 14.2444C23.8323 14.2444 25.9997 12.1259 25.9997 9.44291C25.9891 6.7706 23.8642 4.65211 21.1974 4.65211ZM10.3981 10.071L8.45348 4.99261H6.96687L5.01163 10.071L3.05679 4.99261H0.740234L4.1612 13.9359H5.64863L7.69932 8.61258L9.77132 13.9355H11.2583L14.6691 4.99261H12.3636L10.3981 10.071ZM21.1868 12.1148C20.8377 12.1155 20.4919 12.0471 20.1692 11.9136C19.8466 11.7801 19.5534 11.5841 19.3066 11.3368C19.0598 11.0896 18.8642 10.7959 18.731 10.4727C18.5979 10.1495 18.5298 9.80319 18.5306 9.45357C18.5306 7.99516 19.6674 6.80259 21.1974 6.80259C22.7275 6.80259 23.8642 7.99517 23.8642 9.44291C23.8642 10.9546 22.6529 12.1148 21.1868 12.1148Z" fill="white"/>
</svg>
