<svg width="88" height="15" viewBox="0 0 88 15" fill="none" xmlns="http://www.w3.org/2000/svg">
<path d="M82.1898 7.64328C82.1898 7.09061 82.9424 6.64479 83.9284 6.64479C84.957 6.64479 86.0067 7.1336 86.7168 7.93026L88 6.35822C86.7806 5.27418 85.5399 4.71128 83.9922 4.71128C82.0623 4.71128 80.0695 5.60373 80.0695 7.64328C80.0695 10.1507 82.2319 10.3313 83.9922 10.4803C84.9782 10.554 85.8477 10.6289 85.8477 11.277C85.8477 11.9778 84.8511 12.2963 83.9709 12.2963C82.9531 12.2963 81.8506 11.8612 81.0448 10.8942L79.677 12.35C80.7689 13.6886 82.3489 14.2728 83.8966 14.2728C85.8371 14.2728 87.9681 13.3484 87.9681 11.2344C87.9681 8.84359 85.7839 8.61024 84.1087 8.44035C83.0589 8.33391 82.1898 8.23852 82.1898 7.64328ZM72.4357 8.23852C72.7856 7.35671 73.5382 6.84662 74.6513 6.84662C75.7751 6.84662 76.4431 7.38823 76.7296 8.23852H72.4357ZM74.7576 4.71128C72.107 4.71128 69.9756 6.78275 69.9756 9.5027C69.9756 12.063 71.863 14.2728 74.6407 14.2728C76.3159 14.2728 77.6731 13.4651 78.6379 12.0843L77.1748 10.8414C76.6552 11.638 75.7224 12.1056 74.6088 12.1056C73.4744 12.1056 72.2975 11.2557 72.2023 10.0017H79.1256V9.25829C79.1043 6.63415 77.3232 4.71128 74.7576 4.71128ZM47.6364 4.71128C44.9858 4.71128 42.8548 6.78275 42.8548 9.5027C42.8548 12.063 44.7422 14.2728 47.5199 14.2728C49.1951 14.2728 50.5523 13.4651 51.517 12.0843L50.054 10.8414C49.5344 11.638 48.6016 12.1056 47.488 12.1056C46.3536 12.1056 45.1767 11.2557 45.0815 10.0017H52.0047V9.25829C51.9941 6.63415 50.2024 4.71128 47.6364 4.71128ZM66.7739 13.9433H68.8943V5.04042H66.7739V13.9437V13.9433ZM67.8339 0.705872C66.9755 0.705872 66.2437 1.42843 66.2437 2.33112C66.2437 3.22358 66.9542 3.88268 67.8764 3.88268C68.7778 3.88268 69.4352 3.24528 69.4352 2.36346C69.4245 1.46036 68.7034 0.705872 67.8339 0.705872ZM37.0978 4.70063C36.1011 4.70063 35.2002 4.99825 34.4365 5.51858V0.812311H32.3161V9.5027C32.3161 12.1477 34.4684 14.2728 37.0871 14.2728C39.7271 14.2728 41.89 12.1588 41.89 9.48141C41.8794 6.81469 39.759 4.70063 37.0978 4.70063ZM26.0715 4.84924C23.707 5.09364 21.7771 7.1336 21.7771 9.56656C21.7771 12.1375 23.9723 14.2941 26.5379 14.2941C29.0928 14.2941 31.2983 12.1375 31.2983 9.56656C31.2983 8.47228 30.9058 7.46274 30.2697 6.66608L25.5625 0.822955H22.8163L26.0715 4.84924ZM9.63765 10.1082L7.69712 5.04042H6.21362L4.26246 10.1082L2.31171 5.04042H0L3.41381 13.965H4.89813L6.94454 8.65282L9.0122 13.9646H10.4961L13.8997 5.04042H11.599L9.63765 10.1082ZM55.2383 7.06973V5.04042H53.1179V13.9437H55.2383V10.1831C55.2383 8.3556 57.1894 7.24004 59.1296 7.24004V5.04083H58.9174C57.2741 5.04083 56.0865 5.63607 55.2383 7.07014V7.06973ZM61.9711 7.06973V5.04042H59.8507V13.9437H61.9711V10.1831C61.9711 8.3556 63.9218 7.24004 65.8619 7.24004V5.04083H65.6502C64.0171 5.04083 62.8299 5.63607 61.9711 7.07014V7.06973ZM18.5648 13.9433H20.6848V0.822955H18.5644V13.9437L18.5648 13.9433ZM26.5485 12.1477C25.085 12.1477 23.8979 10.9687 23.8979 9.5027C23.8979 8.02605 25.085 6.84662 26.5379 6.84662C28.0116 6.84662 29.2097 8.02564 29.2097 9.5027C29.2097 10.9687 28.0116 12.1477 26.5485 12.1477ZM37.0871 12.1477C36.7388 12.1484 36.3937 12.0802 36.0717 11.947C35.7497 11.8137 35.4572 11.6181 35.2109 11.3714C34.9646 11.1246 34.7694 10.8316 34.6365 10.5091C34.5036 10.1866 34.4357 9.84094 34.4365 9.49205C34.4365 8.03669 35.5709 6.84662 37.0978 6.84662C38.6246 6.84662 39.759 8.0367 39.759 9.48141C39.759 10.99 38.5502 12.1477 37.0871 12.1477ZM14.8857 13.9433H17.0061V5.04042H14.8857V13.9437V13.9433ZM15.9249 0.705872C15.066 0.705872 14.3449 1.42843 14.3449 2.34218C14.3449 3.26656 15.0979 3.89333 15.9249 3.89333C16.8471 3.89333 17.5469 3.12819 17.5469 2.2996C17.5363 1.46036 16.8046 0.705872 15.9249 0.705872ZM45.3145 8.23852C45.675 7.35671 46.4174 6.84662 47.5199 6.84662C48.6543 6.84662 49.3435 7.38823 49.6297 8.23852H45.3145Z" fill="white"/>
</svg>
